<svg width="36" height="36" viewBox="0 0 36 36" fill="none" xmlns="http://www.w3.org/2000/svg">
<circle cx="18" cy="18" r="18" fill="#7EE787"/>
<path d="M14.9464 16.1762C14.9924 16.3145 14.9816 16.4654 14.9164 16.5957C14.8513 16.7261 14.737 16.8252 14.5988 16.8714C14.4299 16.9248 14.2733 17.0111 14.1379 17.1253C14.0026 17.2395 13.8912 17.3794 13.8101 17.5369C13.6066 17.9208 13.4669 18.5522 13.5956 19.5829C13.6092 19.7254 13.5667 19.8676 13.4771 19.9793C13.3875 20.0909 13.2578 20.1632 13.1158 20.1809C12.9737 20.1985 12.8303 20.16 12.7162 20.0736C12.602 19.9872 12.5261 19.8597 12.5044 19.7182C12.3581 18.5489 12.4934 17.6678 12.8399 17.0199C13.1919 16.3599 13.7276 16.0024 14.2512 15.8286C14.3895 15.7826 14.5404 15.7934 14.6707 15.8586C14.8011 15.9237 14.9002 16.038 14.9464 16.1762ZM20.3738 10.2714C20.507 10.2213 20.6155 10.1216 20.6767 9.99319C20.7379 9.86477 20.747 9.71763 20.702 9.58268C20.657 9.44772 20.5615 9.33544 20.4355 9.26942C20.3095 9.2034 20.1628 9.18877 20.0262 9.2286C18.9944 9.5718 18.3509 10.4188 17.9736 11.3263C17.9224 11.449 17.8755 11.5733 17.8328 11.6992C17.6271 11.3089 17.3638 10.9518 17.0518 10.6399C16.629 10.2162 16.124 9.88344 15.5678 9.66211C15.0117 9.44078 14.4161 9.33556 13.8178 9.3529C13.5114 9.36122 13.2198 9.48658 13.0029 9.70324C12.7861 9.91989 12.6604 10.2114 12.6518 10.5178C12.6345 11.1242 12.743 11.7275 12.9706 12.2898C13.1982 12.8522 13.5398 13.3612 13.974 13.7848C13.05 13.985 12.215 14.4773 11.5925 15.1889C10.9701 15.9005 10.5932 16.7936 10.5178 17.736L10.5112 17.8174C10.366 19.6293 10.7521 21.4443 11.6222 23.0402L12.0171 23.764C12.0281 23.7827 12.0391 23.8014 12.0523 23.819L13.1523 25.3612C13.4016 25.7103 13.724 26.001 14.097 26.2129C14.4701 26.4248 14.8848 26.5529 15.3123 26.5883C15.7399 26.6237 16.17 26.5655 16.5728 26.4178C16.9756 26.2701 17.3414 26.0364 17.6447 25.733C17.6913 25.6864 17.7466 25.6494 17.8075 25.6242C17.8683 25.599 17.9336 25.586 17.9995 25.586C18.0654 25.586 18.1306 25.599 18.1915 25.6242C18.2523 25.6494 18.3076 25.6864 18.3542 25.733C18.6575 26.0364 19.0233 26.2701 19.4261 26.4178C19.8289 26.5655 20.259 26.6237 20.6866 26.5883C21.1141 26.5529 21.5289 26.4248 21.9019 26.2129C22.2749 26.001 22.5973 25.7103 22.8466 25.3612L23.9466 23.8201C23.9598 23.8021 23.9719 23.7834 23.9829 23.764L24.3767 23.0402C25.2472 21.4444 25.6337 19.6294 25.4888 17.8174L25.4822 17.736C25.4335 17.1287 25.2592 16.5381 24.9704 16.0016C24.6815 15.4652 24.2844 14.9946 23.8041 14.6196C23.3239 14.2446 22.771 13.9735 22.1805 13.8234C21.5901 13.6732 20.9748 13.6474 20.3738 13.7474L18.55 14.051C18.561 13.3019 18.693 12.4593 18.9878 11.7487C19.2969 11.0062 19.7545 10.4782 20.3738 10.2714ZM16.5898 13.908L16.4204 13.8794C15.7749 13.7546 15.1817 13.4388 14.7176 12.973C14.3996 12.656 14.1498 12.2773 13.9837 11.8602C13.8176 11.443 13.7387 10.9963 13.7518 10.5475C13.7521 10.522 13.7624 10.4977 13.7806 10.4798C13.7987 10.4618 13.8231 10.4518 13.8486 10.4518C14.2972 10.4389 14.7438 10.5179 15.1607 10.684C15.5776 10.8501 15.9562 11.0997 16.273 11.4176C16.9407 12.0853 17.263 12.9664 17.2388 13.8431C17.2385 13.8684 17.2284 13.8926 17.2105 13.9105C17.1926 13.9283 17.1684 13.9385 17.1431 13.9388C16.9581 13.944 16.7731 13.9337 16.5898 13.908ZM16.229 14.9629L16.4204 14.9948L17.2762 15.1378C17.7554 15.2177 18.2446 15.2177 18.7238 15.1378L20.5542 14.832C21.0051 14.7568 21.4667 14.7761 21.9097 14.8886C22.3527 15.0012 22.7676 15.2046 23.1279 15.4859C23.4882 15.7672 23.7861 16.1203 24.0028 16.5227C24.2195 16.9252 24.3502 17.3683 24.3866 17.824L24.3921 17.9054C24.5201 19.5045 24.1791 21.1061 23.4109 22.5144L23.0325 23.2074L21.9512 24.721C21.7948 24.9402 21.5926 25.1227 21.3585 25.2558C21.1245 25.3888 20.8642 25.4693 20.5959 25.4916C20.3275 25.5139 20.0576 25.4775 19.8048 25.3849C19.5519 25.2923 19.3223 25.1457 19.1319 24.9553C18.8316 24.655 18.4242 24.4863 17.9995 24.4863C17.5747 24.4863 17.1674 24.655 16.867 24.9553C16.6766 25.1457 16.447 25.2923 16.1942 25.3849C15.9414 25.4775 15.6714 25.5139 15.4031 25.4916C15.1347 25.4693 14.8745 25.3888 14.6404 25.2558C14.4064 25.1227 14.2041 24.9402 14.0477 24.721L12.9664 23.2074L12.588 22.5144C11.8198 21.1061 11.4788 19.5045 11.6068 17.9054L11.6134 17.824C11.6498 17.3683 11.7806 16.9252 11.9972 16.5227C12.2139 16.1203 12.5119 15.7672 12.8722 15.4859C13.2325 15.2046 13.6473 15.0012 14.0903 14.8886C14.5333 14.7761 14.9949 14.7568 15.4458 14.832L16.229 14.9629Z" fill="#111111"/>
</svg>
