<svg width="36" height="36" viewBox="0 0 36 36" fill="none" xmlns="http://www.w3.org/2000/svg">
<circle cx="18" cy="18" r="18" fill="#F2CC60"/>
<path d="M24.25 9.875H13.625C12.9626 9.87706 12.3279 10.1411 11.8595 10.6095C11.3911 11.0779 11.1271 11.7126 11.125 12.375V25.5C11.125 25.6658 11.1908 25.8247 11.3081 25.9419C11.4253 26.0592 11.5842 26.125 11.75 26.125H23C23.1658 26.125 23.3247 26.0592 23.4419 25.9419C23.5592 25.8247 23.625 25.6658 23.625 25.5C23.625 25.3342 23.5592 25.1753 23.4419 25.0581C23.3247 24.9408 23.1658 24.875 23 24.875H12.375C12.375 24.5435 12.5067 24.2255 12.7411 23.9911C12.9755 23.7567 13.2935 23.625 13.625 23.625H24.25C24.4158 23.625 24.5747 23.5592 24.6919 23.4419C24.8092 23.3247 24.875 23.1658 24.875 23V10.5C24.875 10.3342 24.8092 10.1753 24.6919 10.0581C24.5747 9.94085 24.4158 9.875 24.25 9.875ZM23.625 22.375H13.625C13.1862 22.376 12.7552 22.4918 12.375 22.7109V12.375C12.375 12.0435 12.5067 11.7255 12.7411 11.4911C12.9755 11.2567 13.2935 11.125 13.625 11.125H23.625V22.375Z" fill="#111111"/>
</svg>
