<svg width="36" height="36" viewBox="0 0 36 36" fill="none" xmlns="http://www.w3.org/2000/svg">
<circle cx="18" cy="18" r="18" fill="#FFC1BA"/>
<path d="M26.5228 12.6875H22.0625V9.5625H20.8125V12.6875H15.8125V13.9375H16.5125L16.7529 15.8125H12.375C11.5465 15.8134 10.7522 16.143 10.1663 16.7288C9.58048 17.3147 9.25094 18.109 9.25 18.9375V19.5625H20.1875V18.9375C20.188 18.4659 20.0812 18.0004 19.875 17.5763C19.6914 17.1984 19.4338 16.8613 19.1174 16.5849C18.8009 16.3085 18.4322 16.0986 18.033 15.9675L17.7728 13.9375H25.1022L23.6999 24.875H9.25V26.125H24.8L26.3625 13.9375H27.375V12.6875H26.5228ZM18.8304 18.3125H10.6071C10.7368 17.9472 10.9763 17.6309 11.2928 17.4071C11.6093 17.1833 11.9874 17.0629 12.375 17.0625H17.0625C17.4501 17.0629 17.8282 17.1833 18.1447 17.4071C18.4612 17.6309 18.7007 17.9472 18.8304 18.3125Z" fill="#111111"/>
<path d="M19.875 21.75H20.1875V20.5H9.25V21.75H19.875ZM19.875 23.9375H20.1875V22.6875H9.25V23.9375H19.875Z" fill="#111111"/>
</svg>
