<svg width="36" height="36" viewBox="0 0 36 36" fill="none" xmlns="http://www.w3.org/2000/svg">
<circle cx="18" cy="18" r="18" fill="#A5D6FF"/>
<path d="M24.875 13H21.6953C21.5449 12.129 21.0917 11.3391 20.4155 10.7697C19.7394 10.2003 18.8839 9.88809 18 9.88809C17.1161 9.88809 16.2606 10.2003 15.5845 10.7697C14.9083 11.3391 14.4551 12.129 14.3047 13H11.125C10.7935 13 10.4755 13.1317 10.2411 13.3661C10.0067 13.6005 9.875 13.9185 9.875 14.25V24.25C9.875 24.5815 10.0067 24.8995 10.2411 25.1339C10.4755 25.3683 10.7935 25.5 11.125 25.5H24.875C25.2065 25.5 25.5245 25.3683 25.7589 25.1339C25.9933 24.8995 26.125 24.5815 26.125 24.25V14.25C26.125 13.9185 25.9933 13.6005 25.7589 13.3661C25.5245 13.1317 25.2065 13 24.875 13ZM18 11.125C18.5541 11.1261 19.0923 11.3106 19.5304 11.6498C19.9686 11.989 20.2821 12.4638 20.4219 13H15.5781C15.7179 12.4638 16.0314 11.989 16.4696 11.6498C16.9077 11.3106 17.4459 11.1261 18 11.125ZM24.875 24.25H11.125V14.25H14.25V16.125C14.25 16.2908 14.3158 16.4497 14.4331 16.5669C14.5503 16.6841 14.7092 16.75 14.875 16.75C15.0408 16.75 15.1997 16.6841 15.3169 16.5669C15.4342 16.4497 15.5 16.2908 15.5 16.125V14.25H20.5V16.125C20.5 16.2908 20.5658 16.4497 20.6831 16.5669C20.8003 16.6841 20.9592 16.75 21.125 16.75C21.2908 16.75 21.4497 16.6841 21.5669 16.5669C21.6842 16.4497 21.75 16.2908 21.75 16.125V14.25H24.875V24.25Z" fill="#111111"/>
</svg>
