<svg width="36" height="36" viewBox="0 0 36 36" fill="none" xmlns="http://www.w3.org/2000/svg">
<circle cx="18" cy="18" r="18" fill="#E2C5FF"/>
<mask id="path-2-outside-1_12_271" maskUnits="userSpaceOnUse" x="8" y="8" width="19" height="19" fill="black">
<rect fill="white" x="8" y="8" width="19" height="19"/>
<path fill-rule="evenodd" clip-rule="evenodd" d="M13.5985 9.12648C13.3646 9.19337 12.9938 9.33887 12.7745 9.4498C12.4786 9.59958 12.2576 9.77056 11.9175 10.1129C11.5884 10.4442 11.4066 10.6798 11.2726 10.9488C11.1699 11.1548 11.0352 11.5055 10.9733 11.7281C10.8915 12.0222 10.8607 12.2856 10.8607 12.6915C10.8607 13.0804 10.8915 13.3584 10.962 13.6066C11.0177 13.8027 11.1665 14.1638 11.2927 14.4091C11.419 14.6544 11.6306 14.9726 11.7629 15.1162C11.8953 15.2598 12.1416 15.4842 12.3101 15.6149C12.4786 15.7456 12.7709 15.9229 12.9595 16.0091C13.2332 16.1339 13.3565 16.2334 13.5691 16.5004C13.7158 16.6845 13.9696 16.9403 14.1331 17.0688C14.2967 17.1973 14.5663 17.3698 14.7322 17.4521C14.8981 17.5344 15.2149 17.652 15.436 17.7134C15.71 17.7895 15.9951 17.8251 16.3309 17.8251C16.6558 17.8251 16.9716 17.7871 17.2579 17.7136C17.4967 17.6524 17.8834 17.5035 18.1173 17.3828C18.4386 17.2171 18.6533 17.0513 18.9949 16.705C19.2733 16.4228 19.511 16.123 19.613 15.9254C19.7043 15.7488 19.8334 15.4365 19.9 15.2314C19.9994 14.925 20.0213 14.7385 20.0223 14.1879C20.0233 13.63 20.0029 13.4544 19.9011 13.1428C19.8338 12.9368 19.696 12.6076 19.5949 12.4113C19.4938 12.2149 19.2775 11.9057 19.1142 11.7241C18.9509 11.5424 18.6924 11.3009 18.5398 11.1875C18.3872 11.074 18.1053 10.9065 17.9133 10.8152C17.6462 10.6881 17.5182 10.586 17.3677 10.3795C17.2595 10.2312 17.0288 9.99076 16.8551 9.8452C16.6813 9.69965 16.3799 9.49994 16.1853 9.40143C15.9906 9.30291 15.6504 9.17127 15.4292 9.10893C15.1402 9.02749 14.8861 8.99688 14.5255 9.00025C14.1758 9.00351 13.895 9.04172 13.5985 9.12648ZM15.2487 9.61178C15.423 9.65636 15.7394 9.77831 15.952 9.88277C16.1645 9.98723 16.3759 10.1303 16.4217 10.2007C16.4675 10.2711 16.4918 10.3503 16.4755 10.3767C16.4593 10.4032 16.3034 10.4398 16.1291 10.4582C15.9547 10.4765 15.6478 10.5373 15.4471 10.5933C15.2464 10.6493 14.9601 10.7574 14.8109 10.8335C14.6617 10.9096 14.4313 11.0454 14.299 11.1353C14.1666 11.2252 13.904 11.4667 13.7153 11.6718C13.4855 11.9216 13.2907 12.2085 13.1257 12.5403C12.9713 12.8507 12.8474 13.1956 12.7937 13.4637C12.7319 13.7728 12.718 14.0182 12.7436 14.3467C12.7631 14.5969 12.784 14.8853 12.7901 14.9876C12.7987 15.1322 12.7788 15.178 12.7008 15.1936C12.6325 15.2073 12.4972 15.1049 12.2755 14.8716C12.0968 14.6836 11.8708 14.379 11.7733 14.1948C11.6758 14.0107 11.5501 13.6987 11.4942 13.5016C11.4319 13.2823 11.3923 12.9764 11.3923 12.7138C11.3923 12.444 11.4332 12.1358 11.5024 11.8846C11.563 11.6646 11.6885 11.3407 11.7815 11.1647C11.8744 10.9887 12.0919 10.6922 12.2648 10.506C12.4376 10.3198 12.7395 10.0731 12.9357 9.95785C13.1318 9.84253 13.4569 9.70099 13.658 9.64325C13.884 9.57845 14.1974 9.53687 14.4778 9.53451C14.7275 9.53243 15.0744 9.56721 15.2487 9.61178ZM17.1604 11.1187C17.3358 11.1648 17.6267 11.2726 17.8069 11.3582C17.9901 11.4453 18.2947 11.6634 18.498 11.8532C18.698 12.0398 18.9519 12.3461 19.0623 12.5339C19.1728 12.7216 19.3123 13.0317 19.3724 13.223C19.4546 13.4846 19.482 13.7169 19.4829 14.1595C19.484 14.6579 19.463 14.8088 19.3462 15.1438C19.2704 15.3614 19.1441 15.6504 19.0657 15.786C18.9873 15.9215 18.7656 16.1916 18.573 16.3861C18.3805 16.5807 18.0916 16.8069 17.9309 16.8888C17.7703 16.9708 17.4714 17.0957 17.2667 17.1664C16.9986 17.2589 16.7758 17.2954 16.4693 17.2967C16.2354 17.2977 15.8765 17.2574 15.6719 17.207C15.4672 17.1567 15.1562 17.048 14.9808 16.9655C14.8053 16.8831 14.5492 16.7273 14.4117 16.6195C14.2742 16.5116 14.0623 16.2908 13.9408 16.1289C13.8193 15.9669 13.6476 15.6743 13.5591 15.4785C13.4626 15.2649 13.3696 14.9305 13.3265 14.6418C13.266 14.2365 13.2662 14.0833 13.3275 13.6684C13.3817 13.3019 13.4563 13.0594 13.6192 12.7207C13.7785 12.3893 13.9301 12.1729 14.1761 11.9252C14.4053 11.6945 14.6405 11.5231 14.9069 11.3927C15.123 11.2868 15.4074 11.1703 15.539 11.1338C15.6705 11.0973 15.9217 11.0516 16.0972 11.0323C16.2726 11.013 16.5118 11.0057 16.6288 11.016C16.7457 11.0264 16.985 11.0727 17.1604 11.1187ZM16.1769 11.6712C16.1054 11.7432 16.0706 11.8496 16.0706 11.9963C16.0706 12.1681 16.0404 12.2391 15.9284 12.3308C15.8502 12.3948 15.6854 12.5436 15.5623 12.6614C15.4263 12.7916 15.3124 12.9629 15.2723 13.0977C15.236 13.2198 15.2216 13.4024 15.2405 13.5035C15.2593 13.6045 15.3607 13.7883 15.4657 13.9119C15.5707 14.0354 15.7438 14.1807 15.8503 14.2349C15.9569 14.289 16.1851 14.3741 16.3576 14.4241C16.5435 14.478 16.7328 14.577 16.8227 14.6676C16.9258 14.7713 16.9743 14.8746 16.9743 14.9901C16.9743 15.1103 16.9272 15.2044 16.8134 15.3114C16.7249 15.3946 16.5839 15.4779 16.5 15.4964C16.4112 15.516 16.2729 15.498 16.1691 15.4532C16.0711 15.4109 15.9084 15.2891 15.8076 15.1826C15.7068 15.0761 15.5741 14.9889 15.5126 14.9889C15.4511 14.9889 15.372 15.0178 15.3369 15.0532C15.3019 15.0885 15.2733 15.1667 15.2734 15.2271C15.2735 15.2874 15.3198 15.4131 15.3763 15.5065C15.4329 15.5998 15.5888 15.7409 15.7229 15.82C15.857 15.8991 15.99 16.0077 16.0186 16.0615C16.0472 16.1152 16.0706 16.245 16.0706 16.35C16.0706 16.4695 16.1103 16.5808 16.1769 16.6478C16.2354 16.7067 16.3174 16.7548 16.3592 16.7548C16.4009 16.7548 16.4727 16.717 16.5187 16.6708C16.5646 16.6245 16.6022 16.5025 16.6022 16.3997C16.6022 16.2968 16.6269 16.1662 16.6571 16.1094C16.6874 16.0525 16.801 15.96 16.9096 15.9037C17.0184 15.8474 17.1715 15.733 17.25 15.6494C17.3286 15.5658 17.4183 15.4295 17.4494 15.3467C17.4805 15.2638 17.506 15.0881 17.506 14.956C17.506 14.8241 17.4722 14.6511 17.431 14.5716C17.3897 14.4921 17.2881 14.3636 17.205 14.286C17.122 14.2084 16.9823 14.1091 16.8946 14.0653C16.8069 14.0214 16.5991 13.9463 16.433 13.8982C16.2668 13.8501 16.0575 13.7486 15.9678 13.6727C15.8394 13.564 15.8048 13.4921 15.8048 13.3346C15.8048 13.1953 15.8418 13.0997 15.9267 13.0194C15.9937 12.956 16.1246 12.8775 16.2175 12.8449C16.3408 12.8016 16.4344 12.8015 16.564 12.8446C16.6618 12.8771 16.8348 12.9996 16.9486 13.1169C17.0644 13.2363 17.2063 13.3301 17.271 13.3301C17.3346 13.3301 17.4156 13.2949 17.451 13.252C17.4888 13.2061 17.5016 13.1107 17.4819 13.0208C17.4636 12.9365 17.3811 12.7933 17.2986 12.7024C17.2162 12.6116 17.0505 12.4868 16.9304 12.4251C16.8103 12.3634 16.6874 12.2665 16.6571 12.2096C16.6269 12.1528 16.6022 12.0222 16.6022 11.9193C16.6022 11.8165 16.5646 11.6945 16.5187 11.6482C16.4727 11.602 16.4009 11.5642 16.3592 11.5642C16.3174 11.5642 16.2354 11.6123 16.1769 11.6712ZM10.2224 18.4271C10.0344 18.5232 9.9574 18.6082 9.84145 18.8476C9.73779 19.0619 9.64991 19.1671 9.53471 19.2151C9.44593 19.2521 9.28931 19.376 9.18665 19.4904C9.02738 19.6678 9 19.7363 9 19.9574C9 20.1701 9.03934 20.278 9.21961 20.5593C9.3404 20.7478 9.69329 21.1554 10.0038 21.4649C10.3143 21.7745 10.8575 22.2802 11.2111 22.5887C11.5646 22.8972 12.3182 23.5494 12.8857 24.0381C13.4532 24.5268 14.085 25.04 14.2896 25.1785C14.4943 25.3169 14.8532 25.525 15.0871 25.6408C15.321 25.7566 15.6651 25.8898 15.8518 25.9368C16.098 25.9988 16.3097 26.0131 16.6226 25.9888C16.8599 25.9703 17.2933 25.9186 17.5857 25.8737C17.8781 25.8288 18.3924 25.7441 18.7287 25.6854C19.0649 25.6268 19.5314 25.5448 19.7654 25.5033C19.9993 25.4618 20.406 25.389 20.6691 25.3413C20.9323 25.2938 21.3748 25.2098 21.6526 25.1546C21.9304 25.0995 22.361 25.0138 22.6095 24.9642C22.8581 24.9145 23.3126 24.8726 23.6196 24.8709C24.0255 24.8687 24.2576 24.8947 24.4702 24.966C24.631 25.0199 24.8755 25.1209 25.0134 25.1904C25.1513 25.2599 25.3199 25.3168 25.3882 25.3168C25.4564 25.3168 25.5409 25.2879 25.576 25.2526C25.6111 25.2172 25.6398 25.1367 25.6398 25.0736C25.6398 25.0104 25.5973 24.92 25.5453 24.8727C25.4933 24.8253 25.2002 24.6851 24.894 24.561C24.3452 24.3387 24.328 24.3354 23.6728 24.3332C23.1804 24.3316 22.8567 24.3626 22.4235 24.453C22.1018 24.5201 21.6593 24.6085 21.44 24.6496C21.2207 24.6906 20.8259 24.7628 20.5628 24.8099C20.2996 24.8571 19.8451 24.9402 19.5527 24.9946C19.2603 25.049 18.7938 25.1303 18.516 25.1753C18.2383 25.2205 17.7106 25.3068 17.3433 25.3673C16.9761 25.4278 16.5388 25.4773 16.3714 25.4773C16.1596 25.4773 15.9395 25.4278 15.647 25.3142C15.416 25.2245 15.0161 25.0089 14.7583 24.835C14.5005 24.661 13.9402 24.2227 13.5131 23.8609C13.0859 23.4991 12.4471 22.9559 12.0935 22.6539C11.7399 22.3519 11.1767 21.8462 10.8421 21.5302C10.5074 21.2141 10.1279 20.8351 9.99887 20.688C9.86973 20.5408 9.72375 20.3609 9.67447 20.2881C9.62514 20.2154 9.58478 20.0775 9.58478 19.9818C9.58478 19.8432 9.61674 19.7912 9.74161 19.7262C9.8279 19.6813 9.96707 19.6445 10.051 19.6445C10.1348 19.6445 10.3334 19.6831 10.4922 19.7303C10.651 19.7775 10.9364 19.9025 11.1265 20.0081C11.3165 20.1137 11.6754 20.331 11.9239 20.491C12.1725 20.6509 12.5672 20.9315 12.8011 21.1146C13.035 21.2976 13.5733 21.6789 13.9973 21.9618C14.4212 22.2447 14.9106 22.5976 15.0848 22.746C15.2945 22.9246 15.4499 23.0158 15.5449 23.0158C15.6332 23.0158 15.9043 22.8725 16.2503 22.6429C16.5594 22.4378 16.9134 22.2182 17.037 22.1547C17.1605 22.0912 17.3921 21.9942 17.5516 21.9389C17.778 21.8605 17.9954 21.8385 18.5438 21.8385C19.1737 21.8385 19.2604 21.8271 19.386 21.7276C19.4631 21.6666 19.5261 21.5716 19.5261 21.5166C19.5261 21.4615 19.4742 21.3798 19.4107 21.3351C19.3098 21.2639 18.9991 21.2579 16.9464 21.2871L14.5976 21.3205L14.3538 21.2017C14.168 21.1112 14.0826 21.0261 13.995 20.8439C13.9193 20.6864 13.8918 20.5579 13.9145 20.467C13.9334 20.3911 13.9857 20.2725 14.0306 20.2034C14.0756 20.1343 14.2121 20.0299 14.3339 19.9712C14.4558 19.9126 14.711 19.8496 14.901 19.8312C15.0911 19.8128 15.4858 19.7649 15.7782 19.7248C16.0706 19.6846 16.6089 19.6147 16.9743 19.5695C17.3398 19.5242 17.9499 19.4497 18.33 19.4039C18.7101 19.358 19.1194 19.3082 19.2396 19.2931C19.3597 19.278 20.0415 19.2641 20.7547 19.2624L22.0513 19.2591L22.6361 19.4803C22.9578 19.602 23.4601 19.8242 23.7525 19.9742C24.0449 20.1243 24.5773 20.4121 24.9358 20.6138C25.2941 20.8154 25.642 20.9943 25.7089 21.0111C25.792 21.0322 25.8619 21.007 25.9296 20.9316C26.0109 20.8413 26.0181 20.7978 25.97 20.6915C25.9359 20.616 25.7157 20.4449 25.4433 20.2822C25.1859 20.1285 24.615 19.8165 24.1747 19.5889C23.7345 19.3613 23.1483 19.09 22.8723 18.9861C22.5261 18.8557 22.1971 18.7769 21.8121 18.7318C21.3761 18.6809 21.0096 18.6806 20.1375 18.7302C19.5235 18.7652 18.6862 18.8291 18.2768 18.8722C17.8675 18.9154 17.2215 18.9889 16.8414 19.0355C16.4613 19.0822 15.8605 19.166 15.5064 19.2219C15.1522 19.2777 14.7813 19.3233 14.6824 19.3232C14.5833 19.323 14.3847 19.3652 14.241 19.4168C14.0973 19.4684 13.8656 19.6139 13.7261 19.74C13.5105 19.935 13.4627 20.0152 13.4077 20.2751C13.3721 20.4433 13.3111 20.6158 13.2722 20.6585C13.2109 20.7257 13.1783 20.7188 13.0278 20.6062C12.9324 20.5347 12.639 20.3286 12.3758 20.1482C12.1127 19.9677 11.7179 19.7219 11.4986 19.6019C11.2793 19.4819 10.9607 19.3318 10.7906 19.2681C10.6204 19.2045 10.4682 19.1184 10.4523 19.0767C10.4365 19.035 10.453 18.9652 10.4891 18.9214C10.5252 18.8776 10.6312 18.8418 10.7246 18.8418C10.8181 18.8418 11.0245 18.8803 11.1833 18.9273C11.3421 18.9743 11.6553 19.1084 11.8794 19.2251C12.1034 19.3419 12.4605 19.5683 12.6729 19.7283C12.8853 19.8882 13.0923 20.0191 13.1329 20.0191C13.1736 20.0191 13.2531 19.9941 13.3097 19.9637C13.3662 19.9332 13.4125 19.8642 13.4125 19.8104C13.4125 19.7565 13.3621 19.648 13.3006 19.5693C13.2391 19.4907 13.0176 19.31 12.8084 19.1679C12.5993 19.0258 12.2369 18.8132 12.0032 18.6954C11.7695 18.5775 11.4431 18.4419 11.2778 18.3939C11.1125 18.346 10.8604 18.3067 10.7176 18.3067C10.5535 18.3067 10.3712 18.3511 10.2224 18.4271ZM16.1496 21.8909C16.1673 21.9197 16.1588 21.9859 16.1307 22.038C16.1026 22.0902 15.9699 22.1925 15.8359 22.2654L15.5923 22.3981L15.3996 22.2936C15.2936 22.2361 15.1718 22.1353 15.1291 22.0697C15.0863 22.004 15.0668 21.9251 15.0856 21.8944C15.1055 21.862 15.3296 21.8385 15.6187 21.8385C15.893 21.8385 16.1319 21.8621 16.1496 21.8909Z"/>
</mask>
<path fill-rule="evenodd" clip-rule="evenodd" d="M13.5985 9.12648C13.3646 9.19337 12.9938 9.33887 12.7745 9.4498C12.4786 9.59958 12.2576 9.77056 11.9175 10.1129C11.5884 10.4442 11.4066 10.6798 11.2726 10.9488C11.1699 11.1548 11.0352 11.5055 10.9733 11.7281C10.8915 12.0222 10.8607 12.2856 10.8607 12.6915C10.8607 13.0804 10.8915 13.3584 10.962 13.6066C11.0177 13.8027 11.1665 14.1638 11.2927 14.4091C11.419 14.6544 11.6306 14.9726 11.7629 15.1162C11.8953 15.2598 12.1416 15.4842 12.3101 15.6149C12.4786 15.7456 12.7709 15.9229 12.9595 16.0091C13.2332 16.1339 13.3565 16.2334 13.5691 16.5004C13.7158 16.6845 13.9696 16.9403 14.1331 17.0688C14.2967 17.1973 14.5663 17.3698 14.7322 17.4521C14.8981 17.5344 15.2149 17.652 15.436 17.7134C15.71 17.7895 15.9951 17.8251 16.3309 17.8251C16.6558 17.8251 16.9716 17.7871 17.2579 17.7136C17.4967 17.6524 17.8834 17.5035 18.1173 17.3828C18.4386 17.2171 18.6533 17.0513 18.9949 16.705C19.2733 16.4228 19.511 16.123 19.613 15.9254C19.7043 15.7488 19.8334 15.4365 19.9 15.2314C19.9994 14.925 20.0213 14.7385 20.0223 14.1879C20.0233 13.63 20.0029 13.4544 19.9011 13.1428C19.8338 12.9368 19.696 12.6076 19.5949 12.4113C19.4938 12.2149 19.2775 11.9057 19.1142 11.7241C18.9509 11.5424 18.6924 11.3009 18.5398 11.1875C18.3872 11.074 18.1053 10.9065 17.9133 10.8152C17.6462 10.6881 17.5182 10.586 17.3677 10.3795C17.2595 10.2312 17.0288 9.99076 16.8551 9.8452C16.6813 9.69965 16.3799 9.49994 16.1853 9.40143C15.9906 9.30291 15.6504 9.17127 15.4292 9.10893C15.1402 9.02749 14.8861 8.99688 14.5255 9.00025C14.1758 9.00351 13.895 9.04172 13.5985 9.12648ZM15.2487 9.61178C15.423 9.65636 15.7394 9.77831 15.952 9.88277C16.1645 9.98723 16.3759 10.1303 16.4217 10.2007C16.4675 10.2711 16.4918 10.3503 16.4755 10.3767C16.4593 10.4032 16.3034 10.4398 16.1291 10.4582C15.9547 10.4765 15.6478 10.5373 15.4471 10.5933C15.2464 10.6493 14.9601 10.7574 14.8109 10.8335C14.6617 10.9096 14.4313 11.0454 14.299 11.1353C14.1666 11.2252 13.904 11.4667 13.7153 11.6718C13.4855 11.9216 13.2907 12.2085 13.1257 12.5403C12.9713 12.8507 12.8474 13.1956 12.7937 13.4637C12.7319 13.7728 12.718 14.0182 12.7436 14.3467C12.7631 14.5969 12.784 14.8853 12.7901 14.9876C12.7987 15.1322 12.7788 15.178 12.7008 15.1936C12.6325 15.2073 12.4972 15.1049 12.2755 14.8716C12.0968 14.6836 11.8708 14.379 11.7733 14.1948C11.6758 14.0107 11.5501 13.6987 11.4942 13.5016C11.4319 13.2823 11.3923 12.9764 11.3923 12.7138C11.3923 12.444 11.4332 12.1358 11.5024 11.8846C11.563 11.6646 11.6885 11.3407 11.7815 11.1647C11.8744 10.9887 12.0919 10.6922 12.2648 10.506C12.4376 10.3198 12.7395 10.0731 12.9357 9.95785C13.1318 9.84253 13.4569 9.70099 13.658 9.64325C13.884 9.57845 14.1974 9.53687 14.4778 9.53451C14.7275 9.53243 15.0744 9.56721 15.2487 9.61178ZM17.1604 11.1187C17.3358 11.1648 17.6267 11.2726 17.8069 11.3582C17.9901 11.4453 18.2947 11.6634 18.498 11.8532C18.698 12.0398 18.9519 12.3461 19.0623 12.5339C19.1728 12.7216 19.3123 13.0317 19.3724 13.223C19.4546 13.4846 19.482 13.7169 19.4829 14.1595C19.484 14.6579 19.463 14.8088 19.3462 15.1438C19.2704 15.3614 19.1441 15.6504 19.0657 15.786C18.9873 15.9215 18.7656 16.1916 18.573 16.3861C18.3805 16.5807 18.0916 16.8069 17.9309 16.8888C17.7703 16.9708 17.4714 17.0957 17.2667 17.1664C16.9986 17.2589 16.7758 17.2954 16.4693 17.2967C16.2354 17.2977 15.8765 17.2574 15.6719 17.207C15.4672 17.1567 15.1562 17.048 14.9808 16.9655C14.8053 16.8831 14.5492 16.7273 14.4117 16.6195C14.2742 16.5116 14.0623 16.2908 13.9408 16.1289C13.8193 15.9669 13.6476 15.6743 13.5591 15.4785C13.4626 15.2649 13.3696 14.9305 13.3265 14.6418C13.266 14.2365 13.2662 14.0833 13.3275 13.6684C13.3817 13.3019 13.4563 13.0594 13.6192 12.7207C13.7785 12.3893 13.9301 12.1729 14.1761 11.9252C14.4053 11.6945 14.6405 11.5231 14.9069 11.3927C15.123 11.2868 15.4074 11.1703 15.539 11.1338C15.6705 11.0973 15.9217 11.0516 16.0972 11.0323C16.2726 11.013 16.5118 11.0057 16.6288 11.016C16.7457 11.0264 16.985 11.0727 17.1604 11.1187ZM16.1769 11.6712C16.1054 11.7432 16.0706 11.8496 16.0706 11.9963C16.0706 12.1681 16.0404 12.2391 15.9284 12.3308C15.8502 12.3948 15.6854 12.5436 15.5623 12.6614C15.4263 12.7916 15.3124 12.9629 15.2723 13.0977C15.236 13.2198 15.2216 13.4024 15.2405 13.5035C15.2593 13.6045 15.3607 13.7883 15.4657 13.9119C15.5707 14.0354 15.7438 14.1807 15.8503 14.2349C15.9569 14.289 16.1851 14.3741 16.3576 14.4241C16.5435 14.478 16.7328 14.577 16.8227 14.6676C16.9258 14.7713 16.9743 14.8746 16.9743 14.9901C16.9743 15.1103 16.9272 15.2044 16.8134 15.3114C16.7249 15.3946 16.5839 15.4779 16.5 15.4964C16.4112 15.516 16.2729 15.498 16.1691 15.4532C16.0711 15.4109 15.9084 15.2891 15.8076 15.1826C15.7068 15.0761 15.5741 14.9889 15.5126 14.9889C15.4511 14.9889 15.372 15.0178 15.3369 15.0532C15.3019 15.0885 15.2733 15.1667 15.2734 15.2271C15.2735 15.2874 15.3198 15.4131 15.3763 15.5065C15.4329 15.5998 15.5888 15.7409 15.7229 15.82C15.857 15.8991 15.99 16.0077 16.0186 16.0615C16.0472 16.1152 16.0706 16.245 16.0706 16.35C16.0706 16.4695 16.1103 16.5808 16.1769 16.6478C16.2354 16.7067 16.3174 16.7548 16.3592 16.7548C16.4009 16.7548 16.4727 16.717 16.5187 16.6708C16.5646 16.6245 16.6022 16.5025 16.6022 16.3997C16.6022 16.2968 16.6269 16.1662 16.6571 16.1094C16.6874 16.0525 16.801 15.96 16.9096 15.9037C17.0184 15.8474 17.1715 15.733 17.25 15.6494C17.3286 15.5658 17.4183 15.4295 17.4494 15.3467C17.4805 15.2638 17.506 15.0881 17.506 14.956C17.506 14.8241 17.4722 14.6511 17.431 14.5716C17.3897 14.4921 17.2881 14.3636 17.205 14.286C17.122 14.2084 16.9823 14.1091 16.8946 14.0653C16.8069 14.0214 16.5991 13.9463 16.433 13.8982C16.2668 13.8501 16.0575 13.7486 15.9678 13.6727C15.8394 13.564 15.8048 13.4921 15.8048 13.3346C15.8048 13.1953 15.8418 13.0997 15.9267 13.0194C15.9937 12.956 16.1246 12.8775 16.2175 12.8449C16.3408 12.8016 16.4344 12.8015 16.564 12.8446C16.6618 12.8771 16.8348 12.9996 16.9486 13.1169C17.0644 13.2363 17.2063 13.3301 17.271 13.3301C17.3346 13.3301 17.4156 13.2949 17.451 13.252C17.4888 13.2061 17.5016 13.1107 17.4819 13.0208C17.4636 12.9365 17.3811 12.7933 17.2986 12.7024C17.2162 12.6116 17.0505 12.4868 16.9304 12.4251C16.8103 12.3634 16.6874 12.2665 16.6571 12.2096C16.6269 12.1528 16.6022 12.0222 16.6022 11.9193C16.6022 11.8165 16.5646 11.6945 16.5187 11.6482C16.4727 11.602 16.4009 11.5642 16.3592 11.5642C16.3174 11.5642 16.2354 11.6123 16.1769 11.6712ZM10.2224 18.4271C10.0344 18.5232 9.9574 18.6082 9.84145 18.8476C9.73779 19.0619 9.64991 19.1671 9.53471 19.2151C9.44593 19.2521 9.28931 19.376 9.18665 19.4904C9.02738 19.6678 9 19.7363 9 19.9574C9 20.1701 9.03934 20.278 9.21961 20.5593C9.3404 20.7478 9.69329 21.1554 10.0038 21.4649C10.3143 21.7745 10.8575 22.2802 11.2111 22.5887C11.5646 22.8972 12.3182 23.5494 12.8857 24.0381C13.4532 24.5268 14.085 25.04 14.2896 25.1785C14.4943 25.3169 14.8532 25.525 15.0871 25.6408C15.321 25.7566 15.6651 25.8898 15.8518 25.9368C16.098 25.9988 16.3097 26.0131 16.6226 25.9888C16.8599 25.9703 17.2933 25.9186 17.5857 25.8737C17.8781 25.8288 18.3924 25.7441 18.7287 25.6854C19.0649 25.6268 19.5314 25.5448 19.7654 25.5033C19.9993 25.4618 20.406 25.389 20.6691 25.3413C20.9323 25.2938 21.3748 25.2098 21.6526 25.1546C21.9304 25.0995 22.361 25.0138 22.6095 24.9642C22.8581 24.9145 23.3126 24.8726 23.6196 24.8709C24.0255 24.8687 24.2576 24.8947 24.4702 24.966C24.631 25.0199 24.8755 25.1209 25.0134 25.1904C25.1513 25.2599 25.3199 25.3168 25.3882 25.3168C25.4564 25.3168 25.5409 25.2879 25.576 25.2526C25.6111 25.2172 25.6398 25.1367 25.6398 25.0736C25.6398 25.0104 25.5973 24.92 25.5453 24.8727C25.4933 24.8253 25.2002 24.6851 24.894 24.561C24.3452 24.3387 24.328 24.3354 23.6728 24.3332C23.1804 24.3316 22.8567 24.3626 22.4235 24.453C22.1018 24.5201 21.6593 24.6085 21.44 24.6496C21.2207 24.6906 20.8259 24.7628 20.5628 24.8099C20.2996 24.8571 19.8451 24.9402 19.5527 24.9946C19.2603 25.049 18.7938 25.1303 18.516 25.1753C18.2383 25.2205 17.7106 25.3068 17.3433 25.3673C16.9761 25.4278 16.5388 25.4773 16.3714 25.4773C16.1596 25.4773 15.9395 25.4278 15.647 25.3142C15.416 25.2245 15.0161 25.0089 14.7583 24.835C14.5005 24.661 13.9402 24.2227 13.5131 23.8609C13.0859 23.4991 12.4471 22.9559 12.0935 22.6539C11.7399 22.3519 11.1767 21.8462 10.8421 21.5302C10.5074 21.2141 10.1279 20.8351 9.99887 20.688C9.86973 20.5408 9.72375 20.3609 9.67447 20.2881C9.62514 20.2154 9.58478 20.0775 9.58478 19.9818C9.58478 19.8432 9.61674 19.7912 9.74161 19.7262C9.8279 19.6813 9.96707 19.6445 10.051 19.6445C10.1348 19.6445 10.3334 19.6831 10.4922 19.7303C10.651 19.7775 10.9364 19.9025 11.1265 20.0081C11.3165 20.1137 11.6754 20.331 11.9239 20.491C12.1725 20.6509 12.5672 20.9315 12.8011 21.1146C13.035 21.2976 13.5733 21.6789 13.9973 21.9618C14.4212 22.2447 14.9106 22.5976 15.0848 22.746C15.2945 22.9246 15.4499 23.0158 15.5449 23.0158C15.6332 23.0158 15.9043 22.8725 16.2503 22.6429C16.5594 22.4378 16.9134 22.2182 17.037 22.1547C17.1605 22.0912 17.3921 21.9942 17.5516 21.9389C17.778 21.8605 17.9954 21.8385 18.5438 21.8385C19.1737 21.8385 19.2604 21.8271 19.386 21.7276C19.4631 21.6666 19.5261 21.5716 19.5261 21.5166C19.5261 21.4615 19.4742 21.3798 19.4107 21.3351C19.3098 21.2639 18.9991 21.2579 16.9464 21.2871L14.5976 21.3205L14.3538 21.2017C14.168 21.1112 14.0826 21.0261 13.995 20.8439C13.9193 20.6864 13.8918 20.5579 13.9145 20.467C13.9334 20.3911 13.9857 20.2725 14.0306 20.2034C14.0756 20.1343 14.2121 20.0299 14.3339 19.9712C14.4558 19.9126 14.711 19.8496 14.901 19.8312C15.0911 19.8128 15.4858 19.7649 15.7782 19.7248C16.0706 19.6846 16.6089 19.6147 16.9743 19.5695C17.3398 19.5242 17.9499 19.4497 18.33 19.4039C18.7101 19.358 19.1194 19.3082 19.2396 19.2931C19.3597 19.278 20.0415 19.2641 20.7547 19.2624L22.0513 19.2591L22.6361 19.4803C22.9578 19.602 23.4601 19.8242 23.7525 19.9742C24.0449 20.1243 24.5773 20.4121 24.9358 20.6138C25.2941 20.8154 25.642 20.9943 25.7089 21.0111C25.792 21.0322 25.8619 21.007 25.9296 20.9316C26.0109 20.8413 26.0181 20.7978 25.97 20.6915C25.9359 20.616 25.7157 20.4449 25.4433 20.2822C25.1859 20.1285 24.615 19.8165 24.1747 19.5889C23.7345 19.3613 23.1483 19.09 22.8723 18.9861C22.5261 18.8557 22.1971 18.7769 21.8121 18.7318C21.3761 18.6809 21.0096 18.6806 20.1375 18.7302C19.5235 18.7652 18.6862 18.8291 18.2768 18.8722C17.8675 18.9154 17.2215 18.9889 16.8414 19.0355C16.4613 19.0822 15.8605 19.166 15.5064 19.2219C15.1522 19.2777 14.7813 19.3233 14.6824 19.3232C14.5833 19.323 14.3847 19.3652 14.241 19.4168C14.0973 19.4684 13.8656 19.6139 13.7261 19.74C13.5105 19.935 13.4627 20.0152 13.4077 20.2751C13.3721 20.4433 13.3111 20.6158 13.2722 20.6585C13.2109 20.7257 13.1783 20.7188 13.0278 20.6062C12.9324 20.5347 12.639 20.3286 12.3758 20.1482C12.1127 19.9677 11.7179 19.7219 11.4986 19.6019C11.2793 19.4819 10.9607 19.3318 10.7906 19.2681C10.6204 19.2045 10.4682 19.1184 10.4523 19.0767C10.4365 19.035 10.453 18.9652 10.4891 18.9214C10.5252 18.8776 10.6312 18.8418 10.7246 18.8418C10.8181 18.8418 11.0245 18.8803 11.1833 18.9273C11.3421 18.9743 11.6553 19.1084 11.8794 19.2251C12.1034 19.3419 12.4605 19.5683 12.6729 19.7283C12.8853 19.8882 13.0923 20.0191 13.1329 20.0191C13.1736 20.0191 13.2531 19.9941 13.3097 19.9637C13.3662 19.9332 13.4125 19.8642 13.4125 19.8104C13.4125 19.7565 13.3621 19.648 13.3006 19.5693C13.2391 19.4907 13.0176 19.31 12.8084 19.1679C12.5993 19.0258 12.2369 18.8132 12.0032 18.6954C11.7695 18.5775 11.4431 18.4419 11.2778 18.3939C11.1125 18.346 10.8604 18.3067 10.7176 18.3067C10.5535 18.3067 10.3712 18.3511 10.2224 18.4271ZM16.1496 21.8909C16.1673 21.9197 16.1588 21.9859 16.1307 22.038C16.1026 22.0902 15.9699 22.1925 15.8359 22.2654L15.5923 22.3981L15.3996 22.2936C15.2936 22.2361 15.1718 22.1353 15.1291 22.0697C15.0863 22.004 15.0668 21.9251 15.0856 21.8944C15.1055 21.862 15.3296 21.8385 15.6187 21.8385C15.893 21.8385 16.1319 21.8621 16.1496 21.8909Z" fill="black"/>
<path fill-rule="evenodd" clip-rule="evenodd" d="M13.5985 9.12648C13.3646 9.19337 12.9938 9.33887 12.7745 9.4498C12.4786 9.59958 12.2576 9.77056 11.9175 10.1129C11.5884 10.4442 11.4066 10.6798 11.2726 10.9488C11.1699 11.1548 11.0352 11.5055 10.9733 11.7281C10.8915 12.0222 10.8607 12.2856 10.8607 12.6915C10.8607 13.0804 10.8915 13.3584 10.962 13.6066C11.0177 13.8027 11.1665 14.1638 11.2927 14.4091C11.419 14.6544 11.6306 14.9726 11.7629 15.1162C11.8953 15.2598 12.1416 15.4842 12.3101 15.6149C12.4786 15.7456 12.7709 15.9229 12.9595 16.0091C13.2332 16.1339 13.3565 16.2334 13.5691 16.5004C13.7158 16.6845 13.9696 16.9403 14.1331 17.0688C14.2967 17.1973 14.5663 17.3698 14.7322 17.4521C14.8981 17.5344 15.2149 17.652 15.436 17.7134C15.71 17.7895 15.9951 17.8251 16.3309 17.8251C16.6558 17.8251 16.9716 17.7871 17.2579 17.7136C17.4967 17.6524 17.8834 17.5035 18.1173 17.3828C18.4386 17.2171 18.6533 17.0513 18.9949 16.705C19.2733 16.4228 19.511 16.123 19.613 15.9254C19.7043 15.7488 19.8334 15.4365 19.9 15.2314C19.9994 14.925 20.0213 14.7385 20.0223 14.1879C20.0233 13.63 20.0029 13.4544 19.9011 13.1428C19.8338 12.9368 19.696 12.6076 19.5949 12.4113C19.4938 12.2149 19.2775 11.9057 19.1142 11.7241C18.9509 11.5424 18.6924 11.3009 18.5398 11.1875C18.3872 11.074 18.1053 10.9065 17.9133 10.8152C17.6462 10.6881 17.5182 10.586 17.3677 10.3795C17.2595 10.2312 17.0288 9.99076 16.8551 9.8452C16.6813 9.69965 16.3799 9.49994 16.1853 9.40143C15.9906 9.30291 15.6504 9.17127 15.4292 9.10893C15.1402 9.02749 14.8861 8.99688 14.5255 9.00025C14.1758 9.00351 13.895 9.04172 13.5985 9.12648ZM15.2487 9.61178C15.423 9.65636 15.7394 9.77831 15.952 9.88277C16.1645 9.98723 16.3759 10.1303 16.4217 10.2007C16.4675 10.2711 16.4918 10.3503 16.4755 10.3767C16.4593 10.4032 16.3034 10.4398 16.1291 10.4582C15.9547 10.4765 15.6478 10.5373 15.4471 10.5933C15.2464 10.6493 14.9601 10.7574 14.8109 10.8335C14.6617 10.9096 14.4313 11.0454 14.299 11.1353C14.1666 11.2252 13.904 11.4667 13.7153 11.6718C13.4855 11.9216 13.2907 12.2085 13.1257 12.5403C12.9713 12.8507 12.8474 13.1956 12.7937 13.4637C12.7319 13.7728 12.718 14.0182 12.7436 14.3467C12.7631 14.5969 12.784 14.8853 12.7901 14.9876C12.7987 15.1322 12.7788 15.178 12.7008 15.1936C12.6325 15.2073 12.4972 15.1049 12.2755 14.8716C12.0968 14.6836 11.8708 14.379 11.7733 14.1948C11.6758 14.0107 11.5501 13.6987 11.4942 13.5016C11.4319 13.2823 11.3923 12.9764 11.3923 12.7138C11.3923 12.444 11.4332 12.1358 11.5024 11.8846C11.563 11.6646 11.6885 11.3407 11.7815 11.1647C11.8744 10.9887 12.0919 10.6922 12.2648 10.506C12.4376 10.3198 12.7395 10.0731 12.9357 9.95785C13.1318 9.84253 13.4569 9.70099 13.658 9.64325C13.884 9.57845 14.1974 9.53687 14.4778 9.53451C14.7275 9.53243 15.0744 9.56721 15.2487 9.61178ZM17.1604 11.1187C17.3358 11.1648 17.6267 11.2726 17.8069 11.3582C17.9901 11.4453 18.2947 11.6634 18.498 11.8532C18.698 12.0398 18.9519 12.3461 19.0623 12.5339C19.1728 12.7216 19.3123 13.0317 19.3724 13.223C19.4546 13.4846 19.482 13.7169 19.4829 14.1595C19.484 14.6579 19.463 14.8088 19.3462 15.1438C19.2704 15.3614 19.1441 15.6504 19.0657 15.786C18.9873 15.9215 18.7656 16.1916 18.573 16.3861C18.3805 16.5807 18.0916 16.8069 17.9309 16.8888C17.7703 16.9708 17.4714 17.0957 17.2667 17.1664C16.9986 17.2589 16.7758 17.2954 16.4693 17.2967C16.2354 17.2977 15.8765 17.2574 15.6719 17.207C15.4672 17.1567 15.1562 17.048 14.9808 16.9655C14.8053 16.8831 14.5492 16.7273 14.4117 16.6195C14.2742 16.5116 14.0623 16.2908 13.9408 16.1289C13.8193 15.9669 13.6476 15.6743 13.5591 15.4785C13.4626 15.2649 13.3696 14.9305 13.3265 14.6418C13.266 14.2365 13.2662 14.0833 13.3275 13.6684C13.3817 13.3019 13.4563 13.0594 13.6192 12.7207C13.7785 12.3893 13.9301 12.1729 14.1761 11.9252C14.4053 11.6945 14.6405 11.5231 14.9069 11.3927C15.123 11.2868 15.4074 11.1703 15.539 11.1338C15.6705 11.0973 15.9217 11.0516 16.0972 11.0323C16.2726 11.013 16.5118 11.0057 16.6288 11.016C16.7457 11.0264 16.985 11.0727 17.1604 11.1187ZM16.1769 11.6712C16.1054 11.7432 16.0706 11.8496 16.0706 11.9963C16.0706 12.1681 16.0404 12.2391 15.9284 12.3308C15.8502 12.3948 15.6854 12.5436 15.5623 12.6614C15.4263 12.7916 15.3124 12.9629 15.2723 13.0977C15.236 13.2198 15.2216 13.4024 15.2405 13.5035C15.2593 13.6045 15.3607 13.7883 15.4657 13.9119C15.5707 14.0354 15.7438 14.1807 15.8503 14.2349C15.9569 14.289 16.1851 14.3741 16.3576 14.4241C16.5435 14.478 16.7328 14.577 16.8227 14.6676C16.9258 14.7713 16.9743 14.8746 16.9743 14.9901C16.9743 15.1103 16.9272 15.2044 16.8134 15.3114C16.7249 15.3946 16.5839 15.4779 16.5 15.4964C16.4112 15.516 16.2729 15.498 16.1691 15.4532C16.0711 15.4109 15.9084 15.2891 15.8076 15.1826C15.7068 15.0761 15.5741 14.9889 15.5126 14.9889C15.4511 14.9889 15.372 15.0178 15.3369 15.0532C15.3019 15.0885 15.2733 15.1667 15.2734 15.2271C15.2735 15.2874 15.3198 15.4131 15.3763 15.5065C15.4329 15.5998 15.5888 15.7409 15.7229 15.82C15.857 15.8991 15.99 16.0077 16.0186 16.0615C16.0472 16.1152 16.0706 16.245 16.0706 16.35C16.0706 16.4695 16.1103 16.5808 16.1769 16.6478C16.2354 16.7067 16.3174 16.7548 16.3592 16.7548C16.4009 16.7548 16.4727 16.717 16.5187 16.6708C16.5646 16.6245 16.6022 16.5025 16.6022 16.3997C16.6022 16.2968 16.6269 16.1662 16.6571 16.1094C16.6874 16.0525 16.801 15.96 16.9096 15.9037C17.0184 15.8474 17.1715 15.733 17.25 15.6494C17.3286 15.5658 17.4183 15.4295 17.4494 15.3467C17.4805 15.2638 17.506 15.0881 17.506 14.956C17.506 14.8241 17.4722 14.6511 17.431 14.5716C17.3897 14.4921 17.2881 14.3636 17.205 14.286C17.122 14.2084 16.9823 14.1091 16.8946 14.0653C16.8069 14.0214 16.5991 13.9463 16.433 13.8982C16.2668 13.8501 16.0575 13.7486 15.9678 13.6727C15.8394 13.564 15.8048 13.4921 15.8048 13.3346C15.8048 13.1953 15.8418 13.0997 15.9267 13.0194C15.9937 12.956 16.1246 12.8775 16.2175 12.8449C16.3408 12.8016 16.4344 12.8015 16.564 12.8446C16.6618 12.8771 16.8348 12.9996 16.9486 13.1169C17.0644 13.2363 17.2063 13.3301 17.271 13.3301C17.3346 13.3301 17.4156 13.2949 17.451 13.252C17.4888 13.2061 17.5016 13.1107 17.4819 13.0208C17.4636 12.9365 17.3811 12.7933 17.2986 12.7024C17.2162 12.6116 17.0505 12.4868 16.9304 12.4251C16.8103 12.3634 16.6874 12.2665 16.6571 12.2096C16.6269 12.1528 16.6022 12.0222 16.6022 11.9193C16.6022 11.8165 16.5646 11.6945 16.5187 11.6482C16.4727 11.602 16.4009 11.5642 16.3592 11.5642C16.3174 11.5642 16.2354 11.6123 16.1769 11.6712ZM10.2224 18.4271C10.0344 18.5232 9.9574 18.6082 9.84145 18.8476C9.73779 19.0619 9.64991 19.1671 9.53471 19.2151C9.44593 19.2521 9.28931 19.376 9.18665 19.4904C9.02738 19.6678 9 19.7363 9 19.9574C9 20.1701 9.03934 20.278 9.21961 20.5593C9.3404 20.7478 9.69329 21.1554 10.0038 21.4649C10.3143 21.7745 10.8575 22.2802 11.2111 22.5887C11.5646 22.8972 12.3182 23.5494 12.8857 24.0381C13.4532 24.5268 14.085 25.04 14.2896 25.1785C14.4943 25.3169 14.8532 25.525 15.0871 25.6408C15.321 25.7566 15.6651 25.8898 15.8518 25.9368C16.098 25.9988 16.3097 26.0131 16.6226 25.9888C16.8599 25.9703 17.2933 25.9186 17.5857 25.8737C17.8781 25.8288 18.3924 25.7441 18.7287 25.6854C19.0649 25.6268 19.5314 25.5448 19.7654 25.5033C19.9993 25.4618 20.406 25.389 20.6691 25.3413C20.9323 25.2938 21.3748 25.2098 21.6526 25.1546C21.9304 25.0995 22.361 25.0138 22.6095 24.9642C22.8581 24.9145 23.3126 24.8726 23.6196 24.8709C24.0255 24.8687 24.2576 24.8947 24.4702 24.966C24.631 25.0199 24.8755 25.1209 25.0134 25.1904C25.1513 25.2599 25.3199 25.3168 25.3882 25.3168C25.4564 25.3168 25.5409 25.2879 25.576 25.2526C25.6111 25.2172 25.6398 25.1367 25.6398 25.0736C25.6398 25.0104 25.5973 24.92 25.5453 24.8727C25.4933 24.8253 25.2002 24.6851 24.894 24.561C24.3452 24.3387 24.328 24.3354 23.6728 24.3332C23.1804 24.3316 22.8567 24.3626 22.4235 24.453C22.1018 24.5201 21.6593 24.6085 21.44 24.6496C21.2207 24.6906 20.8259 24.7628 20.5628 24.8099C20.2996 24.8571 19.8451 24.9402 19.5527 24.9946C19.2603 25.049 18.7938 25.1303 18.516 25.1753C18.2383 25.2205 17.7106 25.3068 17.3433 25.3673C16.9761 25.4278 16.5388 25.4773 16.3714 25.4773C16.1596 25.4773 15.9395 25.4278 15.647 25.3142C15.416 25.2245 15.0161 25.0089 14.7583 24.835C14.5005 24.661 13.9402 24.2227 13.5131 23.8609C13.0859 23.4991 12.4471 22.9559 12.0935 22.6539C11.7399 22.3519 11.1767 21.8462 10.8421 21.5302C10.5074 21.2141 10.1279 20.8351 9.99887 20.688C9.86973 20.5408 9.72375 20.3609 9.67447 20.2881C9.62514 20.2154 9.58478 20.0775 9.58478 19.9818C9.58478 19.8432 9.61674 19.7912 9.74161 19.7262C9.8279 19.6813 9.96707 19.6445 10.051 19.6445C10.1348 19.6445 10.3334 19.6831 10.4922 19.7303C10.651 19.7775 10.9364 19.9025 11.1265 20.0081C11.3165 20.1137 11.6754 20.331 11.9239 20.491C12.1725 20.6509 12.5672 20.9315 12.8011 21.1146C13.035 21.2976 13.5733 21.6789 13.9973 21.9618C14.4212 22.2447 14.9106 22.5976 15.0848 22.746C15.2945 22.9246 15.4499 23.0158 15.5449 23.0158C15.6332 23.0158 15.9043 22.8725 16.2503 22.6429C16.5594 22.4378 16.9134 22.2182 17.037 22.1547C17.1605 22.0912 17.3921 21.9942 17.5516 21.9389C17.778 21.8605 17.9954 21.8385 18.5438 21.8385C19.1737 21.8385 19.2604 21.8271 19.386 21.7276C19.4631 21.6666 19.5261 21.5716 19.5261 21.5166C19.5261 21.4615 19.4742 21.3798 19.4107 21.3351C19.3098 21.2639 18.9991 21.2579 16.9464 21.2871L14.5976 21.3205L14.3538 21.2017C14.168 21.1112 14.0826 21.0261 13.995 20.8439C13.9193 20.6864 13.8918 20.5579 13.9145 20.467C13.9334 20.3911 13.9857 20.2725 14.0306 20.2034C14.0756 20.1343 14.2121 20.0299 14.3339 19.9712C14.4558 19.9126 14.711 19.8496 14.901 19.8312C15.0911 19.8128 15.4858 19.7649 15.7782 19.7248C16.0706 19.6846 16.6089 19.6147 16.9743 19.5695C17.3398 19.5242 17.9499 19.4497 18.33 19.4039C18.7101 19.358 19.1194 19.3082 19.2396 19.2931C19.3597 19.278 20.0415 19.2641 20.7547 19.2624L22.0513 19.2591L22.6361 19.4803C22.9578 19.602 23.4601 19.8242 23.7525 19.9742C24.0449 20.1243 24.5773 20.4121 24.9358 20.6138C25.2941 20.8154 25.642 20.9943 25.7089 21.0111C25.792 21.0322 25.8619 21.007 25.9296 20.9316C26.0109 20.8413 26.0181 20.7978 25.97 20.6915C25.9359 20.616 25.7157 20.4449 25.4433 20.2822C25.1859 20.1285 24.615 19.8165 24.1747 19.5889C23.7345 19.3613 23.1483 19.09 22.8723 18.9861C22.5261 18.8557 22.1971 18.7769 21.8121 18.7318C21.3761 18.6809 21.0096 18.6806 20.1375 18.7302C19.5235 18.7652 18.6862 18.8291 18.2768 18.8722C17.8675 18.9154 17.2215 18.9889 16.8414 19.0355C16.4613 19.0822 15.8605 19.166 15.5064 19.2219C15.1522 19.2777 14.7813 19.3233 14.6824 19.3232C14.5833 19.323 14.3847 19.3652 14.241 19.4168C14.0973 19.4684 13.8656 19.6139 13.7261 19.74C13.5105 19.935 13.4627 20.0152 13.4077 20.2751C13.3721 20.4433 13.3111 20.6158 13.2722 20.6585C13.2109 20.7257 13.1783 20.7188 13.0278 20.6062C12.9324 20.5347 12.639 20.3286 12.3758 20.1482C12.1127 19.9677 11.7179 19.7219 11.4986 19.6019C11.2793 19.4819 10.9607 19.3318 10.7906 19.2681C10.6204 19.2045 10.4682 19.1184 10.4523 19.0767C10.4365 19.035 10.453 18.9652 10.4891 18.9214C10.5252 18.8776 10.6312 18.8418 10.7246 18.8418C10.8181 18.8418 11.0245 18.8803 11.1833 18.9273C11.3421 18.9743 11.6553 19.1084 11.8794 19.2251C12.1034 19.3419 12.4605 19.5683 12.6729 19.7283C12.8853 19.8882 13.0923 20.0191 13.1329 20.0191C13.1736 20.0191 13.2531 19.9941 13.3097 19.9637C13.3662 19.9332 13.4125 19.8642 13.4125 19.8104C13.4125 19.7565 13.3621 19.648 13.3006 19.5693C13.2391 19.4907 13.0176 19.31 12.8084 19.1679C12.5993 19.0258 12.2369 18.8132 12.0032 18.6954C11.7695 18.5775 11.4431 18.4419 11.2778 18.3939C11.1125 18.346 10.8604 18.3067 10.7176 18.3067C10.5535 18.3067 10.3712 18.3511 10.2224 18.4271ZM16.1496 21.8909C16.1673 21.9197 16.1588 21.9859 16.1307 22.038C16.1026 22.0902 15.9699 22.1925 15.8359 22.2654L15.5923 22.3981L15.3996 22.2936C15.2936 22.2361 15.1718 22.1353 15.1291 22.0697C15.0863 22.004 15.0668 21.9251 15.0856 21.8944C15.1055 21.862 15.3296 21.8385 15.6187 21.8385C15.893 21.8385 16.1319 21.8621 16.1496 21.8909Z" stroke="black" stroke-width="0.2" mask="url(#path-2-outside-1_12_271)"/>
</svg>
