<svg width="36" height="36" viewBox="0 0 36 36" fill="none" xmlns="http://www.w3.org/2000/svg">
<circle cx="18" cy="18" r="18" fill="#FFC680"/>
<path d="M24.5391 18.3359L25.4922 13.1094C25.5088 13.0196 25.5048 12.9272 25.4804 12.8393C25.4561 12.7513 25.412 12.67 25.3516 12.6016C25.2938 12.5309 25.2211 12.474 25.1387 12.4348C25.0563 12.3956 24.9662 12.3752 24.875 12.375H12.2734L11.8906 10.2734C11.8377 9.98652 11.6862 9.72714 11.4622 9.54022C11.2381 9.35331 10.9558 9.25064 10.6641 9.25H9.25C9.08424 9.25 8.92527 9.31585 8.80806 9.43306C8.69085 9.55027 8.625 9.70924 8.625 9.875C8.625 10.0408 8.69085 10.1997 8.80806 10.3169C8.92527 10.4342 9.08424 10.5 9.25 10.5H10.6641L12.8047 22.2969C12.4995 22.5657 12.2753 22.9143 12.1572 23.3035C12.0392 23.6927 12.032 24.1071 12.1364 24.5002C12.2409 24.8933 12.4529 25.2494 12.7485 25.5287C13.0442 25.808 13.4119 25.9993 13.8103 26.0811C14.2087 26.163 14.622 26.1322 15.0038 25.9921C15.3857 25.8521 15.7209 25.6083 15.9719 25.2883C16.2229 24.9683 16.3797 24.5846 16.4246 24.1804C16.4696 23.7761 16.401 23.3674 16.2266 23H20.3984C20.1953 23.4283 20.1368 23.9109 20.2316 24.3753C20.3265 24.8397 20.5696 25.2607 20.9244 25.575C21.2792 25.8893 21.7265 26.0798 22.199 26.1179C22.6714 26.156 23.1435 26.0397 23.5441 25.7863C23.9447 25.533 24.2521 25.1564 24.4202 24.7132C24.5883 24.27 24.6079 23.7842 24.476 23.3289C24.3441 22.8737 24.068 22.4735 23.6891 22.1888C23.3101 21.904 22.849 21.75 22.375 21.75H13.9766L13.6328 19.875H22.6953C23.1342 19.8748 23.559 19.7206 23.8959 19.4394C24.2329 19.1582 24.4604 18.7677 24.5391 18.3359ZM15.1875 23.9375C15.1875 24.1229 15.1325 24.3042 15.0295 24.4583C14.9265 24.6125 14.7801 24.7327 14.6088 24.8036C14.4375 24.8746 14.249 24.8932 14.0671 24.857C13.8852 24.8208 13.7182 24.7315 13.5871 24.6004C13.456 24.4693 13.3667 24.3023 13.3305 24.1204C13.2943 23.9385 13.3129 23.75 13.3839 23.5787C13.4548 23.4074 13.575 23.261 13.7292 23.158C13.8833 23.055 14.0646 23 14.25 23C14.4986 23 14.7371 23.0988 14.9129 23.2746C15.0887 23.4504 15.1875 23.6889 15.1875 23.9375ZM23.3125 23.9375C23.3125 24.1229 23.2575 24.3042 23.1545 24.4583C23.0515 24.6125 22.9051 24.7327 22.7338 24.8036C22.5625 24.8746 22.374 24.8932 22.1921 24.857C22.0102 24.8208 21.8432 24.7315 21.7121 24.6004C21.581 24.4693 21.4917 24.3023 21.4555 24.1204C21.4193 23.9385 21.4379 23.75 21.5089 23.5787C21.5798 23.4074 21.7 23.261 21.8542 23.158C22.0083 23.055 22.1896 23 22.375 23C22.6236 23 22.8621 23.0988 23.0379 23.2746C23.2137 23.4504 23.3125 23.6889 23.3125 23.9375ZM12.5 13.625H24.125L23.3125 18.1094C23.2868 18.2542 23.2107 18.3853 23.0979 18.4796C22.985 18.574 22.8424 18.6254 22.6953 18.625H13.4062L12.5 13.625Z" fill="#111111"/>
</svg>
