<svg width="36" height="36" viewBox="0 0 36 36" fill="none" xmlns="http://www.w3.org/2000/svg">
<circle cx="18" cy="18" r="18" fill="#B2B3B7"/>
<path d="M23 18.8317H18.8333V22.9983C18.8333 23.2194 18.7455 23.4313 18.5892 23.5876C18.4329 23.7439 18.221 23.8317 18 23.8317C17.7789 23.8317 17.567 23.7439 17.4107 23.5876C17.2544 23.4313 17.1666 23.2194 17.1666 22.9983V18.8317H13C12.7789 18.8317 12.567 18.7439 12.4107 18.5876C12.2544 18.4313 12.1666 18.2194 12.1666 17.9983C12.1666 17.7773 12.2544 17.5654 12.4107 17.4091C12.567 17.2528 12.7789 17.165 13 17.165H17.1666V12.9983C17.1666 12.7773 17.2544 12.5654 17.4107 12.4091C17.567 12.2528 17.7789 12.165 18 12.165C18.221 12.165 18.4329 12.2528 18.5892 12.4091C18.7455 12.5654 18.8333 12.7773 18.8333 12.9983V17.165H23C23.221 17.165 23.4329 17.2528 23.5892 17.4091C23.7455 17.5654 23.8333 17.7773 23.8333 17.9983C23.8333 18.2194 23.7455 18.4313 23.5892 18.5876C23.4329 18.7439 23.221 18.8317 23 18.8317Z" fill="#111111"/>
</svg>
