<svg width="22" height="26" viewBox="0 0 22 26" fill="none" xmlns="http://www.w3.org/2000/svg">
<path d="M6.5584 10.3472C6.62529 10.5483 6.60961 10.7678 6.51481 10.9574C6.42002 11.147 6.25385 11.2912 6.0528 11.3584C5.80716 11.4361 5.57933 11.5616 5.38244 11.7277C5.18554 11.8939 5.02348 12.0973 4.9056 12.3264C4.6096 12.8848 4.4064 13.8032 4.5936 15.3024C4.61334 15.5097 4.55148 15.7165 4.42115 15.8789C4.29082 16.0414 4.1023 16.1465 3.89564 16.1722C3.68899 16.1978 3.48049 16.1418 3.31444 16.0162C3.14839 15.8905 3.03788 15.705 3.0064 15.4992C2.7936 13.7984 2.9904 12.5168 3.4944 11.5744C4.0064 10.6144 4.7856 10.0944 5.5472 9.8416C5.74834 9.77472 5.96781 9.79039 6.15741 9.88519C6.347 9.97999 6.49122 10.1462 6.5584 10.3472ZM14.4528 1.7584C14.6465 1.68557 14.8044 1.54053 14.8934 1.35373C14.9824 1.16694 14.9956 0.95292 14.9301 0.756621C14.8647 0.560323 14.7258 0.397012 14.5425 0.30098C14.3592 0.204948 14.1458 0.183667 13.9472 0.241604C12.4464 0.740804 11.5104 1.9728 10.9616 3.2928C10.8872 3.47121 10.8188 3.65212 10.7568 3.8352C10.4576 3.26753 10.0746 2.74812 9.6208 2.2944C9.00581 1.67809 8.27126 1.19409 7.4623 0.872163C6.65335 0.550232 5.78709 0.397175 4.9168 0.422403C4.47109 0.4345 4.04693 0.616851 3.7315 0.931986C3.41607 1.24712 3.23332 1.6711 3.2208 2.1168C3.19557 2.99879 3.35345 3.87643 3.68446 4.69433C4.01548 5.51223 4.51245 6.25263 5.144 6.8688C3.79999 7.15994 2.58542 7.87602 1.68002 8.91109C0.774627 9.94616 0.226514 11.2452 0.116799 12.616L0.107199 12.7344C-0.10403 15.3699 0.457541 18.0099 1.7232 20.3312L2.2976 21.384C2.3136 21.4112 2.3296 21.4384 2.3488 21.464L3.9488 23.7072C4.31143 24.2151 4.78035 24.6378 5.32294 24.9461C5.86552 25.2543 6.46875 25.4406 7.09066 25.4921C7.71256 25.5436 8.33822 25.4589 8.92409 25.2441C9.50997 25.0292 10.042 24.6893 10.4832 24.248C10.551 24.1802 10.6314 24.1265 10.7199 24.0898C10.8085 24.0531 10.9034 24.0342 10.9992 24.0342C11.095 24.0342 11.1899 24.0531 11.2785 24.0898C11.367 24.1265 11.4474 24.1802 11.5152 24.248C11.9564 24.6893 12.4884 25.0292 13.0743 25.2441C13.6602 25.4589 14.2858 25.5436 14.9077 25.4921C15.5297 25.4406 16.1329 25.2543 16.6755 24.9461C17.2181 24.6378 17.687 24.2151 18.0496 23.7072L19.6496 21.4656C19.6688 21.4395 19.6864 21.4122 19.7024 21.384L20.2752 20.3312C21.5414 18.01 22.1035 15.3701 21.8928 12.7344L21.8832 12.616C21.8124 11.7326 21.5588 10.8736 21.1387 10.0933C20.7185 9.31299 20.1409 8.62846 19.4424 8.08306C18.7438 7.53766 17.9397 7.14328 17.0808 6.9249C16.2219 6.70651 15.327 6.66889 14.4528 6.8144L11.8 7.256C11.816 6.1664 12.008 4.9408 12.4368 3.9072C12.8864 2.8272 13.552 2.0592 14.4528 1.7584ZM8.9488 7.048L8.7024 7.0064C7.76342 6.82483 6.90058 6.36554 6.2256 5.688C5.76303 5.22697 5.39976 4.67611 5.15816 4.06936C4.91655 3.46261 4.80175 2.81281 4.8208 2.16C4.82122 2.12294 4.83624 2.08754 4.8626 2.06148C4.88896 2.03542 4.92453 2.0208 4.9616 2.0208C5.61414 2.00197 6.26363 2.11689 6.87009 2.35848C7.47656 2.60008 8.02715 2.96323 8.488 3.4256C9.4592 4.3968 9.928 5.6784 9.8928 6.9536C9.89238 6.99039 9.87759 7.02556 9.85157 7.05157C9.82555 7.07759 9.79039 7.09239 9.7536 7.0928C9.48455 7.10031 9.21535 7.08533 8.9488 7.048ZM8.424 8.5824L8.7024 8.6288L9.9472 8.8368C10.6443 8.95305 11.3557 8.95305 12.0528 8.8368L14.7152 8.392C15.371 8.28262 16.0424 8.31068 16.6868 8.4744C17.3312 8.63812 17.9346 8.93394 18.4587 9.3431C18.9828 9.75225 19.4161 10.2658 19.7313 10.8513C20.0465 11.4367 20.2366 12.0812 20.2896 12.744L20.2976 12.8624C20.4838 15.1883 19.9878 17.518 18.8704 19.5664L18.32 20.5744L16.7472 22.776C16.5197 23.0948 16.2255 23.3603 15.8851 23.5538C15.5446 23.7474 15.1661 23.8645 14.7758 23.8969C14.3855 23.9294 13.9928 23.8764 13.6251 23.7417C13.2573 23.6069 12.9234 23.3937 12.6464 23.1168C12.2095 22.68 11.617 22.4346 10.9992 22.4346C10.3814 22.4346 9.78888 22.68 9.352 23.1168C9.07503 23.3937 8.74106 23.6069 8.37332 23.7417C8.00558 23.8764 7.6129 23.9294 7.22261 23.8969C6.83231 23.8645 6.45376 23.7474 6.11331 23.5538C5.77285 23.3603 5.47866 23.0948 5.2512 22.776L3.6784 20.5744L3.128 19.5664C2.01061 17.518 1.51464 15.1883 1.7008 12.8624L1.7104 12.744C1.7634 12.0812 1.95351 11.4367 2.26868 10.8513C2.58385 10.2658 3.01722 9.75225 3.5413 9.3431C4.06538 8.93394 4.66875 8.63812 5.31316 8.4744C5.95758 8.31068 6.62897 8.28262 7.2848 8.392L8.424 8.5824Z" fill="white"/>
</svg>
