<svg width="26" height="26" viewBox="0 0 26 26" fill="none" xmlns="http://www.w3.org/2000/svg">
<path d="M16.7579 1.91667C17.9036 1.91667 18.988 2.178 19.954 2.6435L18.085 4.4985C17.829 4.75188 17.6258 5.0535 17.4871 5.38592C17.3483 5.71834 17.2769 6.07497 17.2769 6.43517C17.2769 6.79537 17.3483 7.15199 17.4871 7.48442C17.6258 7.81684 17.829 8.11846 18.085 8.37183C18.6041 8.88562 19.305 9.17382 20.0354 9.17382C20.7658 9.17382 21.4667 8.88562 21.9858 8.37183L23.65 6.71983C23.93 7.491 24.0834 8.32283 24.0834 9.18967C24.0834 13.2071 20.8034 16.4633 16.7579 16.4633C15.7896 16.4633 14.8656 16.2766 14.0204 15.9383L6.62427 23.2813C6.10536 23.795 5.40467 24.0831 4.67448 24.0831C3.94429 24.0831 3.2436 23.795 2.72469 23.2813C2.46886 23.0279 2.26578 22.7264 2.12719 22.3942C1.9886 22.0619 1.91724 21.7055 1.91724 21.3455C1.91724 20.9854 1.9886 20.629 2.12719 20.2967C2.26578 19.9645 2.46886 19.663 2.72469 19.4097L10.0554 12.1308C9.64304 11.2052 9.43055 10.203 9.43185 9.18967C9.43185 5.17283 12.7119 1.91667 16.7579 1.91667Z" stroke="white" stroke-width="2.33333" stroke-linejoin="round"/>
</svg>
