<svg width="26" height="20" viewBox="0 0 26 20" fill="none" xmlns="http://www.w3.org/2000/svg">
<path d="M17.7469 13.2156C17.8714 13.3354 17.9711 13.4786 18.0402 13.6369C18.1092 13.7953 18.1464 13.9657 18.1494 14.1385C18.1525 14.3112 18.1214 14.4829 18.0579 14.6436C17.9945 14.8043 17.8999 14.9509 17.7797 15.075C17.6573 15.2011 17.5112 15.3017 17.3497 15.3712C17.1883 15.4406 17.0148 15.4775 16.8391 15.4797C16.4971 15.475 16.1693 15.3423 15.9203 15.1078C15.1331 14.3576 14.0874 13.9391 13 13.9391C11.9126 13.9391 10.8669 14.3576 10.0797 15.1078C9.95545 15.2277 9.8088 15.322 9.64812 15.3853C9.48744 15.4486 9.31587 15.4795 9.14321 15.4765C8.97055 15.4734 8.80018 15.4364 8.64183 15.3675C8.48348 15.2986 8.34025 15.1992 8.22032 15.075C8.10038 14.9508 8.0061 14.8041 7.94284 14.6434C7.87958 14.4827 7.84859 14.3112 7.85163 14.1385C7.85468 13.9659 7.89171 13.7955 7.96059 13.6371C8.02948 13.4788 8.12889 13.3356 8.25313 13.2156C9.5313 11.9935 11.2316 11.3114 13 11.3114C14.7684 11.3114 16.4687 11.9935 17.7469 13.2156ZM13 6.0625C9.83231 6.0508 6.78875 7.29339 4.53438 9.51875C4.41091 9.6383 4.31234 9.78112 4.24436 9.93897C4.17638 10.0968 4.14033 10.2666 4.13829 10.4384C4.13626 10.6103 4.16828 10.7808 4.23251 10.9402C4.29674 11.0996 4.3919 11.2447 4.5125 11.3672C4.63299 11.491 4.77674 11.5898 4.9355 11.6579C5.09426 11.726 5.2649 11.7622 5.43765 11.7642C5.6104 11.7662 5.78185 11.7341 5.94216 11.6698C6.10248 11.6054 6.24851 11.51 6.37188 11.3891C8.1436 9.65746 10.5226 8.68797 13 8.68797C15.4774 8.68797 17.8564 9.65746 19.6281 11.3891C19.8734 11.6293 20.2036 11.763 20.5469 11.7609C20.7219 11.7608 20.8952 11.7259 21.0566 11.6583C21.2181 11.5907 21.3645 11.4918 21.4875 11.3672C21.6081 11.2447 21.7033 11.0996 21.7675 10.9402C21.8317 10.7808 21.8638 10.6103 21.8617 10.4384C21.8597 10.2666 21.8236 10.0968 21.7556 9.93897C21.6877 9.78112 21.5891 9.6383 21.4656 9.51875C19.2113 7.29339 16.1677 6.0508 13 6.0625ZM25.1844 5.8C21.934 2.60438 17.5582 0.813639 13 0.813639C8.4418 0.813639 4.06605 2.60438 0.81563 5.8C0.567611 6.04512 0.427123 6.37872 0.425072 6.72742C0.42302 7.07612 0.559574 7.41136 0.804692 7.65937C1.04981 7.90739 1.38341 8.04788 1.73211 8.04993C2.08081 8.05198 2.41605 7.91543 2.66407 7.67031C5.42009 4.95703 9.1325 3.43627 13 3.43627C16.8675 3.43627 20.5799 4.95703 23.3359 7.67031C23.5801 7.91359 23.9101 8.05109 24.2547 8.05312C24.517 8.056 24.7742 7.9802 24.993 7.8355C25.2119 7.6908 25.3823 7.48384 25.4824 7.24133C25.5824 6.99881 25.6075 6.73188 25.5544 6.47496C25.5013 6.21805 25.3724 5.98295 25.1844 5.8ZM13 16.125C12.6539 16.125 12.3155 16.2276 12.0278 16.4199C11.74 16.6122 11.5157 16.8855 11.3832 17.2053C11.2508 17.5251 11.2161 17.8769 11.2836 18.2164C11.3512 18.5559 11.5178 18.8677 11.7626 19.1124C12.0073 19.3572 12.3191 19.5239 12.6586 19.5914C12.9981 19.6589 13.3499 19.6242 13.6697 19.4918C13.9895 19.3593 14.2628 19.135 14.4551 18.8472C14.6474 18.5595 14.75 18.2211 14.75 17.875C14.75 17.4109 14.5656 16.9658 14.2374 16.6376C13.9093 16.3094 13.4641 16.125 13 16.125Z" fill="white"/>
</svg>
