<svg width="28" height="20" viewBox="0 0 28 20" fill="none" xmlns="http://www.w3.org/2000/svg">
<path d="M18.6875 13.75C18.4389 13.75 18.2004 13.8488 18.0246 14.0246C17.8488 14.2004 17.75 14.4389 17.75 14.6875C17.75 14.9361 17.8488 15.1746 18.0246 15.3504C18.2004 15.5262 18.4389 15.625 18.6875 15.625H22.4375C22.6861 15.625 22.9246 15.5262 23.1004 15.3504C23.2762 15.1746 23.375 14.9361 23.375 14.6875C23.375 14.4389 23.2762 14.2004 23.1004 14.0246C22.9246 13.8488 22.6861 13.75 22.4375 13.75H18.6875ZM0.875 5.3125C0.875 4.0693 1.36886 2.87701 2.24794 1.99794C3.12701 1.11886 4.3193 0.625 5.5625 0.625H22.4375C23.6807 0.625 24.873 1.11886 25.7521 1.99794C26.6311 2.87701 27.125 4.0693 27.125 5.3125V14.6875C27.125 15.9307 26.6311 17.123 25.7521 18.0021C24.873 18.8811 23.6807 19.375 22.4375 19.375H5.5625C4.3193 19.375 3.12701 18.8811 2.24794 18.0021C1.36886 17.123 0.875 15.9307 0.875 14.6875V5.3125ZM25.25 6.25V5.3125C25.25 4.56658 24.9537 3.85121 24.4262 3.32376C23.8988 2.79632 23.1834 2.5 22.4375 2.5H5.5625C4.81658 2.5 4.10121 2.79632 3.57376 3.32376C3.04632 3.85121 2.75 4.56658 2.75 5.3125V6.25H25.25ZM2.75 8.125V14.6875C2.75 15.4334 3.04632 16.1488 3.57376 16.6762C4.10121 17.2037 4.81658 17.5 5.5625 17.5H22.4375C23.1834 17.5 23.8988 17.2037 24.4262 16.6762C24.9537 16.1488 25.25 15.4334 25.25 14.6875V8.125H2.75Z" fill="white"/>
</svg>
