<svg width="24" height="24" viewBox="0 0 24 24" fill="none" xmlns="http://www.w3.org/2000/svg">
<path d="M14.8125 23.25H9.1875C8.69037 23.2495 8.21375 23.0518 7.86222 22.7003C7.5107 22.3488 7.313 21.8721 7.3125 21.375V16.6875H2.625C2.12787 16.687 1.65125 16.4893 1.29972 16.1378C0.9482 15.7863 0.750496 15.3096 0.75 14.8125V9.1875C0.750496 8.69037 0.9482 8.21375 1.29972 7.86222C1.65125 7.5107 2.12787 7.313 2.625 7.3125H7.3125V2.625C7.313 2.12787 7.5107 1.65125 7.86222 1.29972C8.21375 0.9482 8.69037 0.750496 9.1875 0.75H14.8125C15.3096 0.750496 15.7863 0.9482 16.1378 1.29972C16.4893 1.65125 16.687 2.12787 16.6875 2.625V7.3125H21.375C21.8721 7.313 22.3488 7.5107 22.7003 7.86222C23.0518 8.21375 23.2495 8.69037 23.25 9.1875V14.8125C23.2493 15.3096 23.0515 15.786 22.7 16.1375C22.3485 16.489 21.8721 16.6868 21.375 16.6875H16.6875V21.375C16.6868 21.8721 16.489 22.3485 16.1375 22.7C15.786 23.0515 15.3096 23.2493 14.8125 23.25ZM2.625 9.1875V14.8125H9.1875V21.375H14.8125V14.8125H21.375V9.1875H14.8125V2.625H9.1875V9.1875H2.625Z" fill="white"/>
</svg>
