<svg width="28" height="24" viewBox="0 0 28 24" fill="none" xmlns="http://www.w3.org/2000/svg">
<path d="M21.6289 10.5605C22.0026 11.2168 22.2806 11.9004 22.4629 12.6113C22.6452 13.3223 22.7409 14.056 22.75 14.8125V16.2207L14 20.6094L5.25 16.2207C5.25 15.6738 5.25456 15.1634 5.26367 14.6895C5.27279 14.2155 5.3138 13.7552 5.38672 13.3086C5.45964 12.862 5.56901 12.4154 5.71484 11.9688C5.86068 11.5221 6.07943 11.0527 6.37109 10.5605L3.5 9.125V17.1504C3.76432 17.2415 4.0013 17.3691 4.21094 17.5332C4.42057 17.6973 4.60742 17.8887 4.77148 18.1074C4.93555 18.3262 5.05404 18.5632 5.12695 18.8184C5.19987 19.0736 5.24089 19.3424 5.25 19.625V24H0V19.625C0 19.3516 0.0410156 19.0872 0.123047 18.832C0.205078 18.5768 0.323568 18.3353 0.478516 18.1074C0.633464 17.8796 0.815755 17.6882 1.02539 17.5332C1.23503 17.3783 1.47656 17.2507 1.75 17.1504V8.25L0 7.375L14 0.375L28 7.375L21.6289 10.5605ZM3.5 19.625C3.5 19.388 3.41341 19.1829 3.24023 19.0098C3.06706 18.8366 2.86198 18.75 2.625 18.75C2.38802 18.75 2.18294 18.8366 2.00977 19.0098C1.83659 19.1829 1.75 19.388 1.75 19.625V22.25H3.5V19.625ZM3.91016 7.375L14 12.4199L24.0898 7.375L14 2.33008L3.91016 7.375ZM21 15.1406C21 14.4388 20.9316 13.7871 20.7949 13.1855C20.6582 12.584 20.4167 11.9688 20.0703 11.3398L14 14.375L7.92969 11.3398C7.62891 11.8685 7.40104 12.4245 7.24609 13.0078C7.09115 13.5911 7.00911 14.1927 7 14.8125V15.1406L14 18.6406L21 15.1406Z" fill="white"/>
</svg>
