<svg width="24" height="27" viewBox="0 0 24 27" fill="none" xmlns="http://www.w3.org/2000/svg">
<path d="M7.33333 13C10.5551 13 13.1667 10.3884 13.1667 7.16667C13.1667 3.94492 10.5551 1.33334 7.33333 1.33334C4.11158 1.33334 1.5 3.94492 1.5 7.16667C1.5 10.3884 4.11158 13 7.33333 13Z" stroke="white" stroke-width="2.33333" stroke-linejoin="round"/>
<path d="M13.1667 7.86784C13.1749 7.876 15.9218 11.3305 21.4069 18.2302C21.4998 18.342 21.5476 18.4845 21.5409 18.6298C21.5342 18.775 21.4735 18.9125 21.3707 19.0153L18.9884 21.3977C18.8856 21.5005 18.7481 21.5612 18.6028 21.5678C18.4576 21.5745 18.3151 21.5267 18.2032 21.4338L8.39624 13M13.4409 13.2742L15.0912 14.9244" stroke="white" stroke-width="2.33333" stroke-linecap="round" stroke-linejoin="round"/>
<path d="M7.91675 24.7168C9.035 23.2597 10.3942 22.5311 11.9942 22.5311C14.3952 22.5311 17.2285 25.5469 19.6452 25.1322C22.0626 24.7168 22.7544 22.3333 21.2669 21.0138" stroke="white" stroke-width="2.33333" stroke-linecap="round" stroke-linejoin="round"/>
</svg>
