<svg width="24" height="22" viewBox="0 0 24 22" fill="none" xmlns="http://www.w3.org/2000/svg">
<path d="M18.9999 9.83333C18.9999 8.7145 18.2066 7.77883 17.1554 7.55367C17.5754 6.8525 17.8333 6.04167 17.8333 5.16667C17.8333 2.593 15.7403 0.5 13.1666 0.5C11.3968 0.5 9.87542 1.49983 9.08325 2.95467C8.29108 1.49983 6.76975 0.5 4.99992 0.5C2.42625 0.5 0.333252 2.593 0.333252 5.16667C0.333252 6.219 0.697252 7.1815 1.28642 7.962C0.991938 8.17734 0.752229 8.45891 0.586652 8.78399C0.421075 9.10906 0.334272 9.46852 0.333252 9.83333V19.1667C0.333252 20.4535 1.37975 21.5 2.66659 21.5H16.6666C17.9534 21.5 18.9999 20.4535 18.9999 19.1667V16.089L23.6666 18.4223V10.2557L18.9999 12.589V9.83333ZM13.1666 2.83333C14.4534 2.83333 15.4999 3.87983 15.4999 5.16667C15.4999 6.4535 14.4534 7.5 13.1666 7.5C11.8798 7.5 10.8333 6.4535 10.8333 5.16667C10.8333 3.87983 11.8798 2.83333 13.1666 2.83333ZM4.99992 2.83333C6.28675 2.83333 7.33325 3.87983 7.33325 5.16667C7.33325 6.4535 6.28675 7.5 4.99992 7.5C3.71309 7.5 2.66659 6.4535 2.66659 5.16667C2.66659 3.87983 3.71309 2.83333 4.99992 2.83333ZM2.66659 19.1667V9.83333H16.6666L16.6689 19.1667H2.66659Z" fill="white"/>
</svg>
