<svg width="24" height="18" viewBox="0 0 24 18" fill="none" xmlns="http://www.w3.org/2000/svg">
<path d="M3.30833 17.1667C2.31666 17.1667 1.54861 16.8217 1.00416 16.1318C0.459719 15.4419 0.255552 14.6008 0.391663 13.6083L1.61666 4.85834C1.79166 3.69167 2.312 2.72917 3.17766 1.97084C4.04333 1.2125 5.05911 0.833336 6.225 0.833336H17.775C18.9417 0.833336 19.9578 1.2125 20.8235 1.97084C21.6892 2.72917 22.2091 3.69167 22.3833 4.85834L23.6083 13.6083C23.7444 14.6 23.5403 15.4412 22.9958 16.1318C22.4514 16.8225 21.6833 17.1674 20.6917 17.1667C20.2833 17.1667 19.9042 17.0939 19.5542 16.9485C19.2042 16.8031 18.8833 16.5841 18.5917 16.2917L15.9667 13.6667H8.03333L5.40833 16.2917C5.11666 16.5833 4.79583 16.8023 4.44583 16.9485C4.09583 17.0947 3.71666 17.1674 3.30833 17.1667ZM3.775 14.6583L7.1 11.3333H16.9L20.225 14.6583C20.2639 14.6972 20.4194 14.7556 20.6917 14.8333C20.9056 14.8333 21.0759 14.7703 21.2027 14.6443C21.3294 14.5183 21.373 14.348 21.3333 14.1333L20.05 5.15C19.9722 4.58611 19.7194 4.11478 19.2917 3.736C18.8639 3.35722 18.3583 3.16745 17.775 3.16667H6.225C5.64166 3.16667 5.13611 3.35645 4.70833 3.736C4.28055 4.11556 4.02777 4.58689 3.95 5.15L2.66666 14.1333C2.62777 14.3472 2.67172 14.5176 2.7985 14.6443C2.92527 14.7711 3.09522 14.8341 3.30833 14.8333C3.34722 14.8333 3.50277 14.775 3.775 14.6583ZM17.8333 10.1667C18.1639 10.1667 18.4412 10.0551 18.6652 9.83184C18.8892 9.60861 19.0008 9.33134 19 9C19 8.66945 18.888 8.39217 18.664 8.16817C18.44 7.94417 18.1631 7.83256 17.8333 7.83333C17.5028 7.83333 17.2255 7.94534 17.0015 8.16934C16.7775 8.39334 16.6659 8.67022 16.6667 9C16.6667 9.33056 16.7787 9.60784 17.0027 9.83184C17.2267 10.0558 17.5036 10.1674 17.8333 10.1667ZM15.5 6.66667C15.8306 6.66667 16.1078 6.55506 16.3318 6.33184C16.5558 6.10861 16.6674 5.83134 16.6667 5.5C16.6667 5.16945 16.5547 4.89217 16.3307 4.66817C16.1067 4.44417 15.8298 4.33256 15.5 4.33334C15.1694 4.33334 14.8922 4.44534 14.6682 4.66934C14.4442 4.89334 14.3326 5.17022 14.3333 5.5C14.3333 5.83056 14.4453 6.10784 14.6693 6.33184C14.8933 6.55584 15.1702 6.66745 15.5 6.66667ZM7.04166 10.1667H8.79166V8.125H10.8333V6.375H8.79166V4.33334H7.04166V6.375H5V8.125H7.04166V10.1667Z" fill="white"/>
</svg>
