<svg width="22" height="20" viewBox="0 0 22 20" fill="none" xmlns="http://www.w3.org/2000/svg">
<path d="M4 17.1667V17.7792C4 18.2653 3.83472 18.6736 3.50417 19.0042C3.17361 19.3347 2.75556 19.5 2.25 19.5C1.76389 19.5 1.3505 19.3301 1.00984 18.9902C0.669169 18.6503 0.499225 18.2369 0.500003 17.75V9L2.95 2C3.06667 1.65 3.2755 1.36806 3.5765 1.15417C3.8775 0.94028 4.21311 0.833336 4.58334 0.833336H17.4167C17.7861 0.833336 18.1217 0.94028 18.4235 1.15417C18.7253 1.36806 18.9341 1.65 19.05 2L21.5 9V17.7792C21.5 18.2653 21.3347 18.6736 21.0042 19.0042C20.6736 19.3347 20.2556 19.5 19.75 19.5C19.2639 19.5 18.8509 19.3301 18.511 18.9902C18.1711 18.6503 18.0008 18.2369 18 17.75V17.1667H4ZM3.76667 6.66667H18.2333L17.0083 3.16667H4.99167L3.76667 6.66667ZM5.75 13.6667C6.23611 13.6667 6.6495 13.4967 6.99017 13.1568C7.33084 12.8169 7.50078 12.4036 7.5 11.9167C7.5 11.4306 7.32967 11.0176 6.989 10.6777C6.64834 10.3378 6.23534 10.1674 5.75 10.1667C5.26389 10.1667 4.8505 10.337 4.50984 10.6777C4.16917 11.0183 3.99922 11.4313 4 11.9167C4 12.4028 4.17034 12.8162 4.511 13.1568C4.85167 13.4975 5.26467 13.6674 5.75 13.6667ZM16.25 13.6667C16.7361 13.6667 17.1495 13.4967 17.4902 13.1568C17.8308 12.8169 18.0008 12.4036 18 11.9167C18 11.4306 17.8297 11.0176 17.489 10.6777C17.1483 10.3378 16.7353 10.1674 16.25 10.1667C15.7639 10.1667 15.3505 10.337 15.0098 10.6777C14.6692 11.0183 14.4992 11.4313 14.5 11.9167C14.5 12.4028 14.6703 12.8162 15.011 13.1568C15.3517 13.4975 15.7647 13.6674 16.25 13.6667ZM2.83334 14.8333H19.1667V9H2.83334V14.8333Z" fill="white"/>
</svg>
