<svg width="20" height="24" viewBox="0 0 20 24" fill="none" xmlns="http://www.w3.org/2000/svg">
<path d="M18.75 0.625H3.875C2.94763 0.627885 2.05907 0.99756 1.40331 1.65331C0.74756 2.30907 0.377885 3.19763 0.375 4.125V22.5C0.375 22.7321 0.467187 22.9546 0.631282 23.1187C0.795376 23.2828 1.01794 23.375 1.25 23.375H17C17.2321 23.375 17.4546 23.2828 17.6187 23.1187C17.7828 22.9546 17.875 22.7321 17.875 22.5C17.875 22.2679 17.7828 22.0454 17.6187 21.8813C17.4546 21.7172 17.2321 21.625 17 21.625H2.125C2.125 21.1609 2.30937 20.7158 2.63756 20.3876C2.96575 20.0594 3.41087 19.875 3.875 19.875H18.75C18.9821 19.875 19.2046 19.7828 19.3687 19.6187C19.5328 19.4546 19.625 19.2321 19.625 19V1.5C19.625 1.26794 19.5328 1.04538 19.3687 0.881282C19.2046 0.717187 18.9821 0.625 18.75 0.625ZM17.875 18.125H3.875C3.26063 18.1264 2.65733 18.2886 2.125 18.5953V4.125C2.125 3.66087 2.30937 3.21575 2.63756 2.88756C2.96575 2.55937 3.41087 2.375 3.875 2.375H17.875V18.125Z" fill="white"/>
</svg>
