<svg width="24" height="22" viewBox="0 0 24 22" fill="none" xmlns="http://www.w3.org/2000/svg">
<path d="M12.1166 18.6417L11.9999 18.7583L11.8716 18.6417C6.32992 13.6133 2.66659 10.2883 2.66659 6.91667C2.66659 4.58333 4.41658 2.83333 6.74992 2.83333C8.54659 2.83333 10.2966 4 10.9149 5.58667H13.0849C13.7033 4 15.4533 2.83333 17.2499 2.83333C19.5833 2.83333 21.3333 4.58333 21.3333 6.91667C21.3333 10.2883 17.6699 13.6133 12.1166 18.6417ZM17.2499 0.5C15.2199 0.5 13.2716 1.445 11.9999 2.92667C10.7283 1.445 8.77992 0.5 6.74992 0.5C3.15659 0.5 0.333252 3.31167 0.333252 6.91667C0.333252 11.315 4.29992 14.92 10.3083 20.3683L11.9999 21.9083L13.6916 20.3683C19.6999 14.92 23.6666 11.315 23.6666 6.91667C23.6666 3.31167 20.8433 0.5 17.2499 0.5Z" fill="white"/>
</svg>
