<svg width="25" height="23" viewBox="0 0 25 23" fill="none" xmlns="http://www.w3.org/2000/svg">
<path d="M23.8622 5L19.4872 0.625L18.25 1.86225L20.875 4.48725V8.5C20.8755 8.96399 21.06 9.40884 21.3881 9.73693C21.7162 10.065 22.161 10.2495 22.625 10.25V19.4375C22.625 19.7856 22.4867 20.1194 22.2406 20.3656C21.9944 20.6117 21.6606 20.75 21.3125 20.75C20.9644 20.75 20.6306 20.6117 20.3844 20.3656C20.1383 20.1194 20 19.7856 20 19.4375V12C20 11.7679 19.9078 11.5454 19.7437 11.3813C19.5796 11.2172 19.3571 11.125 19.125 11.125H15.625V2.375C15.625 2.14294 15.5328 1.92038 15.3687 1.75628C15.2046 1.59219 14.9821 1.5 14.75 1.5H3.375C3.14294 1.5 2.92038 1.59219 2.75628 1.75628C2.59219 1.92038 2.5 2.14294 2.5 2.375V20.75H0.75V22.5H17.375V20.75H15.625V12.875H18.25V19.35C18.2397 20.0633 18.4742 20.7586 18.9145 21.3199C19.3547 21.8811 19.9741 22.2745 20.6694 22.4344C21.1161 22.5293 21.5783 22.5234 22.0224 22.4169C22.4665 22.3104 22.8813 22.1062 23.2363 21.819C23.5914 21.5318 23.8779 21.169 24.0749 20.757C24.2719 20.345 24.3744 19.8942 24.375 19.4375V6.23725C24.3749 5.77316 24.1905 5.32811 23.8622 5ZM13.875 20.75H4.25V3.25H13.875V20.75Z" fill="white"/>
</svg>
