<svg width="24" height="24" viewBox="0 0 24 24" fill="none" xmlns="http://www.w3.org/2000/svg">
<path d="M12.3499 0.333336H11.9999C10.4678 0.333336 8.95074 0.635103 7.53528 1.22141C6.11981 1.80771 4.83369 2.66707 3.75034 3.75042C1.56242 5.93835 0.333252 8.90581 0.333252 12C0.333252 15.0942 1.56242 18.0617 3.75034 20.2496C4.83369 21.3329 6.11981 22.1923 7.53528 22.7786C8.95074 23.3649 10.4678 23.6667 11.9999 23.6667C15.4999 23.6667 17.4833 22.5 19.5833 20.75C13.1666 22.5 7.33325 17.8333 7.33325 12C7.33325 6.16667 13.1666 1.5 19.5833 3.25C18.6349 2.30346 17.5058 1.55744 16.2631 1.05636C15.0204 0.55528 13.6896 0.309392 12.3499 0.333336ZM17.5999 5.23334L15.8499 9.31667L11.5333 9.66667L14.9166 12.5833L13.8666 16.6667L17.5999 14.3333L21.3333 16.6667L20.1666 12.5833L23.6666 9.66667L19.3499 9.31667L17.5999 5.23334Z" fill="white"/>
</svg>
