<svg width="24" height="24" viewBox="0 0 24 24" fill="none" xmlns="http://www.w3.org/2000/svg">
<path d="M15.8849 10.8917C14.508 11.8692 13.5696 13.3479 13.2716 15.01L11.4749 11.5683L6.93658 16.0833L7.33325 19L6.10825 20.2367L4.04325 16.515L0.333252 14.4617L1.56992 13.225L4.46325 13.6333L9.00159 9.08334L0.333252 4.55667L1.97825 2.91167L12.7116 5.38501L17.2499 0.846673C17.4116 0.683001 17.6042 0.553053 17.8165 0.464362C18.0287 0.375671 18.2565 0.330002 18.4866 0.330002C18.7167 0.330002 18.9444 0.375671 19.1567 0.464362C19.369 0.553053 19.5616 0.683001 19.7233 0.846673C20.3999 1.53501 20.3999 2.66667 19.7233 3.32001L15.1849 7.85834L15.8849 10.8917ZM23.6666 16.0833C23.6666 19.1167 19.5833 23.6667 19.5833 23.6667C19.5833 23.6667 15.4999 19.1167 15.4999 16.0833C15.4999 13.8667 17.3666 12 19.5833 12C21.7999 12 23.6666 13.8667 23.6666 16.0833ZM20.9833 16.2C20.9833 15.5 20.2833 14.8 19.5833 14.8C18.8833 14.8 18.1833 15.3833 18.1833 16.2C18.1833 16.9 18.7666 17.6 19.5833 17.6C20.3999 17.6 21.0999 16.9 20.9833 16.2Z" fill="white"/>
</svg>
