<svg width="20" height="26" viewBox="0 0 20 26" fill="none" xmlns="http://www.w3.org/2000/svg">
<path d="M6.25 15.5L13.75 8" stroke="white" stroke-width="2.33333" stroke-linecap="round" stroke-linejoin="round"/>
<path d="M6.875 9.25C7.22018 9.25 7.5 8.97018 7.5 8.625C7.5 8.27982 7.22018 8 6.875 8C6.52982 8 6.25 8.27982 6.25 8.625C6.25 8.97018 6.52982 9.25 6.875 9.25Z" fill="white" stroke="white" stroke-width="2.33333" stroke-linecap="round" stroke-linejoin="round"/>
<path d="M13.125 15.5C13.4702 15.5 13.75 15.2202 13.75 14.875C13.75 14.5298 13.4702 14.25 13.125 14.25C12.7798 14.25 12.5 14.5298 12.5 14.875C12.5 15.2202 12.7798 15.5 13.125 15.5Z" fill="white" stroke="white" stroke-width="2.33333" stroke-linecap="round" stroke-linejoin="round"/>
<path d="M1.25 24.25V4.25C1.25 3.58696 1.51339 2.95107 1.98223 2.48223C2.45107 2.01339 3.08696 1.75 3.75 1.75H16.25C16.913 1.75 17.5489 2.01339 18.0178 2.48223C18.4866 2.95107 18.75 3.58696 18.75 4.25V24.25L15 21.75L12.5 24.25L10 21.75L7.5 24.25L5 21.75L1.25 24.25Z" stroke="white" stroke-width="2.33333" stroke-linecap="round" stroke-linejoin="round"/>
</svg>
