<svg width="28" height="28" viewBox="0 0 28 28" fill="none" xmlns="http://www.w3.org/2000/svg">
<path d="M14 5.6875V8.75M14 5.6875C14 5.0818 14.1796 4.48969 14.5161 3.98607C14.8526 3.48244 15.3309 3.08991 15.8905 2.85812C16.4501 2.62633 17.0659 2.56568 17.66 2.68385C18.254 2.80201 18.7997 3.09369 19.228 3.52199C19.6563 3.95029 19.948 4.49597 20.0662 5.09004C20.1843 5.6841 20.1237 6.29987 19.8919 6.85947C19.6601 7.41907 19.2676 7.89737 18.7639 8.23388C18.2603 8.57039 17.6682 8.75 17.0625 8.75H14M14 5.6875C14 5.0818 13.8204 4.48969 13.4839 3.98607C13.1474 3.48244 12.6691 3.08991 12.1095 2.85812C11.5499 2.62633 10.9341 2.56568 10.34 2.68385C9.74597 2.80201 9.20029 3.09369 8.77199 3.52199C8.34369 3.95029 8.05201 4.49597 7.93385 5.09004C7.81568 5.6841 7.87633 6.29987 8.10812 6.85947C8.33991 7.41907 8.73244 7.89737 9.23607 8.23388C9.73969 8.57039 10.3318 8.75 10.9375 8.75H14" stroke="white" stroke-width="1.75" stroke-miterlimit="10" stroke-linecap="round"/>
<path d="M22.75 8.75H5.25C4.2835 8.75 3.5 9.5335 3.5 10.5V13.125C3.5 14.0915 4.2835 14.875 5.25 14.875H22.75C23.7165 14.875 24.5 14.0915 24.5 13.125V10.5C24.5 9.5335 23.7165 8.75 22.75 8.75Z" stroke="white" stroke-width="1.75" stroke-linecap="round" stroke-linejoin="round"/>
<path d="M22.75 14.875V22.75C22.75 23.4462 22.4734 24.1139 21.9812 24.6062C21.4889 25.0984 20.8212 25.375 20.125 25.375H7.875C7.17881 25.375 6.51113 25.0984 6.01884 24.6062C5.52656 24.1139 5.25 23.4462 5.25 22.75V14.875M14 8.75V25.375" stroke="white" stroke-width="1.75" stroke-linecap="round" stroke-linejoin="round"/>
</svg>
