<svg width="28" height="28" viewBox="0 0 28 28" fill="none" xmlns="http://www.w3.org/2000/svg">
<path d="M20.7142 16.3333C21.6242 16.3333 22.4246 16.7965 22.8959 17.5H15.7501C15.0932 17.5 14.4877 17.717 14.0001 18.0833H7.29522C7.18027 18.0832 7.06642 18.1057 6.96019 18.1496C6.85396 18.1935 6.75744 18.258 6.67616 18.3393C6.59488 18.4206 6.53043 18.5171 6.48651 18.6233C6.44259 18.7295 6.42007 18.8434 6.42022 18.9583V19.6315C6.42022 20.2557 6.64422 20.86 7.05022 21.3348C8.32772 22.8317 10.2399 23.6868 12.8334 23.8782V25.0833C12.8334 25.2712 12.8509 25.4567 12.8859 25.634C9.76272 25.4368 7.35589 24.3903 5.71905 22.4723C5.04284 21.6803 4.67135 20.673 4.67139 19.6315V18.9572C4.67139 18.2613 4.94783 17.5939 5.43989 17.1018C5.93195 16.6098 6.59934 16.3333 7.29522 16.3333H20.7142ZM14.0001 2.33917C14.7661 2.33917 15.5246 2.49006 16.2324 2.78321C16.9401 3.07636 17.5832 3.50604 18.1248 4.04772C18.6665 4.58939 19.0962 5.23245 19.3894 5.94019C19.6825 6.64792 19.8334 7.40646 19.8334 8.17251C19.8334 8.93855 19.6825 9.69709 19.3894 10.4048C19.0962 11.1126 18.6665 11.7556 18.1248 12.2973C17.5832 12.839 16.9401 13.2687 16.2324 13.5618C15.5246 13.855 14.7661 14.0058 14.0001 14.0058C12.453 14.0058 10.9692 13.3913 9.87526 12.2973C8.7813 11.2033 8.16672 9.7196 8.16672 8.17251C8.16672 6.62541 8.7813 5.14168 9.87526 4.04772C10.9692 2.95375 12.453 2.33917 14.0001 2.33917ZM14.0001 4.08917C13.4638 4.08917 12.9328 4.19479 12.4374 4.4C11.942 4.6052 11.4919 4.90598 11.1127 5.28515C10.7335 5.66433 10.4328 6.11447 10.2275 6.60988C10.0223 7.10529 9.91672 7.63627 9.91672 8.17251C9.91672 8.70874 10.0223 9.23972 10.2275 9.73513C10.4328 10.2305 10.7335 10.6807 11.1127 11.0599C11.4919 11.439 11.942 11.7398 12.4374 11.945C12.9328 12.1502 13.4638 12.2558 14.0001 12.2558C15.083 12.2558 16.1216 11.8256 16.8874 11.0599C17.6532 10.2941 18.0834 9.25547 18.0834 8.17251C18.0834 7.08954 17.6532 6.05093 16.8874 5.28515C16.1216 4.51938 15.083 4.08917 14.0001 4.08917ZM14.0001 20.4167C14.0001 19.9525 14.1844 19.5074 14.5126 19.1792C14.8408 18.851 15.2859 18.6667 15.7501 18.6667H25.0834C25.5475 18.6667 25.9926 18.851 26.3208 19.1792C26.649 19.5074 26.8334 19.9525 26.8334 20.4167V25.0833C26.8334 25.5475 26.649 25.9926 26.3208 26.3208C25.9926 26.649 25.5475 26.8333 25.0834 26.8333H15.7501C15.2859 26.8333 14.8408 26.649 14.5126 26.3208C14.1844 25.9926 14.0001 25.5475 14.0001 25.0833V20.4167ZM25.6667 21C25.3573 21 25.0606 20.8771 24.8418 20.6583C24.623 20.4395 24.5001 20.1428 24.5001 19.8333H23.3334C23.3334 20.4522 23.5792 21.0457 24.0168 21.4833C24.4544 21.9208 25.0479 22.1667 25.6667 22.1667V21ZM25.6667 23.3333C25.0479 23.3333 24.4544 23.5792 24.0168 24.0168C23.5792 24.4543 23.3334 25.0478 23.3334 25.6667H24.5001C24.5001 25.3573 24.623 25.0605 24.8418 24.8417C25.0606 24.6229 25.3573 24.5 25.6667 24.5V23.3333ZM16.3334 19.8333C16.3334 20.1428 16.2105 20.4395 15.9917 20.6583C15.7729 20.8771 15.4761 21 15.1667 21V22.1667C15.7856 22.1667 16.3791 21.9208 16.8166 21.4833C17.2542 21.0457 17.5001 20.4522 17.5001 19.8333H16.3334ZM17.5001 25.6667C17.5001 25.0478 17.2542 24.4543 16.8166 24.0168C16.3791 23.5792 15.7856 23.3333 15.1667 23.3333V24.5C15.4761 24.5 15.7729 24.6229 15.9917 24.8417C16.2105 25.0605 16.3334 25.3573 16.3334 25.6667H17.5001ZM22.4584 22.75C22.4584 22.2085 22.2433 21.6892 21.8604 21.3063C21.4775 20.9234 20.9582 20.7083 20.4167 20.7083C19.8752 20.7083 19.3559 20.9234 18.973 21.3063C18.5902 21.6892 18.3751 22.2085 18.3751 22.75C18.3751 23.2915 18.5902 23.8108 18.973 24.1937C19.3559 24.5766 19.8752 24.7917 20.4167 24.7917C20.9582 24.7917 21.4775 24.5766 21.8604 24.1937C22.2433 23.8108 22.4584 23.2915 22.4584 22.75Z" fill="white"/>
</svg>
