<svg width="26" height="26" viewBox="0 0 26 26" fill="none" xmlns="http://www.w3.org/2000/svg">
<path d="M16.171 6.829C16.5175 7.17688 16.7781 7.60078 16.932 8.06701L17.43 9.597C17.4719 9.71469 17.5491 9.81652 17.6512 9.88854C17.7532 9.96055 17.8751 9.99921 18 9.99921C18.1249 9.99921 18.2468 9.96055 18.3488 9.88854C18.4509 9.81652 18.5281 9.71469 18.57 9.597L19.068 8.06701C19.2227 7.60176 19.4839 7.17906 19.8308 6.83254C20.1776 6.48602 20.6006 6.22526 21.066 6.071L22.596 5.574C22.7137 5.53214 22.8155 5.45487 22.8875 5.35281C22.9595 5.25076 22.9982 5.12891 22.9982 5.004C22.9982 4.8791 22.9595 4.75725 22.8875 4.6552C22.8155 4.55314 22.7137 4.47587 22.596 4.434L22.566 4.426L21.035 3.929C20.5698 3.77447 20.1469 3.51361 19.8001 3.16713C19.4533 2.82065 19.192 2.3981 19.037 1.933L18.54 0.403005C18.4986 0.284868 18.4215 0.182516 18.3194 0.110103C18.2173 0.0376905 18.0952 -0.00120544 17.97 -0.00120544C17.8448 -0.00120544 17.7227 0.0376905 17.6206 0.110103C17.5185 0.182516 17.4414 0.284868 17.4 0.403005L16.902 1.933L16.889 1.971C16.7817 2.28413 16.6258 2.5784 16.427 2.843L16.422 2.841C16.0462 3.33821 15.5316 3.71297 14.943 3.918L14.956 3.922C14.9487 3.92436 14.9413 3.92669 14.934 3.929L13.404 4.426C13.2863 4.46787 13.1845 4.54514 13.1125 4.6472C13.0405 4.74925 13.0018 4.8711 13.0018 4.996C13.0018 5.12091 13.0405 5.24276 13.1125 5.34481C13.1845 5.44687 13.2863 5.52414 13.404 5.566L14.934 6.063C15.401 6.21901 15.824 6.481 16.171 6.829ZM24.821 10.358L25.739 10.656L25.758 10.66C25.8291 10.6847 25.8907 10.7308 25.9343 10.7921C25.9779 10.8534 26.0013 10.9268 26.0013 11.002C26.0013 11.0772 25.9779 11.1506 25.9343 11.2119C25.8907 11.2732 25.8291 11.3193 25.758 11.344L24.839 11.643C24.4545 11.7708 24.1211 12.0186 23.888 12.35C23.8881 12.3517 23.8881 12.3533 23.888 12.355C23.783 12.505 23.7 12.669 23.642 12.844L23.342 13.762C23.3169 13.8326 23.2705 13.8937 23.2093 13.9369C23.1481 13.9801 23.0749 14.0033 23 14.0033C22.9251 14.0033 22.8519 13.9801 22.7907 13.9369C22.7295 13.8937 22.6831 13.8326 22.658 13.762L22.468 13.182V13.174L22.359 12.84C22.2668 12.5602 22.1104 12.3058 21.9024 12.0971C21.6944 11.8884 21.4405 11.7312 21.161 11.638L20.242 11.34C20.1709 11.3153 20.1093 11.2692 20.0657 11.2079C20.0221 11.1466 19.9987 11.0732 19.9987 10.998C19.9987 10.9228 20.0221 10.8494 20.0657 10.7881C20.1093 10.7268 20.1709 10.6807 20.242 10.656L21.161 10.357C21.367 10.287 21.559 10.18 21.729 10.044L21.8 9.98201H21.802L21.892 9.89701C22.0965 9.68925 22.2502 9.43701 22.341 9.16L22.64 8.242C22.6651 8.1714 22.7115 8.11029 22.7727 8.06709C22.8339 8.02388 22.9071 8.00068 22.982 8.00068C23.0569 8.00068 23.1301 8.02388 23.1913 8.06709C23.2525 8.11029 23.2989 8.1714 23.324 8.242L23.622 9.16C23.7149 9.43906 23.8717 9.69258 24.0799 9.90038C24.288 10.1082 24.5418 10.2655 24.821 10.358ZM22.794 14.986C22.6801 14.9685 22.5689 14.9365 22.463 14.891C22.01 20.273 17.499 24.5 12 24.5C6.201 24.5 1.5 19.799 1.5 14C1.5 8.201 6.201 3.5 12 3.5C12.315 3.5 12.627 3.514 12.934 3.541C12.988 3.516 13.043 3.494 13.099 3.475L14.612 2.984C14.912 2.88 15.185 2.712 15.412 2.492C14.3043 2.16469 13.1551 1.99898 12 2C5.373 2 0 7.373 0 14C0 20.627 5.373 26 12 26C18.432 26 23.682 20.94 23.986 14.582C23.8344 14.7404 23.6467 14.8599 23.439 14.9302C23.2313 15.0005 23.0097 15.0197 22.793 14.986H22.794ZM8.5 13C8.89782 13 9.27936 12.842 9.56066 12.5607C9.84196 12.2794 10 11.8978 10 11.5C10 11.1022 9.84196 10.7206 9.56066 10.4393C9.27936 10.158 8.89782 10 8.5 10C8.10218 10 7.72064 10.158 7.43934 10.4393C7.15804 10.7206 7 11.1022 7 11.5C7 11.8978 7.15804 12.2794 7.43934 12.5607C7.72064 12.842 8.10218 13 8.5 13ZM17 11.5C17 11.8978 16.842 12.2794 16.5607 12.5607C16.2794 12.842 15.8978 13 15.5 13C15.1022 13 14.7206 12.842 14.4393 12.5607C14.158 12.2794 14 11.8978 14 11.5C14 11.1022 14.158 10.7206 14.4393 10.4393C14.7206 10.158 15.1022 10 15.5 10C15.8978 10 16.2794 10.158 16.5607 10.4393C16.842 10.7206 17 11.1022 17 11.5ZM6.328 17.13C6.49192 17.0184 6.69335 16.9763 6.88825 17.0128C7.08314 17.0494 7.25564 17.1616 7.368 17.325L7.377 17.337L7.421 17.396C7.463 17.45 7.531 17.532 7.624 17.634C7.811 17.837 8.096 18.114 8.482 18.391C9.25 18.944 10.412 19.5 12 19.5C13.588 19.5 14.75 18.944 15.518 18.391C15.904 18.114 16.19 17.837 16.376 17.634C16.4633 17.539 16.5461 17.4399 16.624 17.337L16.631 17.327C16.7431 17.1626 16.9158 17.0494 17.1113 17.0123C17.3069 16.9753 17.5091 17.0174 17.6735 17.1295C17.8379 17.2416 17.9511 17.4143 17.9882 17.6098C18.0252 17.8054 17.9831 18.0076 17.871 18.172L17.869 18.173V18.175L17.866 18.178L17.859 18.188L17.837 18.219C17.7259 18.3676 17.6075 18.5104 17.482 18.647C17.153 19.0038 16.7884 19.3262 16.394 19.609C15.424 20.306 13.962 21 12 21C10.038 21 8.576 20.306 7.606 19.609C7.21157 19.3262 6.84701 19.0038 6.518 18.647C6.38453 18.5012 6.25902 18.3483 6.142 18.189L6.134 18.179L6.132 18.175L6.131 18.173L6.13 18.172C6.01808 18.0076 5.97607 17.8054 6.0132 17.61C6.05033 17.4146 6.16357 17.2419 6.328 17.13Z" fill="white"/>
</svg>
