<svg width="27" height="25" viewBox="0 0 27 25" fill="none" xmlns="http://www.w3.org/2000/svg">
<path d="M24.3391 15.8745L25.375 11.9898V9.6875C24.9301 4.54726 20.5662 0.5 15.3125 0.5H13.5625V9.6875H7.22739L6.25155 5.37987C6.16555 4.98981 5.94932 4.64064 5.63844 4.38984C5.32757 4.13904 4.94057 4.00155 4.54114 4H0.875V5.75H4.54114L6.75462 15.521C5.96476 15.7303 5.24928 16.1565 4.68924 16.7515C4.1292 17.3465 3.74698 18.0865 3.58588 18.8875C3.42477 19.6886 3.49123 20.5188 3.77771 21.284C4.06419 22.0493 4.55926 22.719 5.20682 23.2173C5.85437 23.7156 6.62855 24.0227 7.44164 24.1036C8.25473 24.1845 9.07423 24.0362 9.80732 23.6753C10.5404 23.3144 11.1578 22.7554 11.5895 22.0616C12.0212 21.3679 12.25 20.5671 12.25 19.75C12.25 19.6023 12.2427 19.4565 12.2281 19.3125H17.9594C17.945 19.4564 17.9377 19.6023 17.9375 19.75C17.9372 20.5258 18.1432 21.2878 18.5344 21.9578C18.9255 22.6278 19.4879 23.1817 20.1637 23.5628C20.8395 23.9438 21.6045 24.1383 22.3802 24.1263C23.156 24.1143 23.9146 23.8962 24.5783 23.4944C25.2419 23.0926 25.7869 22.5216 26.1571 21.8398C26.5274 21.158 26.7097 20.39 26.6853 19.6146C26.661 18.8391 26.4309 18.0841 26.0186 17.4269C25.6063 16.7697 25.0266 16.2339 24.3391 15.8745ZM15.3125 2.25C19.6006 2.25 23.1407 5.51364 23.5793 9.6875H15.3125V2.25ZM7.875 22.375C7.35582 22.375 6.84831 22.221 6.41663 21.9326C5.98495 21.6442 5.6485 21.2342 5.44982 20.7545C5.25114 20.2749 5.19915 19.7471 5.30044 19.2379C5.40172 18.7287 5.65173 18.261 6.01884 17.8938C6.38596 17.5267 6.85369 17.2767 7.36289 17.1754C7.87209 17.0742 8.39989 17.1261 8.87954 17.3248C9.3592 17.5235 9.76917 17.8599 10.0576 18.2916C10.346 18.7233 10.5 19.2308 10.5 19.75C10.4992 20.4459 10.2224 21.1132 9.73028 21.6053C9.23817 22.0974 8.57095 22.3742 7.875 22.375ZM18.5261 17.5625H11.6614C11.3325 16.994 10.8801 16.5066 10.3375 16.1364C9.79501 15.7663 9.17623 15.5227 8.52693 15.4238L7.62388 11.4375H23.625V11.7602L22.657 15.3897C22.5424 15.3802 22.4275 15.3753 22.3125 15.3748C21.545 15.3754 20.7911 15.5779 20.1265 15.9619C19.4619 16.3458 18.91 16.8978 18.5261 17.5625ZM22.3125 22.375C21.7933 22.375 21.2858 22.221 20.8541 21.9326C20.4224 21.6442 20.086 21.2342 19.8873 20.7545C19.6886 20.2749 19.6367 19.7471 19.7379 19.2379C19.8392 18.7287 20.0892 18.261 20.4563 17.8938C20.8235 17.5267 21.2912 17.2767 21.8004 17.1754C22.3096 17.0742 22.8374 17.1261 23.317 17.3248C23.7967 17.5235 24.2067 17.8599 24.4951 18.2916C24.7835 18.7233 24.9375 19.2308 24.9375 19.75C24.9367 20.4459 24.6599 21.1132 24.1678 21.6053C23.6757 22.0974 23.0084 22.3742 22.3125 22.375Z" fill="white"/>
</svg>
