<svg width="24" height="24" viewBox="0 0 24 24" fill="none" xmlns="http://www.w3.org/2000/svg">
<path d="M3 0C1.355 0 0 1.355 0 3C0 4.645 1.355 6 3 6C4.645 6 6 4.645 6 3C6 1.355 4.645 0 3 0ZM14.938 0.906C14.6245 0.911615 14.3114 0.932975 14 0.97C11.531 1.259 9.227 2.524 7.469 4.282C6.234 5.512 5.211 7.282 4.875 10.563C4.86291 10.5937 4.85256 10.6251 4.844 10.657V10.688C4.8189 10.7386 4.79783 10.7911 4.781 10.845C4.777 10.868 4.785 10.88 4.781 10.907V11.032C4.7903 11.1615 4.82211 11.2884 4.875 11.407C4.925 12.306 5.051 13.224 5.375 14.095H5.344C5.359 14.181 5.461 14.61 5.469 15.032C5.473 15.349 5.359 15.638 5.344 15.72C4.734 16.325 4.004 16.958 3.313 17.501C2.621 18.044 2.023 18.513 1.593 18.939H1.563C1.30597 19.2097 1.11775 19.5383 1.01421 19.897C0.91066 20.2556 0.894813 20.6339 0.968 21C1.12 21.7 1.522 22.305 2.061 22.844C2.597 23.379 3.206 23.777 3.905 23.937C4.605 24.097 5.452 23.891 5.999 23.344C6.437 22.906 6.859 22.289 7.405 21.594C7.952 20.898 8.573 20.144 9.186 19.531C9.116 19.601 9.421 19.438 9.812 19.438C10.128 19.438 10.39 19.468 10.592 19.5C10.644 19.508 10.749 19.527 10.78 19.531C11.651 19.855 12.57 19.977 13.468 20.031C13.479 20.031 13.488 20.063 13.499 20.063C13.569 20.082 13.644 20.09 13.718 20.093C13.7484 20.1054 13.7794 20.1161 13.811 20.125H14C14.063 20.121 14.125 20.109 14.188 20.094C14.227 20.09 14.242 20.066 14.281 20.062H14.313C17.324 19.812 19.343 18.722 20.625 17.437C22.383 15.68 23.648 13.375 23.938 10.907C24.227 8.437 23.457 5.801 21.281 3.625C19.379 1.723 17.125 0.891 14.938 0.906ZM3 2C3.563 2 4 2.438 4 3C4 3.563 3.562 4 3 4C2.437 4 2 3.562 2 3C2 2.437 2.438 2 3 2ZM14.938 2.906C16.625 2.875 18.316 3.473 19.875 5.031C21.66 6.812 22.165 8.761 21.938 10.687C21.711 12.613 20.699 14.551 19.218 16.031C18.223 17.027 16.778 17.805 14.25 18.031L6.875 10.656C7.168 7.836 7.863 6.762 8.906 5.719C10.386 4.239 12.289 3.195 14.219 2.969C14.461 2.941 14.696 2.91 14.938 2.906ZM7.343 14L10.905 17.531C10.5437 17.4682 10.1777 17.437 9.811 17.438C9.202 17.441 8.429 17.477 7.781 18.125C7.09202 18.826 6.4449 19.5669 5.843 20.344C5.284 21.054 4.788 21.711 4.562 21.937C4.444 22.055 4.502 22.035 4.342 22C4.182 21.965 3.858 21.766 3.499 21.406C3.147 21.055 2.972 20.73 2.936 20.563C2.901 20.395 2.866 20.441 2.968 20.343C3.178 20.133 3.815 19.625 4.53 19.063C5.245 18.5 6.061 17.843 6.78 17.125C7.472 16.434 7.48 15.633 7.468 15C7.46 14.52 7.386 14.238 7.343 14Z" fill="white"/>
</svg>
