<svg width="27" height="24" viewBox="0 0 27 24" fill="none" xmlns="http://www.w3.org/2000/svg">
<path d="M24.9319 4.5625H18.6875V0.1875H16.9375V4.5625H9.9375V6.3125H10.9175L11.254 8.9375H5.125C3.96508 8.93882 2.85305 9.40018 2.03286 10.2204C1.21268 11.0405 0.751317 12.1526 0.75 13.3125V14.1875H16.0625V13.3125C16.0632 12.6523 15.9136 12.0006 15.625 11.4069C15.368 10.8778 15.0073 10.4058 14.5643 10.0188C14.1213 9.63192 13.6051 9.33801 13.0462 9.15455L12.6819 6.3125H22.9431L20.9798 21.625H0.75V23.375H22.52L24.7075 6.3125H26.125V4.5625H24.9319ZM14.1625 12.4375H2.64995C2.83148 11.9261 3.16681 11.4833 3.60994 11.17C4.05307 10.8567 4.58229 10.6881 5.125 10.6875H11.6875C12.2302 10.6881 12.7594 10.8567 13.2026 11.17C13.6457 11.4833 13.981 11.9261 14.1625 12.4375Z" fill="white"/>
</svg>
