<svg width="18" height="26" viewBox="0 0 18 26" fill="none" xmlns="http://www.w3.org/2000/svg">
<path d="M17.3125 17.375C17.3125 18.8834 16.7133 20.3301 15.6467 21.3967C14.5801 22.4633 13.1334 23.0625 11.625 23.0625H10.3125V24.375C10.3125 24.7231 10.1742 25.0569 9.92808 25.3031C9.68194 25.5492 9.3481 25.6875 9 25.6875C8.6519 25.6875 8.31806 25.5492 8.07192 25.3031C7.82578 25.0569 7.6875 24.7231 7.6875 24.375V23.0625H6.375C4.86658 23.0625 3.41994 22.4633 2.35333 21.3967C1.28672 20.3301 0.6875 18.8834 0.6875 17.375C0.6875 17.0269 0.825781 16.6931 1.07192 16.4469C1.31806 16.2008 1.6519 16.0625 2 16.0625C2.3481 16.0625 2.68194 16.2008 2.92808 16.4469C3.17422 16.6931 3.3125 17.0269 3.3125 17.375C3.31538 18.1863 3.63896 18.9636 4.21267 19.5373C4.78638 20.111 5.56366 20.4346 6.375 20.4375H11.625C12.4372 20.4375 13.2162 20.1148 13.7905 19.5405C14.3648 18.9662 14.6875 18.1872 14.6875 17.375C14.6875 16.5628 14.3648 15.7838 13.7905 15.2095C13.2162 14.6352 12.4372 14.3125 11.625 14.3125H6.8125C5.30408 14.3125 3.85744 13.7133 2.79083 12.6467C1.72422 11.5801 1.125 10.1334 1.125 8.625C1.125 7.11658 1.72422 5.66994 2.79083 4.60333C3.85744 3.53672 5.30408 2.9375 6.8125 2.9375H7.6875V1.625C7.6875 1.2769 7.82578 0.943064 8.07192 0.696922C8.31806 0.450781 8.6519 0.3125 9 0.3125C9.3481 0.3125 9.68194 0.450781 9.92808 0.696922C10.1742 0.943064 10.3125 1.2769 10.3125 1.625V2.9375H10.75C12.2584 2.9375 13.7051 3.53672 14.7717 4.60333C15.8383 5.66994 16.4375 7.11658 16.4375 8.625C16.4375 8.9731 16.2992 9.30694 16.0531 9.55308C15.8069 9.79922 15.4731 9.9375 15.125 9.9375C14.7769 9.9375 14.4431 9.79922 14.1969 9.55308C13.9508 9.30694 13.8125 8.9731 13.8125 8.625C13.8096 7.81366 13.486 7.03638 12.9123 6.46267C12.3386 5.88896 11.5613 5.56538 10.75 5.5625H6.8125C6.00027 5.5625 5.22132 5.88516 4.64699 6.45949C4.07266 7.03382 3.75 7.81277 3.75 8.625C3.75 9.43723 4.07266 10.2162 4.64699 10.7905C5.22132 11.3648 6.00027 11.6875 6.8125 11.6875H11.625C13.1334 11.6875 14.5801 12.2867 15.6467 13.3533C16.7133 14.4199 17.3125 15.8666 17.3125 17.375Z" fill="white"/>
</svg>
