<svg width="26" height="23" viewBox="0 0 26 23" fill="none" xmlns="http://www.w3.org/2000/svg">
<path d="M10.3751 13.3125C10.3751 13.5721 10.2981 13.8259 10.1539 14.0417C10.0096 14.2575 9.80466 14.4258 9.56483 14.5251C9.325 14.6244 9.0611 14.6504 8.8065 14.5998C8.5519 14.5491 8.31803 14.4241 8.13448 14.2406C7.95092 14.057 7.82592 13.8232 7.77528 13.5686C7.72463 13.314 7.75062 13.0501 7.84996 12.8102C7.9493 12.5704 8.11753 12.3654 8.33337 12.2212C8.54921 12.077 8.80297 12 9.06256 12C9.41065 12 9.74449 12.1383 9.99063 12.3844C10.2368 12.6306 10.3751 12.9644 10.3751 13.3125ZM16.9376 12C16.678 12 16.4242 12.077 16.2084 12.2212C15.9925 12.3654 15.8243 12.5704 15.725 12.8102C15.6256 13.0501 15.5996 13.314 15.6503 13.5686C15.7009 13.8232 15.8259 14.057 16.0095 14.2406C16.193 14.4241 16.4269 14.5491 16.6815 14.5998C16.9361 14.6504 17.2 14.6244 17.4398 14.5251C17.6797 14.4258 17.8846 14.2575 18.0289 14.0417C18.1731 13.8259 18.2501 13.5721 18.2501 13.3125C18.2501 12.9644 18.1118 12.6306 17.8656 12.3844C17.6195 12.1383 17.2857 12 16.9376 12ZM24.4516 13.75C24.2211 13.853 23.9712 13.9052 23.7188 13.9031C23.3194 13.904 22.9323 13.7646 22.6251 13.5094V18.125C22.6251 19.2853 22.1641 20.3981 21.3436 21.2186C20.5232 22.0391 19.4104 22.5 18.2501 22.5H7.75006C6.58973 22.5 5.47694 22.0391 4.65646 21.2186C3.83599 20.3981 3.37506 19.2853 3.37506 18.125V13.5094C3.0678 13.7646 2.68074 13.904 2.28131 13.9031C2.02888 13.9052 1.77897 13.853 1.54849 13.75C1.18793 13.5908 0.892642 13.313 0.711608 12.9629C0.530574 12.6128 0.474674 12.2113 0.553181 11.825L2.34693 2.2547C2.39203 2.02075 2.48413 1.79838 2.61766 1.60106C2.75119 1.40374 2.92338 1.23557 3.1238 1.10673C3.32421 0.977893 3.54869 0.891064 3.78364 0.851502C4.01859 0.811941 4.25912 0.820469 4.49068 0.87657L10.4844 2.37501H15.5157L21.5094 0.87657C21.741 0.820469 21.9815 0.811941 22.2165 0.851502C22.4514 0.891064 22.6759 0.977893 22.8763 1.10673C23.0767 1.23557 23.2489 1.40374 23.3825 1.60106C23.516 1.79838 23.6081 2.02075 23.6532 2.2547L25.4469 11.825C25.5254 12.2113 25.4695 12.6128 25.2885 12.9629C25.1075 13.313 24.8122 13.5908 24.4516 13.75ZM8.85474 3.77501L4.06412 2.57188L2.27037 12.1531L8.85474 3.77501ZM20.8751 18.125V11.3438L15.1985 4.12501H10.8016L5.12506 11.3438V18.125C5.12793 18.8203 5.40542 19.4863 5.89708 19.978C6.38874 20.4696 7.05475 20.7471 7.75006 20.75H12.1251V19.3609L10.6266 17.8734C10.4871 17.7034 10.4158 17.4876 10.4266 17.2679C10.4374 17.0483 10.5295 16.8405 10.685 16.6849C10.8405 16.5294 11.0483 16.4373 11.268 16.4265C11.4877 16.4157 11.7035 16.487 11.8735 16.6266L13.0001 17.7641L14.1266 16.6266C14.2966 16.487 14.5125 16.4157 14.7321 16.4265C14.9518 16.4373 15.1596 16.5294 15.3151 16.6849C15.4706 16.8405 15.5628 17.0483 15.5735 17.2679C15.5843 17.4876 15.513 17.7034 15.3735 17.8734L13.8751 19.3609V20.75H18.2501C18.9454 20.7471 19.6114 20.4696 20.103 19.978C20.5947 19.4863 20.8722 18.8203 20.8751 18.125ZM23.7297 12.1531L21.936 2.57188L17.1454 3.77501L23.7297 12.1531Z" fill="white"/>
</svg>
