<svg width="22" height="22" viewBox="0 0 22 22" fill="none" xmlns="http://www.w3.org/2000/svg">
<path d="M17.4167 11C16.9525 11 16.5074 10.8156 16.1792 10.4874C15.851 10.1592 15.6667 9.71413 15.6667 9.25C15.6667 8.78587 15.851 8.34075 16.1792 8.01256C16.5074 7.68437 16.9525 7.5 17.4167 7.5C17.8808 7.5 18.3259 7.68437 18.6541 8.01256C18.9823 8.34075 19.1667 8.78587 19.1667 9.25C19.1667 9.71413 18.9823 10.1592 18.6541 10.4874C18.3259 10.8156 17.8808 11 17.4167 11ZM13.9167 6.33333C13.4525 6.33333 13.0074 6.14896 12.6792 5.82077C12.351 5.49258 12.1667 5.04746 12.1667 4.58333C12.1667 4.1192 12.351 3.67408 12.6792 3.3459C13.0074 3.01771 13.4525 2.83333 13.9167 2.83333C14.3808 2.83333 14.8259 3.01771 15.1541 3.3459C15.4823 3.67408 15.6667 4.1192 15.6667 4.58333C15.6667 5.04746 15.4823 5.49258 15.1541 5.82077C14.8259 6.14896 14.3808 6.33333 13.9167 6.33333ZM8.08333 6.33333C7.6192 6.33333 7.17408 6.14896 6.8459 5.82077C6.51771 5.49258 6.33333 5.04746 6.33333 4.58333C6.33333 4.1192 6.51771 3.67408 6.8459 3.3459C7.17408 3.01771 7.6192 2.83333 8.08333 2.83333C8.54746 2.83333 8.99258 3.01771 9.32077 3.3459C9.64896 3.67408 9.83333 4.1192 9.83333 4.58333C9.83333 5.04746 9.64896 5.49258 9.32077 5.82077C8.99258 6.14896 8.54746 6.33333 8.08333 6.33333ZM4.58333 11C4.1192 11 3.67408 10.8156 3.3459 10.4874C3.01771 10.1592 2.83333 9.71413 2.83333 9.25C2.83333 8.78587 3.01771 8.34075 3.3459 8.01256C3.67408 7.68437 4.1192 7.5 4.58333 7.5C5.04746 7.5 5.49258 7.68437 5.82077 8.01256C6.14896 8.34075 6.33333 8.78587 6.33333 9.25C6.33333 9.71413 6.14896 10.1592 5.82077 10.4874C5.49258 10.8156 5.04746 11 4.58333 11ZM11 0.5C8.21523 0.5 5.54451 1.60625 3.57538 3.57538C1.60625 5.54451 0.5 8.21523 0.5 11C0.5 13.7848 1.60625 16.4555 3.57538 18.4246C5.54451 20.3938 8.21523 21.5 11 21.5C11.4641 21.5 11.9092 21.3156 12.2374 20.9874C12.5656 20.6592 12.75 20.2141 12.75 19.75C12.75 19.295 12.575 18.8867 12.295 18.5833C12.0267 18.2683 11.8517 17.86 11.8517 17.4167C11.8517 16.9525 12.036 16.5074 12.3642 16.1792C12.6924 15.851 13.1375 15.6667 13.6017 15.6667H15.6667C17.2138 15.6667 18.6975 15.0521 19.7915 13.9581C20.8854 12.8642 21.5 11.3804 21.5 9.83333C21.5 4.67667 16.7983 0.5 11 0.5Z" fill="white"/>
</svg>
