<svg width="24" height="23" viewBox="0 0 24 23" fill="none" xmlns="http://www.w3.org/2000/svg">
<path d="M2.66659 22.5C2.02492 22.5 1.47542 22.2717 1.01809 21.8152C0.560754 21.3586 0.332476 20.8091 0.333254 20.1667V7.33334C0.333254 6.69168 0.561921 6.14218 1.01925 5.68485C1.47659 5.22751 2.0257 4.99923 2.66659 5.00001H7.33325V2.66668C7.33325 2.02501 7.56192 1.47551 8.01925 1.01818C8.47659 0.560845 9.0257 0.332568 9.66659 0.333345H14.3333C14.9749 0.333345 15.5244 0.562012 15.9818 1.01935C16.4391 1.47668 16.6674 2.02579 16.6666 2.66668V5.00001H21.3333C21.9749 5.00001 22.5244 5.22868 22.9818 5.68601C23.4391 6.14335 23.6674 6.69246 23.6666 7.33334V20.1667C23.6666 20.8083 23.4379 21.3578 22.9806 21.8152C22.5233 22.2725 21.9741 22.5008 21.3333 22.5H2.66659ZM9.66659 5.00001H14.3333V2.66668H9.66659V5.00001ZM21.3333 15.5H15.4999V17.8333H8.49992V15.5H2.66659V20.1667H21.3333V15.5ZM10.8333 15.5H13.1666V13.1667H10.8333V15.5ZM2.66659 13.1667H8.49992V10.8333H15.4999V13.1667H21.3333V7.33334H2.66659V13.1667Z" fill="white"/>
</svg>
