<svg width="28" height="28" viewBox="0 0 28 28" fill="none" xmlns="http://www.w3.org/2000/svg">
<path d="M12.8333 15.75V25.0833H3.5V15.75H12.8333ZM10.5 18.0833H5.83333V22.75H10.5V18.0833ZM14 2.33334L20.4167 12.8333H7.58333L14 2.33334ZM14 6.83668L11.76 10.5H16.24L14 6.83668ZM20.4167 15.1667C23.3333 15.1667 25.6667 17.5 25.6667 20.4167C25.6667 23.3333 23.3333 25.6667 20.4167 25.6667C17.5 25.6667 15.1667 23.3333 15.1667 20.4167C15.1667 17.5 17.5 15.1667 20.4167 15.1667ZM20.4167 17.5C19.6431 17.5 18.9013 17.8073 18.3543 18.3543C17.8073 18.9013 17.5 19.6431 17.5 20.4167C17.5 21.1902 17.8073 21.9321 18.3543 22.4791C18.9013 23.0261 19.6431 23.3333 20.4167 23.3333C21.1902 23.3333 21.9321 23.0261 22.4791 22.4791C23.026 21.9321 23.3333 21.1902 23.3333 20.4167C23.3333 19.6431 23.026 18.9013 22.4791 18.3543C21.9321 17.8073 21.1902 17.5 20.4167 17.5Z" fill="white"/>
</svg>
