<svg width="24" height="23" viewBox="0 0 24 23" fill="none" xmlns="http://www.w3.org/2000/svg">
<path d="M21.625 5H17.1734C16.9629 3.78056 16.3283 2.6747 15.3818 1.87758C14.4352 1.08047 13.2375 0.643333 12 0.643333C10.7625 0.643333 9.56481 1.08047 8.61825 1.87758C7.67169 2.6747 7.03713 3.78056 6.82656 5H2.375C1.91087 5 1.46575 5.18438 1.13756 5.51256C0.809374 5.84075 0.625 6.28587 0.625 6.75V20.75C0.625 21.2141 0.809374 21.6592 1.13756 21.9874C1.46575 22.3156 1.91087 22.5 2.375 22.5H21.625C22.0891 22.5 22.5342 22.3156 22.8624 21.9874C23.1906 21.6592 23.375 21.2141 23.375 20.75V6.75C23.375 6.28587 23.1906 5.84075 22.8624 5.51256C22.5342 5.18438 22.0891 5 21.625 5ZM12 2.375C12.7758 2.37648 13.5292 2.63485 14.1426 3.10975C14.756 3.58465 15.1949 4.24934 15.3906 5H8.60938C8.80513 4.24934 9.24398 3.58465 9.8574 3.10975C10.4708 2.63485 11.2242 2.37648 12 2.375ZM21.625 20.75H2.375V6.75H6.75V9.375C6.75 9.60706 6.84219 9.82962 7.00628 9.99372C7.17038 10.1578 7.39294 10.25 7.625 10.25C7.85706 10.25 8.07962 10.1578 8.24372 9.99372C8.40781 9.82962 8.5 9.60706 8.5 9.375V6.75H15.5V9.375C15.5 9.60706 15.5922 9.82962 15.7563 9.99372C15.9204 10.1578 16.1429 10.25 16.375 10.25C16.6071 10.25 16.8296 10.1578 16.9937 9.99372C17.1578 9.82962 17.25 9.60706 17.25 9.375V6.75H21.625V20.75Z" fill="white"/>
</svg>
