<svg width="22" height="22" viewBox="0 0 22 22" fill="none" xmlns="http://www.w3.org/2000/svg">
<path fill-rule="evenodd" clip-rule="evenodd" d="M10.277 0.00854843C10.1492 0.0199808 9.84707 0.0536053 9.60563 0.0832983C9.3642 0.112991 8.90525 0.195552 8.58573 0.266681C8.26622 0.337862 7.75495 0.478257 7.44958 0.578769C7.14422 0.679228 6.56855 0.920963 6.17038 1.11593C5.77216 1.3109 5.21441 1.6262 4.93094 1.81656C4.64742 2.00688 4.25359 2.29357 4.05575 2.45362C3.85785 2.61367 3.46975 2.9717 3.19325 3.24933C2.91676 3.52691 2.54126 3.94593 2.35885 4.18047C2.17645 4.41496 1.8966 4.80811 1.73697 5.05399C1.57729 5.29991 1.30915 5.77722 1.14106 6.11466C0.972958 6.45209 0.738859 7.00741 0.620803 7.34873C0.502746 7.6901 0.350967 8.21376 0.283573 8.5125C0.216127 8.81124 0.12477 9.31835 0.0805117 9.63939C0.0362019 9.96047 0 10.3969 0 10.6093V10.9955H0.770981C1.38388 10.9955 1.55766 10.9798 1.6186 10.9187C1.66554 10.8717 1.70856 10.6863 1.72958 10.4402C1.74843 10.2193 1.79605 9.82903 1.8354 9.57296C1.87475 9.3169 1.96688 8.87621 2.04022 8.59372C2.11355 8.31117 2.28939 7.79775 2.43095 7.45281C2.57255 7.10787 2.819 6.60573 2.97868 6.33699C3.13831 6.06826 3.39745 5.67381 3.55455 5.46043C3.71165 5.24704 4.13233 4.78126 4.48934 4.42531C4.8464 4.06941 5.35927 3.62194 5.62911 3.43106C5.89894 3.24012 6.41021 2.93383 6.76526 2.75034C7.12031 2.56686 7.68967 2.32352 8.03052 2.20966C8.37136 2.09575 8.91749 1.94894 9.24413 1.88335C9.7522 1.78134 9.99843 1.76396 10.9484 1.76292C11.8095 1.76199 12.1746 1.7831 12.5751 1.85702C12.8592 1.90942 13.3239 2.01909 13.608 2.10082C13.892 2.1825 14.3422 2.34276 14.6085 2.45693C14.8747 2.5711 15.2443 2.74807 15.4298 2.85023C15.6152 2.95235 15.9266 3.14018 16.1215 3.2677C16.3165 3.39516 16.6803 3.66979 16.9299 3.8779C17.1796 4.08606 17.5512 4.44 17.7558 4.66441C17.9603 4.88886 18.2669 5.25868 18.4372 5.48629C18.6074 5.71391 18.7607 5.95243 18.778 6.01642C18.7952 6.08036 18.7959 6.16768 18.7795 6.21041C18.7541 6.27668 18.5597 6.28811 17.4607 6.28811C16.3577 6.28811 16.16 6.29985 16.0905 6.36938C16.0249 6.43518 16.0094 6.58245 16.0094 7.14165C16.0094 7.70086 16.0249 7.84813 16.0905 7.91393C16.1624 7.98589 16.5055 7.9952 19.0858 7.9952H22V4.99486V1.99452L21.2383 1.99529C20.8193 1.99576 20.4417 2.01816 20.3991 2.04511C20.3345 2.08587 20.3173 2.32104 20.2958 3.4533C20.2728 4.65939 20.2604 4.81432 20.1852 4.8288C20.129 4.83956 19.9725 4.67449 19.7205 4.33861C19.5115 4.0601 19.0965 3.58589 18.7982 3.28487C18.4999 2.98385 18.0932 2.60819 17.8944 2.45005C17.6955 2.29191 17.3009 2.00683 17.0174 1.81651C16.7339 1.62615 16.1762 1.30966 15.778 1.11309C15.3798 0.916566 14.8019 0.674314 14.4939 0.574785C14.1858 0.475257 13.6745 0.336051 13.3577 0.265388C13.0409 0.194725 12.5859 0.112681 12.3465 0.0831431C12.1071 0.0535536 11.5959 0.0200325 11.2103 0.00860016C10.8248 -0.00283218 10.4048 -0.00288391 10.277 0.00854843ZM10.2032 3.3173C10.1361 3.38455 10.1221 3.54414 10.1221 4.24043C10.1221 4.97887 10.111 5.09159 10.0317 5.15791C9.98196 5.19955 9.77864 5.31279 9.57981 5.40958C9.32273 5.53476 9.1064 5.69828 8.83099 5.97566C8.61031 6.19789 8.37327 6.49927 8.28016 6.67608C8.19025 6.84679 8.07984 7.1295 8.03485 7.30429C7.98822 7.48555 7.95336 7.83018 7.95383 8.10611C7.95424 8.37231 7.98962 8.73903 8.03243 8.92101C8.07529 9.103 8.19097 9.40562 8.28956 9.5935C8.38815 9.78139 8.56771 10.0545 8.68861 10.2003C8.8095 10.3463 9.02108 10.5624 9.15877 10.6805C9.29645 10.7987 9.53643 10.9769 9.69203 11.0767C9.84769 11.1763 10.3044 11.4348 10.707 11.651C11.1096 11.8671 11.5949 12.1468 11.7854 12.2724C11.976 12.398 12.2245 12.6063 12.3378 12.7351C12.451 12.864 12.5822 13.0856 12.6293 13.2276C12.6888 13.407 12.7043 13.5595 12.68 13.7279C12.6608 13.861 12.5908 14.0905 12.5244 14.2377C12.4579 14.3849 12.3061 14.6115 12.1868 14.7411C12.0676 14.8706 11.8389 15.0411 11.6787 15.12C11.4326 15.241 11.3232 15.263 10.9742 15.2616C10.6046 15.2601 10.5265 15.2413 10.2343 15.0842C10.0547 14.9875 9.82816 14.8154 9.73108 14.7018C9.63393 14.5881 9.5071 14.3971 9.44921 14.2773C9.39131 14.1575 9.3216 13.9229 9.29433 13.7561C9.26706 13.5892 9.2446 13.3089 9.24444 13.1331C9.24423 12.9118 9.21914 12.7885 9.163 12.7322C9.09731 12.6664 8.95028 12.6509 8.39202 12.6509C7.83376 12.6509 7.68673 12.6664 7.62104 12.7322C7.55814 12.7952 7.53991 12.9294 7.53991 13.3298C7.53991 13.6164 7.57693 14.0118 7.62321 14.2185C7.66901 14.4232 7.78253 14.7569 7.87538 14.96C7.96829 15.1632 8.14578 15.4641 8.26978 15.6289C8.39383 15.7937 8.64636 16.0537 8.83099 16.2068C9.01561 16.3598 9.34096 16.5696 9.55399 16.673C9.76702 16.7764 9.98196 16.895 10.0317 16.9366C10.1105 17.0026 10.1221 17.1132 10.1221 17.8024C10.1221 18.4516 10.1365 18.6069 10.2032 18.6738C10.2689 18.7395 10.4159 18.755 10.9742 18.755C11.5324 18.755 11.6795 18.7395 11.7452 18.6738C11.8118 18.6069 11.8263 18.4516 11.8263 17.8024C11.8263 17.113 11.8378 17.0026 11.9167 16.937C11.9664 16.8956 12.2162 16.7606 12.4718 16.6372C12.8589 16.4502 13.0101 16.3382 13.376 15.9673C13.6418 15.6979 13.8812 15.397 13.982 15.2058C14.0736 15.032 14.1965 14.741 14.255 14.5592C14.3138 14.3764 14.3748 14.0091 14.3914 13.7372C14.4139 13.37 14.4001 13.1608 14.3367 12.9096C14.29 12.7246 14.1795 12.4248 14.0912 12.2432C13.9941 12.0438 13.7863 11.761 13.5662 11.529C13.3658 11.3177 13.0144 11.0201 12.7852 10.8676C12.5561 10.7151 12.0083 10.3957 11.5681 10.1578C11.1278 9.91997 10.6602 9.65123 10.529 9.56076C10.3978 9.47023 10.1831 9.27655 10.0518 9.13036C9.89902 8.96017 9.7852 8.76996 9.73526 8.60153C9.69234 8.45689 9.65728 8.21929 9.65728 8.07357C9.65728 7.89251 9.69942 7.72388 9.79041 7.54101C9.86364 7.39384 9.99724 7.21108 10.0874 7.13488C10.1774 7.05868 10.3441 6.95387 10.4577 6.90199C10.5843 6.84421 10.7843 6.80768 10.9742 6.80768C11.1641 6.80768 11.364 6.84421 11.4906 6.90199C11.6042 6.95387 11.776 7.06297 11.8724 7.1445C11.9688 7.22597 12.1022 7.40998 12.1688 7.55337C12.2682 7.76702 12.2902 7.89996 12.2906 8.28897C12.291 8.65114 12.3103 8.78305 12.3722 8.84507C12.4382 8.91113 12.5873 8.92634 13.169 8.92634C13.7756 8.92634 13.8981 8.91284 13.973 8.83778C14.0501 8.7606 14.0573 8.67597 14.0289 8.17812C14.011 7.86396 13.9605 7.46926 13.9168 7.30093C13.873 7.1326 13.7634 6.85331 13.6732 6.68027C13.575 6.49203 13.3504 6.20684 13.1138 5.97018C12.8183 5.67454 12.6187 5.52659 12.3238 5.38449C12.1068 5.27994 11.9061 5.15103 11.8778 5.09806C11.8495 5.04504 11.8263 4.64097 11.8263 4.20013C11.8263 3.54047 11.8119 3.38424 11.7452 3.3173C11.6795 3.25156 11.5324 3.23604 10.9742 3.23604C10.4159 3.23604 10.2689 3.25156 10.2032 3.3173ZM20.3308 11.0713C20.2837 11.1185 20.2422 11.3086 20.2206 11.5756C20.2016 11.8114 20.1511 12.2254 20.1084 12.4957C20.0656 12.766 19.984 13.1617 19.9269 13.3751C19.8699 13.5885 19.7437 13.9787 19.6466 14.2421C19.5495 14.5056 19.3669 14.9268 19.2409 15.1782C19.1148 15.4296 18.8496 15.8781 18.6514 16.1749C18.4533 16.4717 18.1043 16.9264 17.876 17.1852C17.6477 17.4441 17.2507 17.8324 16.994 18.0483C16.7371 18.2641 16.3583 18.5544 16.152 18.6935C15.9458 18.8325 15.6027 19.0417 15.3897 19.1584C15.1766 19.275 14.7816 19.4619 14.5117 19.5737C14.2419 19.6855 13.812 19.8362 13.5563 19.9087C13.3007 19.9812 12.8708 20.083 12.6009 20.1349C12.2226 20.2077 11.8622 20.2294 11.0258 20.2294C10.1921 20.2294 9.82186 20.2073 9.42488 20.1338C9.14085 20.0812 8.70431 19.9804 8.45477 19.9098C8.20528 19.839 7.77736 19.69 7.50386 19.5786C7.23041 19.4671 6.83033 19.2798 6.61482 19.1625C6.39931 19.045 6.04871 18.832 5.83568 18.689C5.62265 18.546 5.25872 18.2701 5.0269 18.076C4.79507 17.8818 4.44049 17.542 4.23887 17.3208C4.03726 17.0996 3.73308 16.7324 3.56281 16.5048C3.3926 16.2772 3.23927 16.0387 3.22202 15.9747C3.20482 15.9107 3.20415 15.8234 3.22052 15.7807C3.24588 15.7144 3.44031 15.703 4.53928 15.703C5.64228 15.703 5.84002 15.6912 5.90948 15.6217C5.97512 15.5559 5.99061 15.4086 5.99061 14.8494C5.99061 14.2902 5.97512 14.143 5.90948 14.0772C5.83759 14.0052 5.49453 13.9959 2.91417 13.9959H0V16.9962V19.9966L0.761737 19.9958C1.18072 19.9953 1.55833 19.9729 1.60094 19.946C1.66549 19.9052 1.68269 19.67 1.70423 18.5378C1.72715 17.3317 1.7396 17.1768 1.81479 17.1623C1.87103 17.1515 2.02705 17.3165 2.27886 17.6531C2.48755 17.932 2.92579 18.4284 3.25285 18.7563C3.57985 19.0842 4.09143 19.5348 4.38967 19.7575C4.68791 19.9803 5.14914 20.2908 5.41458 20.4476C5.68008 20.6044 6.13325 20.8441 6.42162 20.9802C6.71005 21.1163 7.19493 21.3101 7.49921 21.4109C7.80349 21.5117 8.31476 21.6527 8.63536 21.7242C8.95596 21.7958 9.41585 21.8775 9.65728 21.9057C9.89871 21.934 10.3286 21.9723 10.6127 21.991C10.8992 22.0099 11.4395 21.9981 11.8263 21.9645C12.2097 21.9312 12.814 21.8462 13.169 21.7756C13.5241 21.705 14.1283 21.5426 14.5117 21.4146C14.8952 21.2866 15.4433 21.0698 15.7297 20.9328C16.0161 20.7957 16.4733 20.5433 16.7457 20.3718C17.0181 20.2003 17.4202 19.9249 17.6391 19.7599C17.858 19.5948 18.2355 19.2721 18.4779 19.0428C18.7203 18.8134 19.092 18.4279 19.3039 18.186C19.5157 17.9442 19.8843 17.4508 20.1231 17.0896C20.3618 16.7285 20.6952 16.1466 20.8641 15.7964C21.033 15.4463 21.2737 14.8455 21.3989 14.4615C21.5241 14.0774 21.6758 13.507 21.7359 13.1941C21.7961 12.8811 21.8683 12.4155 21.8964 12.1595C21.9245 11.9034 21.9477 11.5734 21.9479 11.426C21.9482 11.251 21.9202 11.1299 21.8672 11.0768C21.8015 11.0111 21.6545 10.9955 21.0962 10.9955C20.5595 10.9955 20.3897 11.0124 20.3308 11.0713Z" fill="white"/>
</svg>
