<svg width="29" height="29" viewBox="0 0 29 29" fill="none" xmlns="http://www.w3.org/2000/svg">
<mask id="path-1-outside-1_193_1576" maskUnits="userSpaceOnUse" x="0" y="0" width="29" height="29" fill="black">
<rect fill="white" width="29" height="29"/>
<path fill-rule="evenodd" clip-rule="evenodd" d="M8.30356 1.20089C7.93205 1.30712 7.34312 1.53821 6.99483 1.71439C6.52487 1.95228 6.17387 2.22382 5.63366 2.7675C5.11093 3.29367 4.82225 3.66788 4.60939 4.09513C4.44627 4.42234 4.23239 4.97936 4.13403 5.33292C4.00408 5.80002 3.9552 6.21826 3.9552 6.86299C3.9552 7.4807 4.00408 7.92222 4.11604 8.3164C4.20453 8.6278 4.44095 9.20131 4.64139 9.59099C4.84192 9.98059 5.17797 10.4859 5.38821 10.714C5.59845 10.9421 5.98955 11.2984 6.25721 11.506C6.52478 11.7135 6.989 11.9953 7.28866 12.1321C7.72324 12.3304 7.91921 12.4884 8.25687 12.9124C8.48973 13.2048 8.89282 13.611 9.15263 13.8152C9.41235 14.0193 9.8406 14.2932 10.1041 14.4239C10.3676 14.5546 10.8707 14.7414 11.2219 14.8389C11.6571 14.9598 12.1099 15.0163 12.6432 15.0163C13.1592 15.0163 13.6608 14.956 14.1154 14.8393C14.4947 14.742 15.109 14.5055 15.4805 14.3139C15.9908 14.0507 16.3316 13.7874 16.8743 13.2373C17.3164 12.7892 17.694 12.313 17.856 11.9992C18.0009 11.7187 18.2059 11.2226 18.3117 10.8969C18.4697 10.4103 18.5044 10.114 18.506 9.23956C18.5076 8.35354 18.4753 8.07469 18.3136 7.57971C18.2067 7.2525 17.9878 6.72964 17.8272 6.4179C17.6666 6.10607 17.3231 5.615 17.0637 5.32646C16.8043 5.038 16.3938 4.65445 16.1515 4.47427C15.9091 4.294 15.4613 4.0279 15.1565 3.88291C14.7322 3.68114 14.529 3.5189 14.2899 3.19101C14.118 2.9555 13.7517 2.57356 13.4757 2.34238C13.1997 2.11121 12.721 1.79403 12.4119 1.63756C12.1028 1.4811 11.5624 1.27202 11.2111 1.17301C10.7521 1.04366 10.3485 0.995041 9.77575 1.0004C9.22034 1.00558 8.77445 1.06626 8.30356 1.20089ZM10.9244 1.97166C11.2012 2.04245 11.7038 2.23615 12.0414 2.40205C12.3789 2.56795 12.7147 2.79512 12.7874 2.90697C12.8602 3.01882 12.8987 3.1446 12.8729 3.18659C12.8471 3.22857 12.5995 3.28679 12.3226 3.31594C12.0457 3.34509 11.5583 3.44164 11.2396 3.53054C10.9208 3.61944 10.4661 3.79112 10.2291 3.91198C9.99207 4.03292 9.62622 4.24862 9.41606 4.3914C9.20582 4.53419 8.78863 4.91766 8.48897 5.24351C8.12397 5.64024 7.81468 6.09587 7.5526 6.62281C7.3074 7.11583 7.1105 7.66359 7.02531 8.08948C6.92711 8.58038 6.90499 8.97006 6.94569 9.49181C6.97667 9.88922 7.00994 10.3473 7.01957 10.5097C7.03316 10.7394 7.00167 10.8121 6.8778 10.8369C6.76922 10.8586 6.55433 10.6959 6.20233 10.3256C5.91838 10.0268 5.55945 9.54306 5.40459 9.25061C5.24974 8.95816 5.05022 8.46267 4.96131 8.14957C4.86236 7.80136 4.79954 7.31548 4.79954 6.89835C4.79954 6.46983 4.86447 5.98046 4.9744 5.58134C5.07057 5.23204 5.27001 4.71751 5.41768 4.43798C5.56527 4.15845 5.91069 3.68769 6.18527 3.39192C6.45977 3.09616 6.93927 2.70436 7.25075 2.52129C7.56223 2.33813 8.07854 2.11334 8.39804 2.02163C8.75697 1.91871 9.25462 1.85267 9.7001 1.84893C10.0967 1.84562 10.6476 1.90086 10.9244 1.97166ZM13.9606 4.36506C14.2393 4.43823 14.7013 4.6094 14.9875 4.74539C15.2784 4.88366 15.7621 5.23017 16.0851 5.53154C16.4027 5.8279 16.806 6.31438 16.9814 6.61261C17.1568 6.91075 17.3784 7.40336 17.4738 7.70719C17.6043 8.12262 17.6478 8.49148 17.6493 9.19452C17.651 9.98603 17.6177 10.2258 17.4322 10.7578C17.3118 11.1035 17.1112 11.5624 16.9867 11.7777C16.8621 11.993 16.5101 12.4219 16.2042 12.7309C15.8985 13.0399 15.4396 13.3991 15.1844 13.5293C14.9293 13.6595 14.4546 13.8578 14.1295 13.9701C13.7036 14.1171 13.3498 14.175 12.863 14.1771C12.4915 14.1787 11.9216 14.1147 11.5965 14.0347C11.2714 13.9547 10.7775 13.7821 10.4988 13.6511C10.2202 13.5202 9.81349 13.2728 9.59506 13.1015C9.37672 12.9302 9.04008 12.5796 8.84714 12.3223C8.65421 12.065 8.38141 11.6003 8.24099 11.2894C8.08766 10.9501 7.93998 10.419 7.87151 9.96044C7.77542 9.31682 7.77567 9.07349 7.87311 8.41448C7.95915 7.83247 8.0777 7.4473 8.3364 6.90931C8.58945 6.38297 8.83009 6.03927 9.22085 5.64594C9.58485 5.27955 9.95838 5.00732 10.3815 4.80012C10.7247 4.63201 11.1764 4.44699 11.3854 4.38902C11.5944 4.33097 11.9933 4.25848 12.272 4.2278C12.5506 4.19712 12.9306 4.18547 13.1163 4.20196C13.3021 4.21845 13.682 4.29188 13.9606 4.36506ZM12.3986 5.24249C12.285 5.35689 12.2297 5.52576 12.2297 5.75889C12.2297 6.03162 12.1818 6.14449 12.0039 6.29007C11.8797 6.39172 11.618 6.62799 11.4225 6.81523C11.2065 7.02192 11.0256 7.29406 10.9619 7.50815C10.9042 7.70209 10.8814 7.99208 10.9113 8.15263C10.9413 8.31309 11.1022 8.60494 11.2691 8.80118C11.4359 8.99734 11.7108 9.22817 11.8799 9.31418C12.0491 9.40011 12.4116 9.53532 12.6855 9.6147C12.9809 9.70029 13.2815 9.85761 13.4243 10.0014C13.588 10.1662 13.6651 10.3302 13.6651 10.5137C13.6651 10.7045 13.5902 10.854 13.4095 11.0239C13.269 11.1562 13.045 11.2884 12.9117 11.3178C12.7707 11.349 12.551 11.3204 12.3863 11.2492C12.2305 11.182 11.9721 10.9886 11.8121 10.8194C11.652 10.6503 11.4412 10.5119 11.3435 10.5119C11.2458 10.5119 11.1203 10.5578 11.0646 10.6138C11.0088 10.6699 10.9634 10.7942 10.9636 10.8901C10.9637 10.9858 11.0374 11.1856 11.1271 11.3338C11.217 11.482 11.4646 11.7061 11.6775 11.8317C11.8905 11.9574 12.1018 12.1299 12.1473 12.2153C12.1926 12.3006 12.2297 12.5068 12.2297 12.6735C12.2297 12.8633 12.2929 13.0401 12.3986 13.1465C12.4915 13.24 12.6218 13.3165 12.6881 13.3165C12.7544 13.3165 12.8684 13.2564 12.9414 13.183C13.0144 13.1095 13.0741 12.9158 13.0741 12.7524C13.0741 12.5891 13.1134 12.3816 13.1613 12.2914C13.2094 12.201 13.3898 12.0541 13.5624 11.9648C13.735 11.8753 13.9783 11.6936 14.103 11.5608C14.2278 11.428 14.3702 11.2116 14.4196 11.08C14.469 10.9484 14.5095 10.6693 14.5095 10.4596C14.5095 10.25 14.4559 9.97523 14.3903 9.84894C14.3248 9.72273 14.1634 9.51867 14.0315 9.39543C13.8997 9.2722 13.6778 9.11445 13.5385 9.04485C13.3992 8.97524 13.0692 8.85583 12.8053 8.77951C12.5414 8.7031 12.2089 8.54196 12.0665 8.42136C11.8626 8.24866 11.8076 8.13452 11.8076 7.8844C11.8076 7.66317 11.8663 7.51129 12.0012 7.38372C12.1077 7.2831 12.3155 7.15833 12.463 7.10657C12.6588 7.03781 12.8075 7.03773 13.0135 7.10615C13.1687 7.15774 13.4435 7.35228 13.6242 7.53857C13.8082 7.72819 14.0335 7.87717 14.1364 7.87717C14.2373 7.87717 14.3659 7.82134 14.4222 7.75317C14.4822 7.68034 14.5025 7.5288 14.4713 7.38593C14.4422 7.25216 14.3111 7.02464 14.1802 6.88033C14.0492 6.73602 13.7861 6.53782 13.5954 6.43991C13.4046 6.34192 13.2094 6.188 13.1613 6.09766C13.1134 6.0074 13.0741 5.79994 13.0741 5.63659C13.0741 5.47324 13.0144 5.27955 12.9414 5.20603C12.8684 5.1326 12.7544 5.07251 12.6881 5.07251C12.6218 5.07251 12.4915 5.149 12.3986 5.24249ZM2.9414 15.9725C2.64284 16.125 2.52058 16.2601 2.33642 16.6404C2.17178 16.9806 2.03221 17.1477 1.84924 17.224C1.70823 17.2828 1.45949 17.4795 1.29645 17.6612C1.04348 17.943 1 18.0518 1 18.403C1 18.7407 1.06248 18.9121 1.3488 19.3589C1.54063 19.6583 2.10111 20.3056 2.5942 20.7972C3.08738 21.289 3.95022 22.0921 4.5117 22.582C5.07319 23.072 6.27004 24.1078 7.17138 24.8841C8.07271 25.6603 9.07613 26.4752 9.4012 26.6952C9.72627 26.9151 10.2962 27.2456 10.6677 27.4295C11.0392 27.6134 11.5858 27.825 11.8822 27.8997C12.2732 27.9982 12.6095 28.0208 13.1065 27.9822C13.4834 27.9529 14.1717 27.8707 14.6361 27.7994C15.1005 27.7282 15.9174 27.5936 16.4515 27.5004C16.9855 27.4072 17.7264 27.277 18.0979 27.2112C18.4694 27.1452 19.1154 27.0295 19.5333 26.9539C19.9513 26.8783 20.6542 26.7449 21.0953 26.6574C21.5365 26.5698 22.2204 26.4338 22.6152 26.3549C23.0099 26.276 23.7318 26.2094 24.2194 26.2068C24.864 26.2033 25.2327 26.2445 25.5703 26.3577C25.8258 26.4434 26.214 26.6037 26.433 26.7141C26.652 26.8245 26.9199 26.9149 27.0283 26.9149C27.1366 26.9149 27.2709 26.869 27.3266 26.8129C27.3823 26.7568 27.4279 26.6289 27.4279 26.5286C27.4279 26.4283 27.3604 26.2848 27.2778 26.2096C27.1952 26.1343 26.7298 25.9116 26.2435 25.7146C25.3718 25.3614 25.3444 25.3563 24.3038 25.3528C23.5218 25.3501 23.0078 25.3994 22.3196 25.543C21.8088 25.6496 21.1059 25.79 20.7576 25.8552C20.4093 25.9203 19.7824 26.035 19.3644 26.1099C18.9465 26.1848 18.2246 26.3168 17.7602 26.4032C17.2958 26.4895 16.5549 26.6187 16.1137 26.6903C15.6726 26.7619 14.8345 26.8991 14.2512 26.9951C13.668 27.0912 12.9734 27.1699 12.7076 27.1699C12.3712 27.1699 12.0215 27.0912 11.5571 26.9108C11.1901 26.7684 10.5549 26.4259 10.1455 26.1496C9.73615 25.8733 8.84622 25.1772 8.16779 24.6026C7.48944 24.028 6.47488 23.1653 5.91323 22.6856C5.35157 22.2059 4.45716 21.4028 3.92564 20.9008C3.39413 20.3989 2.79144 19.797 2.58643 19.5633C2.38134 19.3295 2.14949 19.0437 2.07122 18.9281C1.99286 18.8126 1.92878 18.5937 1.92878 18.4417C1.92878 18.2216 1.97952 18.1389 2.17786 18.0357C2.31489 17.9644 2.53594 17.906 2.66918 17.906C2.80233 17.906 3.11769 17.9672 3.3699 18.0422C3.62219 18.1172 4.07552 18.3157 4.37737 18.4835C4.67922 18.6512 5.24915 18.9963 5.64388 19.2503C6.03861 19.5044 6.66553 19.9501 7.03704 20.2408C7.40855 20.5316 8.26345 21.137 8.93681 21.5864C9.61018 22.0356 10.3875 22.5961 10.6641 22.8318C10.9971 23.1155 11.244 23.2603 11.3948 23.2603C11.535 23.2603 11.9657 23.0327 12.5152 22.6681C13.0061 22.3424 13.5684 21.9936 13.7646 21.8928C13.9608 21.792 14.3286 21.6378 14.5819 21.5501C14.9416 21.4255 15.2869 21.3905 16.1578 21.3905C17.1582 21.3905 17.296 21.3724 17.4955 21.2144C17.6178 21.1176 17.718 20.9667 17.718 20.8793C17.718 20.7918 17.6355 20.6621 17.5346 20.591C17.3743 20.478 16.8809 20.4684 13.6207 20.5147L9.89025 20.5678L9.50303 20.3792C9.20793 20.2354 9.07242 20.1002 8.93327 19.8109C8.81295 19.5607 8.76938 19.3567 8.80535 19.2123C8.83541 19.0917 8.91841 18.9034 8.98984 18.7937C9.06127 18.684 9.27801 18.5181 9.47154 18.4249C9.66506 18.3319 10.0703 18.2317 10.3722 18.2025C10.674 18.1733 11.301 18.0972 11.7654 18.0335C12.2297 17.9697 13.0846 17.8587 13.6651 17.7868C14.2456 17.7149 15.2145 17.5965 15.8182 17.5238C16.4219 17.451 17.072 17.3719 17.2629 17.3478C17.4537 17.3239 18.5366 17.3019 19.6692 17.2991L21.7286 17.2939L22.6574 17.6451C23.1682 17.8384 23.9661 18.1914 24.4305 18.4297C24.8949 18.668 25.7405 19.1251 26.3097 19.4454C26.8789 19.7657 27.4314 20.0498 27.5377 20.0765C27.6696 20.1099 27.7807 20.0699 27.8882 19.9502C28.0173 19.8068 28.0288 19.7378 27.9524 19.5689C27.8981 19.4489 27.5485 19.1772 27.1157 18.9188C26.707 18.6746 25.8003 18.1791 25.1011 17.8177C24.4018 17.4561 23.4709 17.0253 23.0324 16.8603C22.4826 16.6532 21.9601 16.5279 21.3486 16.4565C20.6561 16.3756 20.074 16.375 18.689 16.4539C17.7137 16.5094 16.3839 16.6109 15.7338 16.6794C15.0836 16.748 14.0577 16.8647 13.454 16.9388C12.8503 17.0129 11.8961 17.1461 11.3336 17.2348C10.7711 17.3234 10.1821 17.3959 10.0249 17.3956C9.86762 17.3953 9.55217 17.4623 9.32394 17.5443C9.09572 17.6264 8.72767 17.8574 8.50612 18.0577C8.16373 18.3673 8.08783 18.4948 8.00044 18.9076C7.94395 19.1747 7.84711 19.4487 7.7853 19.5164C7.68786 19.6232 7.63611 19.6121 7.39716 19.4333C7.24551 19.3199 6.77952 18.9925 6.36157 18.7059C5.94362 18.4192 5.3167 18.0289 4.96841 17.8383C4.62012 17.6478 4.1141 17.4093 3.84383 17.3082C3.57364 17.2072 3.3319 17.0703 3.30666 17.0042C3.2815 16.938 3.30776 16.827 3.36509 16.7575C3.42233 16.688 3.59069 16.6311 3.73913 16.6311C3.88756 16.6311 4.21534 16.6922 4.46754 16.7669C4.71983 16.8416 5.21732 17.0545 5.57312 17.2399C5.92893 17.4254 6.49607 17.785 6.83339 18.0391C7.1707 18.2931 7.49949 18.5009 7.564 18.5009C7.62859 18.5009 7.7549 18.4613 7.84474 18.4129C7.93458 18.3645 8.00804 18.2549 8.00804 18.1694C8.00804 18.0839 7.92808 17.9116 7.83039 17.7866C7.7327 17.6616 7.38094 17.3747 7.0487 17.149C6.71653 16.9233 6.14103 16.5857 5.76986 16.3985C5.39868 16.2114 4.88026 15.996 4.61767 15.9198C4.35508 15.8436 3.95469 15.7812 3.7279 15.7812C3.46734 15.7812 3.17773 15.8517 2.9414 15.9725ZM12.3553 21.4738C12.3834 21.5196 12.3699 21.6247 12.3252 21.7075C12.2806 21.7903 12.0699 21.9528 11.8571 22.0686L11.4701 22.2793L11.164 22.1133C10.9957 22.022 10.8023 21.862 10.7344 21.7577C10.6665 21.6533 10.6355 21.5281 10.6654 21.4793C10.697 21.4279 11.0528 21.3905 11.5121 21.3905C11.9477 21.3905 12.3272 21.428 12.3553 21.4738Z"/>
</mask>
<path fill-rule="evenodd" clip-rule="evenodd" d="M8.30356 1.20089C7.93205 1.30712 7.34312 1.53821 6.99483 1.71439C6.52487 1.95228 6.17387 2.22382 5.63366 2.7675C5.11093 3.29367 4.82225 3.66788 4.60939 4.09513C4.44627 4.42234 4.23239 4.97936 4.13403 5.33292C4.00408 5.80002 3.9552 6.21826 3.9552 6.86299C3.9552 7.4807 4.00408 7.92222 4.11604 8.3164C4.20453 8.6278 4.44095 9.20131 4.64139 9.59099C4.84192 9.98059 5.17797 10.4859 5.38821 10.714C5.59845 10.9421 5.98955 11.2984 6.25721 11.506C6.52478 11.7135 6.989 11.9953 7.28866 12.1321C7.72324 12.3304 7.91921 12.4884 8.25687 12.9124C8.48973 13.2048 8.89282 13.611 9.15263 13.8152C9.41235 14.0193 9.8406 14.2932 10.1041 14.4239C10.3676 14.5546 10.8707 14.7414 11.2219 14.8389C11.6571 14.9598 12.1099 15.0163 12.6432 15.0163C13.1592 15.0163 13.6608 14.956 14.1154 14.8393C14.4947 14.742 15.109 14.5055 15.4805 14.3139C15.9908 14.0507 16.3316 13.7874 16.8743 13.2373C17.3164 12.7892 17.694 12.313 17.856 11.9992C18.0009 11.7187 18.2059 11.2226 18.3117 10.8969C18.4697 10.4103 18.5044 10.114 18.506 9.23956C18.5076 8.35354 18.4753 8.07469 18.3136 7.57971C18.2067 7.2525 17.9878 6.72964 17.8272 6.4179C17.6666 6.10607 17.3231 5.615 17.0637 5.32646C16.8043 5.038 16.3938 4.65445 16.1515 4.47427C15.9091 4.294 15.4613 4.0279 15.1565 3.88291C14.7322 3.68114 14.529 3.5189 14.2899 3.19101C14.118 2.9555 13.7517 2.57356 13.4757 2.34238C13.1997 2.11121 12.721 1.79403 12.4119 1.63756C12.1028 1.4811 11.5624 1.27202 11.2111 1.17301C10.7521 1.04366 10.3485 0.995041 9.77575 1.0004C9.22034 1.00558 8.77445 1.06626 8.30356 1.20089ZM10.9244 1.97166C11.2012 2.04245 11.7038 2.23615 12.0414 2.40205C12.3789 2.56795 12.7147 2.79512 12.7874 2.90697C12.8602 3.01882 12.8987 3.1446 12.8729 3.18659C12.8471 3.22857 12.5995 3.28679 12.3226 3.31594C12.0457 3.34509 11.5583 3.44164 11.2396 3.53054C10.9208 3.61944 10.4661 3.79112 10.2291 3.91198C9.99207 4.03292 9.62622 4.24862 9.41606 4.3914C9.20582 4.53419 8.78863 4.91766 8.48897 5.24351C8.12397 5.64024 7.81468 6.09587 7.5526 6.62281C7.3074 7.11583 7.1105 7.66359 7.02531 8.08948C6.92711 8.58038 6.90499 8.97006 6.94569 9.49181C6.97667 9.88922 7.00994 10.3473 7.01957 10.5097C7.03316 10.7394 7.00167 10.8121 6.8778 10.8369C6.76922 10.8586 6.55433 10.6959 6.20233 10.3256C5.91838 10.0268 5.55945 9.54306 5.40459 9.25061C5.24974 8.95816 5.05022 8.46267 4.96131 8.14957C4.86236 7.80136 4.79954 7.31548 4.79954 6.89835C4.79954 6.46983 4.86447 5.98046 4.9744 5.58134C5.07057 5.23204 5.27001 4.71751 5.41768 4.43798C5.56527 4.15845 5.91069 3.68769 6.18527 3.39192C6.45977 3.09616 6.93927 2.70436 7.25075 2.52129C7.56223 2.33813 8.07854 2.11334 8.39804 2.02163C8.75697 1.91871 9.25462 1.85267 9.7001 1.84893C10.0967 1.84562 10.6476 1.90086 10.9244 1.97166ZM13.9606 4.36506C14.2393 4.43823 14.7013 4.6094 14.9875 4.74539C15.2784 4.88366 15.7621 5.23017 16.0851 5.53154C16.4027 5.8279 16.806 6.31438 16.9814 6.61261C17.1568 6.91075 17.3784 7.40336 17.4738 7.70719C17.6043 8.12262 17.6478 8.49148 17.6493 9.19452C17.651 9.98603 17.6177 10.2258 17.4322 10.7578C17.3118 11.1035 17.1112 11.5624 16.9867 11.7777C16.8621 11.993 16.5101 12.4219 16.2042 12.7309C15.8985 13.0399 15.4396 13.3991 15.1844 13.5293C14.9293 13.6595 14.4546 13.8578 14.1295 13.9701C13.7036 14.1171 13.3498 14.175 12.863 14.1771C12.4915 14.1787 11.9216 14.1147 11.5965 14.0347C11.2714 13.9547 10.7775 13.7821 10.4988 13.6511C10.2202 13.5202 9.81349 13.2728 9.59506 13.1015C9.37672 12.9302 9.04008 12.5796 8.84714 12.3223C8.65421 12.065 8.38141 11.6003 8.24099 11.2894C8.08766 10.9501 7.93998 10.419 7.87151 9.96044C7.77542 9.31682 7.77567 9.07349 7.87311 8.41448C7.95915 7.83247 8.0777 7.4473 8.3364 6.90931C8.58945 6.38297 8.83009 6.03927 9.22085 5.64594C9.58485 5.27955 9.95838 5.00732 10.3815 4.80012C10.7247 4.63201 11.1764 4.44699 11.3854 4.38902C11.5944 4.33097 11.9933 4.25848 12.272 4.2278C12.5506 4.19712 12.9306 4.18547 13.1163 4.20196C13.3021 4.21845 13.682 4.29188 13.9606 4.36506ZM12.3986 5.24249C12.285 5.35689 12.2297 5.52576 12.2297 5.75889C12.2297 6.03162 12.1818 6.14449 12.0039 6.29007C11.8797 6.39172 11.618 6.62799 11.4225 6.81523C11.2065 7.02192 11.0256 7.29406 10.9619 7.50815C10.9042 7.70209 10.8814 7.99208 10.9113 8.15263C10.9413 8.31309 11.1022 8.60494 11.2691 8.80118C11.4359 8.99734 11.7108 9.22817 11.8799 9.31418C12.0491 9.40011 12.4116 9.53532 12.6855 9.6147C12.9809 9.70029 13.2815 9.85761 13.4243 10.0014C13.588 10.1662 13.6651 10.3302 13.6651 10.5137C13.6651 10.7045 13.5902 10.854 13.4095 11.0239C13.269 11.1562 13.045 11.2884 12.9117 11.3178C12.7707 11.349 12.551 11.3204 12.3863 11.2492C12.2305 11.182 11.9721 10.9886 11.8121 10.8194C11.652 10.6503 11.4412 10.5119 11.3435 10.5119C11.2458 10.5119 11.1203 10.5578 11.0646 10.6138C11.0088 10.6699 10.9634 10.7942 10.9636 10.8901C10.9637 10.9858 11.0374 11.1856 11.1271 11.3338C11.217 11.482 11.4646 11.7061 11.6775 11.8317C11.8905 11.9574 12.1018 12.1299 12.1473 12.2153C12.1926 12.3006 12.2297 12.5068 12.2297 12.6735C12.2297 12.8633 12.2929 13.0401 12.3986 13.1465C12.4915 13.24 12.6218 13.3165 12.6881 13.3165C12.7544 13.3165 12.8684 13.2564 12.9414 13.183C13.0144 13.1095 13.0741 12.9158 13.0741 12.7524C13.0741 12.5891 13.1134 12.3816 13.1613 12.2914C13.2094 12.201 13.3898 12.0541 13.5624 11.9648C13.735 11.8753 13.9783 11.6936 14.103 11.5608C14.2278 11.428 14.3702 11.2116 14.4196 11.08C14.469 10.9484 14.5095 10.6693 14.5095 10.4596C14.5095 10.25 14.4559 9.97523 14.3903 9.84894C14.3248 9.72273 14.1634 9.51867 14.0315 9.39543C13.8997 9.2722 13.6778 9.11445 13.5385 9.04485C13.3992 8.97524 13.0692 8.85583 12.8053 8.77951C12.5414 8.7031 12.2089 8.54196 12.0665 8.42136C11.8626 8.24866 11.8076 8.13452 11.8076 7.8844C11.8076 7.66317 11.8663 7.51129 12.0012 7.38372C12.1077 7.2831 12.3155 7.15833 12.463 7.10657C12.6588 7.03781 12.8075 7.03773 13.0135 7.10615C13.1687 7.15774 13.4435 7.35228 13.6242 7.53857C13.8082 7.72819 14.0335 7.87717 14.1364 7.87717C14.2373 7.87717 14.3659 7.82134 14.4222 7.75317C14.4822 7.68034 14.5025 7.5288 14.4713 7.38593C14.4422 7.25216 14.3111 7.02464 14.1802 6.88033C14.0492 6.73602 13.7861 6.53782 13.5954 6.43991C13.4046 6.34192 13.2094 6.188 13.1613 6.09766C13.1134 6.0074 13.0741 5.79994 13.0741 5.63659C13.0741 5.47324 13.0144 5.27955 12.9414 5.20603C12.8684 5.1326 12.7544 5.07251 12.6881 5.07251C12.6218 5.07251 12.4915 5.149 12.3986 5.24249ZM2.9414 15.9725C2.64284 16.125 2.52058 16.2601 2.33642 16.6404C2.17178 16.9806 2.03221 17.1477 1.84924 17.224C1.70823 17.2828 1.45949 17.4795 1.29645 17.6612C1.04348 17.943 1 18.0518 1 18.403C1 18.7407 1.06248 18.9121 1.3488 19.3589C1.54063 19.6583 2.10111 20.3056 2.5942 20.7972C3.08738 21.289 3.95022 22.0921 4.5117 22.582C5.07319 23.072 6.27004 24.1078 7.17138 24.8841C8.07271 25.6603 9.07613 26.4752 9.4012 26.6952C9.72627 26.9151 10.2962 27.2456 10.6677 27.4295C11.0392 27.6134 11.5858 27.825 11.8822 27.8997C12.2732 27.9982 12.6095 28.0208 13.1065 27.9822C13.4834 27.9529 14.1717 27.8707 14.6361 27.7994C15.1005 27.7282 15.9174 27.5936 16.4515 27.5004C16.9855 27.4072 17.7264 27.277 18.0979 27.2112C18.4694 27.1452 19.1154 27.0295 19.5333 26.9539C19.9513 26.8783 20.6542 26.7449 21.0953 26.6574C21.5365 26.5698 22.2204 26.4338 22.6152 26.3549C23.0099 26.276 23.7318 26.2094 24.2194 26.2068C24.864 26.2033 25.2327 26.2445 25.5703 26.3577C25.8258 26.4434 26.214 26.6037 26.433 26.7141C26.652 26.8245 26.9199 26.9149 27.0283 26.9149C27.1366 26.9149 27.2709 26.869 27.3266 26.8129C27.3823 26.7568 27.4279 26.6289 27.4279 26.5286C27.4279 26.4283 27.3604 26.2848 27.2778 26.2096C27.1952 26.1343 26.7298 25.9116 26.2435 25.7146C25.3718 25.3614 25.3444 25.3563 24.3038 25.3528C23.5218 25.3501 23.0078 25.3994 22.3196 25.543C21.8088 25.6496 21.1059 25.79 20.7576 25.8552C20.4093 25.9203 19.7824 26.035 19.3644 26.1099C18.9465 26.1848 18.2246 26.3168 17.7602 26.4032C17.2958 26.4895 16.5549 26.6187 16.1137 26.6903C15.6726 26.7619 14.8345 26.8991 14.2512 26.9951C13.668 27.0912 12.9734 27.1699 12.7076 27.1699C12.3712 27.1699 12.0215 27.0912 11.5571 26.9108C11.1901 26.7684 10.5549 26.4259 10.1455 26.1496C9.73615 25.8733 8.84622 25.1772 8.16779 24.6026C7.48944 24.028 6.47488 23.1653 5.91323 22.6856C5.35157 22.2059 4.45716 21.4028 3.92564 20.9008C3.39413 20.3989 2.79144 19.797 2.58643 19.5633C2.38134 19.3295 2.14949 19.0437 2.07122 18.9281C1.99286 18.8126 1.92878 18.5937 1.92878 18.4417C1.92878 18.2216 1.97952 18.1389 2.17786 18.0357C2.31489 17.9644 2.53594 17.906 2.66918 17.906C2.80233 17.906 3.11769 17.9672 3.3699 18.0422C3.62219 18.1172 4.07552 18.3157 4.37737 18.4835C4.67922 18.6512 5.24915 18.9963 5.64388 19.2503C6.03861 19.5044 6.66553 19.9501 7.03704 20.2408C7.40855 20.5316 8.26345 21.137 8.93681 21.5864C9.61018 22.0356 10.3875 22.5961 10.6641 22.8318C10.9971 23.1155 11.244 23.2603 11.3948 23.2603C11.535 23.2603 11.9657 23.0327 12.5152 22.6681C13.0061 22.3424 13.5684 21.9936 13.7646 21.8928C13.9608 21.792 14.3286 21.6378 14.5819 21.5501C14.9416 21.4255 15.2869 21.3905 16.1578 21.3905C17.1582 21.3905 17.296 21.3724 17.4955 21.2144C17.6178 21.1176 17.718 20.9667 17.718 20.8793C17.718 20.7918 17.6355 20.6621 17.5346 20.591C17.3743 20.478 16.8809 20.4684 13.6207 20.5147L9.89025 20.5678L9.50303 20.3792C9.20793 20.2354 9.07242 20.1002 8.93327 19.8109C8.81295 19.5607 8.76938 19.3567 8.80535 19.2123C8.83541 19.0917 8.91841 18.9034 8.98984 18.7937C9.06127 18.684 9.27801 18.5181 9.47154 18.4249C9.66506 18.3319 10.0703 18.2317 10.3722 18.2025C10.674 18.1733 11.301 18.0972 11.7654 18.0335C12.2297 17.9697 13.0846 17.8587 13.6651 17.7868C14.2456 17.7149 15.2145 17.5965 15.8182 17.5238C16.4219 17.451 17.072 17.3719 17.2629 17.3478C17.4537 17.3239 18.5366 17.3019 19.6692 17.2991L21.7286 17.2939L22.6574 17.6451C23.1682 17.8384 23.9661 18.1914 24.4305 18.4297C24.8949 18.668 25.7405 19.1251 26.3097 19.4454C26.8789 19.7657 27.4314 20.0498 27.5377 20.0765C27.6696 20.1099 27.7807 20.0699 27.8882 19.9502C28.0173 19.8068 28.0288 19.7378 27.9524 19.5689C27.8981 19.4489 27.5485 19.1772 27.1157 18.9188C26.707 18.6746 25.8003 18.1791 25.1011 17.8177C24.4018 17.4561 23.4709 17.0253 23.0324 16.8603C22.4826 16.6532 21.9601 16.5279 21.3486 16.4565C20.6561 16.3756 20.074 16.375 18.689 16.4539C17.7137 16.5094 16.3839 16.6109 15.7338 16.6794C15.0836 16.748 14.0577 16.8647 13.454 16.9388C12.8503 17.0129 11.8961 17.1461 11.3336 17.2348C10.7711 17.3234 10.1821 17.3959 10.0249 17.3956C9.86762 17.3953 9.55217 17.4623 9.32394 17.5443C9.09572 17.6264 8.72767 17.8574 8.50612 18.0577C8.16373 18.3673 8.08783 18.4948 8.00044 18.9076C7.94395 19.1747 7.84711 19.4487 7.7853 19.5164C7.68786 19.6232 7.63611 19.6121 7.39716 19.4333C7.24551 19.3199 6.77952 18.9925 6.36157 18.7059C5.94362 18.4192 5.3167 18.0289 4.96841 17.8383C4.62012 17.6478 4.1141 17.4093 3.84383 17.3082C3.57364 17.2072 3.3319 17.0703 3.30666 17.0042C3.2815 16.938 3.30776 16.827 3.36509 16.7575C3.42233 16.688 3.59069 16.6311 3.73913 16.6311C3.88756 16.6311 4.21534 16.6922 4.46754 16.7669C4.71983 16.8416 5.21732 17.0545 5.57312 17.2399C5.92893 17.4254 6.49607 17.785 6.83339 18.0391C7.1707 18.2931 7.49949 18.5009 7.564 18.5009C7.62859 18.5009 7.7549 18.4613 7.84474 18.4129C7.93458 18.3645 8.00804 18.2549 8.00804 18.1694C8.00804 18.0839 7.92808 17.9116 7.83039 17.7866C7.7327 17.6616 7.38094 17.3747 7.0487 17.149C6.71653 16.9233 6.14103 16.5857 5.76986 16.3985C5.39868 16.2114 4.88026 15.996 4.61767 15.9198C4.35508 15.8436 3.95469 15.7812 3.7279 15.7812C3.46734 15.7812 3.17773 15.8517 2.9414 15.9725ZM12.3553 21.4738C12.3834 21.5196 12.3699 21.6247 12.3252 21.7075C12.2806 21.7903 12.0699 21.9528 11.8571 22.0686L11.4701 22.2793L11.164 22.1133C10.9957 22.022 10.8023 21.862 10.7344 21.7577C10.6665 21.6533 10.6355 21.5281 10.6654 21.4793C10.697 21.4279 11.0528 21.3905 11.5121 21.3905C11.9477 21.3905 12.3272 21.428 12.3553 21.4738Z" fill="white"/>
<path fill-rule="evenodd" clip-rule="evenodd" d="M8.30356 1.20089C7.93205 1.30712 7.34312 1.53821 6.99483 1.71439C6.52487 1.95228 6.17387 2.22382 5.63366 2.7675C5.11093 3.29367 4.82225 3.66788 4.60939 4.09513C4.44627 4.42234 4.23239 4.97936 4.13403 5.33292C4.00408 5.80002 3.9552 6.21826 3.9552 6.86299C3.9552 7.4807 4.00408 7.92222 4.11604 8.3164C4.20453 8.6278 4.44095 9.20131 4.64139 9.59099C4.84192 9.98059 5.17797 10.4859 5.38821 10.714C5.59845 10.9421 5.98955 11.2984 6.25721 11.506C6.52478 11.7135 6.989 11.9953 7.28866 12.1321C7.72324 12.3304 7.91921 12.4884 8.25687 12.9124C8.48973 13.2048 8.89282 13.611 9.15263 13.8152C9.41235 14.0193 9.8406 14.2932 10.1041 14.4239C10.3676 14.5546 10.8707 14.7414 11.2219 14.8389C11.6571 14.9598 12.1099 15.0163 12.6432 15.0163C13.1592 15.0163 13.6608 14.956 14.1154 14.8393C14.4947 14.742 15.109 14.5055 15.4805 14.3139C15.9908 14.0507 16.3316 13.7874 16.8743 13.2373C17.3164 12.7892 17.694 12.313 17.856 11.9992C18.0009 11.7187 18.2059 11.2226 18.3117 10.8969C18.4697 10.4103 18.5044 10.114 18.506 9.23956C18.5076 8.35354 18.4753 8.07469 18.3136 7.57971C18.2067 7.2525 17.9878 6.72964 17.8272 6.4179C17.6666 6.10607 17.3231 5.615 17.0637 5.32646C16.8043 5.038 16.3938 4.65445 16.1515 4.47427C15.9091 4.294 15.4613 4.0279 15.1565 3.88291C14.7322 3.68114 14.529 3.5189 14.2899 3.19101C14.118 2.9555 13.7517 2.57356 13.4757 2.34238C13.1997 2.11121 12.721 1.79403 12.4119 1.63756C12.1028 1.4811 11.5624 1.27202 11.2111 1.17301C10.7521 1.04366 10.3485 0.995041 9.77575 1.0004C9.22034 1.00558 8.77445 1.06626 8.30356 1.20089ZM10.9244 1.97166C11.2012 2.04245 11.7038 2.23615 12.0414 2.40205C12.3789 2.56795 12.7147 2.79512 12.7874 2.90697C12.8602 3.01882 12.8987 3.1446 12.8729 3.18659C12.8471 3.22857 12.5995 3.28679 12.3226 3.31594C12.0457 3.34509 11.5583 3.44164 11.2396 3.53054C10.9208 3.61944 10.4661 3.79112 10.2291 3.91198C9.99207 4.03292 9.62622 4.24862 9.41606 4.3914C9.20582 4.53419 8.78863 4.91766 8.48897 5.24351C8.12397 5.64024 7.81468 6.09587 7.5526 6.62281C7.3074 7.11583 7.1105 7.66359 7.02531 8.08948C6.92711 8.58038 6.90499 8.97006 6.94569 9.49181C6.97667 9.88922 7.00994 10.3473 7.01957 10.5097C7.03316 10.7394 7.00167 10.8121 6.8778 10.8369C6.76922 10.8586 6.55433 10.6959 6.20233 10.3256C5.91838 10.0268 5.55945 9.54306 5.40459 9.25061C5.24974 8.95816 5.05022 8.46267 4.96131 8.14957C4.86236 7.80136 4.79954 7.31548 4.79954 6.89835C4.79954 6.46983 4.86447 5.98046 4.9744 5.58134C5.07057 5.23204 5.27001 4.71751 5.41768 4.43798C5.56527 4.15845 5.91069 3.68769 6.18527 3.39192C6.45977 3.09616 6.93927 2.70436 7.25075 2.52129C7.56223 2.33813 8.07854 2.11334 8.39804 2.02163C8.75697 1.91871 9.25462 1.85267 9.7001 1.84893C10.0967 1.84562 10.6476 1.90086 10.9244 1.97166ZM13.9606 4.36506C14.2393 4.43823 14.7013 4.6094 14.9875 4.74539C15.2784 4.88366 15.7621 5.23017 16.0851 5.53154C16.4027 5.8279 16.806 6.31438 16.9814 6.61261C17.1568 6.91075 17.3784 7.40336 17.4738 7.70719C17.6043 8.12262 17.6478 8.49148 17.6493 9.19452C17.651 9.98603 17.6177 10.2258 17.4322 10.7578C17.3118 11.1035 17.1112 11.5624 16.9867 11.7777C16.8621 11.993 16.5101 12.4219 16.2042 12.7309C15.8985 13.0399 15.4396 13.3991 15.1844 13.5293C14.9293 13.6595 14.4546 13.8578 14.1295 13.9701C13.7036 14.1171 13.3498 14.175 12.863 14.1771C12.4915 14.1787 11.9216 14.1147 11.5965 14.0347C11.2714 13.9547 10.7775 13.7821 10.4988 13.6511C10.2202 13.5202 9.81349 13.2728 9.59506 13.1015C9.37672 12.9302 9.04008 12.5796 8.84714 12.3223C8.65421 12.065 8.38141 11.6003 8.24099 11.2894C8.08766 10.9501 7.93998 10.419 7.87151 9.96044C7.77542 9.31682 7.77567 9.07349 7.87311 8.41448C7.95915 7.83247 8.0777 7.4473 8.3364 6.90931C8.58945 6.38297 8.83009 6.03927 9.22085 5.64594C9.58485 5.27955 9.95838 5.00732 10.3815 4.80012C10.7247 4.63201 11.1764 4.44699 11.3854 4.38902C11.5944 4.33097 11.9933 4.25848 12.272 4.2278C12.5506 4.19712 12.9306 4.18547 13.1163 4.20196C13.3021 4.21845 13.682 4.29188 13.9606 4.36506ZM12.3986 5.24249C12.285 5.35689 12.2297 5.52576 12.2297 5.75889C12.2297 6.03162 12.1818 6.14449 12.0039 6.29007C11.8797 6.39172 11.618 6.62799 11.4225 6.81523C11.2065 7.02192 11.0256 7.29406 10.9619 7.50815C10.9042 7.70209 10.8814 7.99208 10.9113 8.15263C10.9413 8.31309 11.1022 8.60494 11.2691 8.80118C11.4359 8.99734 11.7108 9.22817 11.8799 9.31418C12.0491 9.40011 12.4116 9.53532 12.6855 9.6147C12.9809 9.70029 13.2815 9.85761 13.4243 10.0014C13.588 10.1662 13.6651 10.3302 13.6651 10.5137C13.6651 10.7045 13.5902 10.854 13.4095 11.0239C13.269 11.1562 13.045 11.2884 12.9117 11.3178C12.7707 11.349 12.551 11.3204 12.3863 11.2492C12.2305 11.182 11.9721 10.9886 11.8121 10.8194C11.652 10.6503 11.4412 10.5119 11.3435 10.5119C11.2458 10.5119 11.1203 10.5578 11.0646 10.6138C11.0088 10.6699 10.9634 10.7942 10.9636 10.8901C10.9637 10.9858 11.0374 11.1856 11.1271 11.3338C11.217 11.482 11.4646 11.7061 11.6775 11.8317C11.8905 11.9574 12.1018 12.1299 12.1473 12.2153C12.1926 12.3006 12.2297 12.5068 12.2297 12.6735C12.2297 12.8633 12.2929 13.0401 12.3986 13.1465C12.4915 13.24 12.6218 13.3165 12.6881 13.3165C12.7544 13.3165 12.8684 13.2564 12.9414 13.183C13.0144 13.1095 13.0741 12.9158 13.0741 12.7524C13.0741 12.5891 13.1134 12.3816 13.1613 12.2914C13.2094 12.201 13.3898 12.0541 13.5624 11.9648C13.735 11.8753 13.9783 11.6936 14.103 11.5608C14.2278 11.428 14.3702 11.2116 14.4196 11.08C14.469 10.9484 14.5095 10.6693 14.5095 10.4596C14.5095 10.25 14.4559 9.97523 14.3903 9.84894C14.3248 9.72273 14.1634 9.51867 14.0315 9.39543C13.8997 9.2722 13.6778 9.11445 13.5385 9.04485C13.3992 8.97524 13.0692 8.85583 12.8053 8.77951C12.5414 8.7031 12.2089 8.54196 12.0665 8.42136C11.8626 8.24866 11.8076 8.13452 11.8076 7.8844C11.8076 7.66317 11.8663 7.51129 12.0012 7.38372C12.1077 7.2831 12.3155 7.15833 12.463 7.10657C12.6588 7.03781 12.8075 7.03773 13.0135 7.10615C13.1687 7.15774 13.4435 7.35228 13.6242 7.53857C13.8082 7.72819 14.0335 7.87717 14.1364 7.87717C14.2373 7.87717 14.3659 7.82134 14.4222 7.75317C14.4822 7.68034 14.5025 7.5288 14.4713 7.38593C14.4422 7.25216 14.3111 7.02464 14.1802 6.88033C14.0492 6.73602 13.7861 6.53782 13.5954 6.43991C13.4046 6.34192 13.2094 6.188 13.1613 6.09766C13.1134 6.0074 13.0741 5.79994 13.0741 5.63659C13.0741 5.47324 13.0144 5.27955 12.9414 5.20603C12.8684 5.1326 12.7544 5.07251 12.6881 5.07251C12.6218 5.07251 12.4915 5.149 12.3986 5.24249ZM2.9414 15.9725C2.64284 16.125 2.52058 16.2601 2.33642 16.6404C2.17178 16.9806 2.03221 17.1477 1.84924 17.224C1.70823 17.2828 1.45949 17.4795 1.29645 17.6612C1.04348 17.943 1 18.0518 1 18.403C1 18.7407 1.06248 18.9121 1.3488 19.3589C1.54063 19.6583 2.10111 20.3056 2.5942 20.7972C3.08738 21.289 3.95022 22.0921 4.5117 22.582C5.07319 23.072 6.27004 24.1078 7.17138 24.8841C8.07271 25.6603 9.07613 26.4752 9.4012 26.6952C9.72627 26.9151 10.2962 27.2456 10.6677 27.4295C11.0392 27.6134 11.5858 27.825 11.8822 27.8997C12.2732 27.9982 12.6095 28.0208 13.1065 27.9822C13.4834 27.9529 14.1717 27.8707 14.6361 27.7994C15.1005 27.7282 15.9174 27.5936 16.4515 27.5004C16.9855 27.4072 17.7264 27.277 18.0979 27.2112C18.4694 27.1452 19.1154 27.0295 19.5333 26.9539C19.9513 26.8783 20.6542 26.7449 21.0953 26.6574C21.5365 26.5698 22.2204 26.4338 22.6152 26.3549C23.0099 26.276 23.7318 26.2094 24.2194 26.2068C24.864 26.2033 25.2327 26.2445 25.5703 26.3577C25.8258 26.4434 26.214 26.6037 26.433 26.7141C26.652 26.8245 26.9199 26.9149 27.0283 26.9149C27.1366 26.9149 27.2709 26.869 27.3266 26.8129C27.3823 26.7568 27.4279 26.6289 27.4279 26.5286C27.4279 26.4283 27.3604 26.2848 27.2778 26.2096C27.1952 26.1343 26.7298 25.9116 26.2435 25.7146C25.3718 25.3614 25.3444 25.3563 24.3038 25.3528C23.5218 25.3501 23.0078 25.3994 22.3196 25.543C21.8088 25.6496 21.1059 25.79 20.7576 25.8552C20.4093 25.9203 19.7824 26.035 19.3644 26.1099C18.9465 26.1848 18.2246 26.3168 17.7602 26.4032C17.2958 26.4895 16.5549 26.6187 16.1137 26.6903C15.6726 26.7619 14.8345 26.8991 14.2512 26.9951C13.668 27.0912 12.9734 27.1699 12.7076 27.1699C12.3712 27.1699 12.0215 27.0912 11.5571 26.9108C11.1901 26.7684 10.5549 26.4259 10.1455 26.1496C9.73615 25.8733 8.84622 25.1772 8.16779 24.6026C7.48944 24.028 6.47488 23.1653 5.91323 22.6856C5.35157 22.2059 4.45716 21.4028 3.92564 20.9008C3.39413 20.3989 2.79144 19.797 2.58643 19.5633C2.38134 19.3295 2.14949 19.0437 2.07122 18.9281C1.99286 18.8126 1.92878 18.5937 1.92878 18.4417C1.92878 18.2216 1.97952 18.1389 2.17786 18.0357C2.31489 17.9644 2.53594 17.906 2.66918 17.906C2.80233 17.906 3.11769 17.9672 3.3699 18.0422C3.62219 18.1172 4.07552 18.3157 4.37737 18.4835C4.67922 18.6512 5.24915 18.9963 5.64388 19.2503C6.03861 19.5044 6.66553 19.9501 7.03704 20.2408C7.40855 20.5316 8.26345 21.137 8.93681 21.5864C9.61018 22.0356 10.3875 22.5961 10.6641 22.8318C10.9971 23.1155 11.244 23.2603 11.3948 23.2603C11.535 23.2603 11.9657 23.0327 12.5152 22.6681C13.0061 22.3424 13.5684 21.9936 13.7646 21.8928C13.9608 21.792 14.3286 21.6378 14.5819 21.5501C14.9416 21.4255 15.2869 21.3905 16.1578 21.3905C17.1582 21.3905 17.296 21.3724 17.4955 21.2144C17.6178 21.1176 17.718 20.9667 17.718 20.8793C17.718 20.7918 17.6355 20.6621 17.5346 20.591C17.3743 20.478 16.8809 20.4684 13.6207 20.5147L9.89025 20.5678L9.50303 20.3792C9.20793 20.2354 9.07242 20.1002 8.93327 19.8109C8.81295 19.5607 8.76938 19.3567 8.80535 19.2123C8.83541 19.0917 8.91841 18.9034 8.98984 18.7937C9.06127 18.684 9.27801 18.5181 9.47154 18.4249C9.66506 18.3319 10.0703 18.2317 10.3722 18.2025C10.674 18.1733 11.301 18.0972 11.7654 18.0335C12.2297 17.9697 13.0846 17.8587 13.6651 17.7868C14.2456 17.7149 15.2145 17.5965 15.8182 17.5238C16.4219 17.451 17.072 17.3719 17.2629 17.3478C17.4537 17.3239 18.5366 17.3019 19.6692 17.2991L21.7286 17.2939L22.6574 17.6451C23.1682 17.8384 23.9661 18.1914 24.4305 18.4297C24.8949 18.668 25.7405 19.1251 26.3097 19.4454C26.8789 19.7657 27.4314 20.0498 27.5377 20.0765C27.6696 20.1099 27.7807 20.0699 27.8882 19.9502C28.0173 19.8068 28.0288 19.7378 27.9524 19.5689C27.8981 19.4489 27.5485 19.1772 27.1157 18.9188C26.707 18.6746 25.8003 18.1791 25.1011 17.8177C24.4018 17.4561 23.4709 17.0253 23.0324 16.8603C22.4826 16.6532 21.9601 16.5279 21.3486 16.4565C20.6561 16.3756 20.074 16.375 18.689 16.4539C17.7137 16.5094 16.3839 16.6109 15.7338 16.6794C15.0836 16.748 14.0577 16.8647 13.454 16.9388C12.8503 17.0129 11.8961 17.1461 11.3336 17.2348C10.7711 17.3234 10.1821 17.3959 10.0249 17.3956C9.86762 17.3953 9.55217 17.4623 9.32394 17.5443C9.09572 17.6264 8.72767 17.8574 8.50612 18.0577C8.16373 18.3673 8.08783 18.4948 8.00044 18.9076C7.94395 19.1747 7.84711 19.4487 7.7853 19.5164C7.68786 19.6232 7.63611 19.6121 7.39716 19.4333C7.24551 19.3199 6.77952 18.9925 6.36157 18.7059C5.94362 18.4192 5.3167 18.0289 4.96841 17.8383C4.62012 17.6478 4.1141 17.4093 3.84383 17.3082C3.57364 17.2072 3.3319 17.0703 3.30666 17.0042C3.2815 16.938 3.30776 16.827 3.36509 16.7575C3.42233 16.688 3.59069 16.6311 3.73913 16.6311C3.88756 16.6311 4.21534 16.6922 4.46754 16.7669C4.71983 16.8416 5.21732 17.0545 5.57312 17.2399C5.92893 17.4254 6.49607 17.785 6.83339 18.0391C7.1707 18.2931 7.49949 18.5009 7.564 18.5009C7.62859 18.5009 7.7549 18.4613 7.84474 18.4129C7.93458 18.3645 8.00804 18.2549 8.00804 18.1694C8.00804 18.0839 7.92808 17.9116 7.83039 17.7866C7.7327 17.6616 7.38094 17.3747 7.0487 17.149C6.71653 16.9233 6.14103 16.5857 5.76986 16.3985C5.39868 16.2114 4.88026 15.996 4.61767 15.9198C4.35508 15.8436 3.95469 15.7812 3.7279 15.7812C3.46734 15.7812 3.17773 15.8517 2.9414 15.9725ZM12.3553 21.4738C12.3834 21.5196 12.3699 21.6247 12.3252 21.7075C12.2806 21.7903 12.0699 21.9528 11.8571 22.0686L11.4701 22.2793L11.164 22.1133C10.9957 22.022 10.8023 21.862 10.7344 21.7577C10.6665 21.6533 10.6355 21.5281 10.6654 21.4793C10.697 21.4279 11.0528 21.3905 11.5121 21.3905C11.9477 21.3905 12.3272 21.428 12.3553 21.4738Z" stroke="white" stroke-width="0.6" mask="url(#path-1-outside-1_193_1576)"/>
</svg>
