<svg width="25" height="25" viewBox="0 0 25 25" fill="none" xmlns="http://www.w3.org/2000/svg">
<path d="M23.1547 13.4703L24.4891 6.15313C24.5123 6.02745 24.5067 5.89813 24.4726 5.77495C24.4385 5.65178 24.3768 5.53798 24.2922 5.44219C24.2113 5.34329 24.1096 5.26354 23.9942 5.2087C23.8788 5.15385 23.7527 5.12527 23.625 5.125H5.98281L5.44688 2.18281C5.37284 1.78113 5.16064 1.41799 4.84702 1.15631C4.53341 0.894631 4.13814 0.750893 3.72969 0.75H1.75C1.51794 0.75 1.29538 0.842187 1.13128 1.00628C0.967187 1.17038 0.875 1.39294 0.875 1.625C0.875 1.85706 0.967187 2.07962 1.13128 2.24372C1.29538 2.40781 1.51794 2.5 1.75 2.5H3.72969L6.72656 19.0156C6.29928 19.392 5.98538 19.88 5.82012 20.4249C5.65486 20.9698 5.64478 21.55 5.79101 22.1003C5.93724 22.6506 6.23399 23.1492 6.64794 23.5402C7.06189 23.9311 7.57664 24.199 8.13439 24.3136C8.69213 24.4282 9.27079 24.385 9.80536 24.189C10.3399 23.9929 10.8093 23.6517 11.1606 23.2036C11.512 22.7556 11.7315 22.2184 11.7945 21.6525C11.8575 21.0866 11.7614 20.5143 11.5172 20H17.3578C17.0734 20.5996 16.9915 21.2753 17.1243 21.9254C17.2571 22.5756 17.5975 23.165 18.0942 23.605C18.5909 24.045 19.2171 24.3117 19.8786 24.3651C20.54 24.4184 21.2009 24.2555 21.7617 23.9008C22.3225 23.5462 22.753 23.0189 22.9883 22.3984C23.2236 21.778 23.251 21.0979 23.0664 20.4605C22.8818 19.8231 22.4952 19.2629 21.9647 18.8643C21.4342 18.4656 20.7886 18.25 20.125 18.25H8.36719L7.88594 15.625H20.5734C21.1878 15.6247 21.7827 15.4089 22.2543 15.0152C22.726 14.6215 23.0446 14.0748 23.1547 13.4703ZM10.0625 21.3125C10.0625 21.5721 9.98552 21.8258 9.8413 22.0417C9.69708 22.2575 9.4921 22.4258 9.25227 22.5251C9.01244 22.6244 8.74854 22.6504 8.49394 22.5998C8.23934 22.5491 8.00548 22.4241 7.82192 22.2406C7.63837 22.057 7.51336 21.8232 7.46272 21.5686C7.41208 21.314 7.43807 21.0501 7.53741 20.8102C7.63675 20.5704 7.80498 20.3654 8.02081 20.2212C8.23665 20.077 8.49041 20 8.75 20C9.0981 20 9.43194 20.1383 9.67808 20.3844C9.92422 20.6306 10.0625 20.9644 10.0625 21.3125ZM21.4375 21.3125C21.4375 21.5721 21.3605 21.8258 21.2163 22.0417C21.0721 22.2575 20.8671 22.4258 20.6273 22.5251C20.3874 22.6244 20.1235 22.6504 19.8689 22.5998C19.6143 22.5491 19.3805 22.4241 19.1969 22.2406C19.0134 22.057 18.8884 21.8232 18.8377 21.5686C18.7871 21.314 18.8131 21.0501 18.9124 20.8102C19.0117 20.5704 19.18 20.3654 19.3958 20.2212C19.6117 20.077 19.8654 20 20.125 20C20.4731 20 20.8069 20.1383 21.0531 20.3844C21.2992 20.6306 21.4375 20.9644 21.4375 21.3125ZM6.3 6.875H22.575L21.4375 13.1531C21.4015 13.3559 21.295 13.5395 21.137 13.6715C20.9789 13.8035 20.7794 13.8756 20.5734 13.875H7.56875L6.3 6.875Z" fill="white"/>
</svg>
