<svg width="24" height="24" viewBox="0 0 24 24" fill="none" xmlns="http://www.w3.org/2000/svg">
<path d="M16.3284 2.66667C17.2968 2.66667 18.2184 2.92333 19.0001 3.43667C20.3301 4.3 21.1468 5.61833 21.3334 7.14667C21.4001 7.88697 21.3042 8.63291 21.0523 9.33222C20.8004 10.0315 20.3986 10.6673 19.8751 11.195C19.0584 12 18.0201 12.5133 16.8768 12.63C14.6484 12.8633 12.6884 13.75 11.2301 15.2317C11.0538 15.4037 10.8172 15.5 10.5709 15.5C10.3246 15.5 10.088 15.4037 9.91175 15.2317L8.75675 14.0767C8.67511 13.9958 8.61038 13.8994 8.56632 13.7933C8.52225 13.6871 8.49974 13.5733 8.50009 13.4583C8.50009 13.1667 8.62842 12.91 8.87342 12.665C10.2851 11.2417 11.1484 9.35166 11.3584 7.18166C11.5101 5.63 12.3384 4.3 13.6918 3.425C14.4618 2.92333 15.3718 2.66667 16.3284 2.66667ZM16.3284 0.333332C14.9634 0.333332 13.5984 0.706665 12.4201 1.465C10.3668 2.78333 9.23509 4.83667 9.03675 6.96C8.88509 8.5 8.30175 9.935 7.22842 11.0083L7.19342 11.0433C5.84009 12.3967 5.84009 14.4617 7.11175 15.7217L8.26675 16.8767C8.90842 17.5183 9.73675 17.8333 10.5651 17.8333C11.3934 17.8333 12.2334 17.5183 12.8751 16.8767C14.0068 15.745 15.5001 15.1267 17.1218 14.9517C18.7201 14.7767 20.2834 14.0767 21.5201 12.8517C22.296 12.0769 22.8877 11.1376 23.2516 10.1032C23.6155 9.06885 23.7422 7.96593 23.6223 6.87601C23.5025 5.78609 23.1391 4.73706 22.5592 3.8065C21.9792 2.87595 21.1975 2.08768 20.2718 1.5C19.0934 0.718332 17.7168 0.333332 16.3284 0.333332ZM5.30342 21.17C5.61842 21.8233 5.51342 22.6167 4.96509 23.1533C4.7276 23.3944 4.42493 23.5609 4.09418 23.6324C3.76343 23.704 3.419 23.6774 3.10313 23.556C2.78726 23.4346 2.51369 23.2237 2.31598 22.949C2.11826 22.6744 2.005 22.3481 1.99009 22.01C1.65202 21.9951 1.32566 21.8818 1.05104 21.6841C0.776413 21.4864 0.565466 21.2128 0.444073 20.897C0.32268 20.5811 0.29612 20.2367 0.367649 19.9059C0.439179 19.5752 0.605689 19.2725 0.846753 19.035C1.38342 18.4983 2.18842 18.3817 2.83009 18.6967L5.72342 15.8617C5.88675 16.0833 6.07342 16.34 6.28342 16.55L7.43842 17.705C7.68342 17.9383 7.91675 18.1367 8.22009 18.3117L5.30342 21.17Z" fill="white"/>
</svg>
