<svg width="26" height="24" viewBox="0 0 26 24" fill="none" xmlns="http://www.w3.org/2000/svg">
<path d="M21.1667 23.5H4.83341C4.524 23.5 4.22725 23.3771 4.00846 23.1583C3.78966 22.9395 3.66675 22.6428 3.66675 22.3333V11.8333H0.166748L12.2149 0.880666C12.4297 0.685224 12.7097 0.576916 13.0001 0.576916C13.2905 0.576916 13.5705 0.685224 13.7852 0.880666L25.8334 11.8333H22.3334V22.3333C22.3334 22.6428 22.2105 22.9395 21.9917 23.1583C21.7729 23.3771 21.4762 23.5 21.1667 23.5ZM14.1667 21.1667H20.0001V9.68317L13.0001 3.32017L6.00008 9.68317V21.1667H11.8334V14.1667H14.1667V21.1667Z" fill="white"/>
</svg>
