<svg width="18" height="22" viewBox="0 0 18 22" fill="none" xmlns="http://www.w3.org/2000/svg">
<path d="M5.39121 8.84459C5.44556 9.00802 5.43282 9.18634 5.3558 9.34038C5.27878 9.49443 5.14377 9.61161 4.98041 9.66619C4.78084 9.72929 4.59572 9.83128 4.43574 9.96626C4.27577 10.1013 4.14409 10.2666 4.04831 10.4527C3.80781 10.9064 3.64271 11.6526 3.79481 12.8707C3.81086 13.0391 3.76059 13.2072 3.6547 13.3391C3.54881 13.4711 3.39563 13.5566 3.22773 13.5774C3.05982 13.5982 2.89041 13.5527 2.7555 13.4506C2.62058 13.3485 2.5308 13.1978 2.50521 13.0306C2.33231 11.6487 2.49221 10.6074 2.90171 9.84169C3.31771 9.06169 3.95081 8.63919 4.56961 8.43379C4.73304 8.37944 4.91136 8.39218 5.06541 8.4692C5.21945 8.54623 5.33663 8.68124 5.39121 8.84459ZM11.8054 1.86619C11.9628 1.80701 12.0911 1.68916 12.1634 1.53739C12.2357 1.38562 12.2464 1.21173 12.1933 1.05224C12.1401 0.892748 12.0272 0.760058 11.8783 0.682032C11.7294 0.604007 11.556 0.586715 11.3946 0.633789C10.1752 1.03939 9.41471 2.04039 8.96881 3.11289C8.90833 3.25784 8.85283 3.40483 8.80241 3.55359C8.55928 3.09235 8.24813 2.67033 7.87941 2.30169C7.37974 1.80094 6.78291 1.40769 6.12564 1.14612C5.46836 0.884549 4.76453 0.760191 4.05741 0.780689C3.69527 0.790517 3.35065 0.938678 3.09436 1.19472C2.83807 1.45077 2.68958 1.79526 2.67941 2.15739C2.65892 2.874 2.78719 3.58708 3.05614 4.25163C3.32509 4.91617 3.72888 5.51775 4.24201 6.01839C3.15001 6.25493 2.16317 6.83675 1.42753 7.67775C0.6919 8.51874 0.246558 9.57422 0.157415 10.688L0.149615 10.7842C-0.0220092 12.9255 0.434267 15.0705 1.46261 16.9566L1.92931 17.812C1.94231 17.8341 1.95531 17.8562 1.97091 17.877L3.27091 19.6996C3.56555 20.1122 3.94655 20.4557 4.3874 20.7062C4.82825 20.9566 5.31837 21.108 5.82367 21.1498C6.32897 21.1916 6.83732 21.1229 7.31334 20.9483C7.78937 20.7737 8.22165 20.4976 8.58012 20.139C8.63516 20.0839 8.70052 20.0402 8.77246 20.0104C8.8444 19.9806 8.9215 19.9653 8.99937 19.9653C9.07723 19.9653 9.15434 19.9806 9.22627 20.0104C9.29821 20.0402 9.36357 20.0839 9.41861 20.139C9.77708 20.4976 10.2094 20.7737 10.6854 20.9483C11.1614 21.1229 11.6698 21.1916 12.1751 21.1498C12.6804 21.108 13.1705 20.9566 13.6113 20.7062C14.0522 20.4557 14.4332 20.1122 14.7278 19.6996L16.0278 17.8783C16.0434 17.8571 16.0577 17.8349 16.0707 17.812L16.5361 16.9566C17.5649 15.0706 18.0216 12.9257 17.8504 10.7842L17.8426 10.688C17.7851 9.97024 17.5791 9.27226 17.2377 8.63827C16.8963 8.00429 16.427 7.44811 15.8594 7.00497C15.2919 6.56184 14.6385 6.2414 13.9406 6.06396C13.2428 5.88653 12.5157 5.85596 11.8054 5.97419L9.65001 6.33299C9.66302 5.44769 9.81901 4.45189 10.1674 3.61209C10.5327 2.73459 11.0735 2.11059 11.8054 1.86619ZM7.33342 6.16399L7.13322 6.13019C6.37029 5.98266 5.66923 5.60949 5.12081 5.05899C4.74498 4.6844 4.44982 4.23683 4.25352 3.74384C4.05722 3.25085 3.96393 2.72289 3.97941 2.19249C3.97976 2.16237 3.99196 2.13361 4.01338 2.11243C4.0348 2.09126 4.0637 2.07939 4.09381 2.07939C4.624 2.06409 5.15172 2.15746 5.64447 2.35375C6.13722 2.55005 6.58458 2.84511 6.95902 3.22079C7.74812 4.00989 8.12901 5.05119 8.10041 6.08729C8.10008 6.11718 8.08805 6.14575 8.06692 6.16689C8.04578 6.18803 8.01721 6.20005 7.98731 6.20039C7.76871 6.20649 7.54999 6.19431 7.33342 6.16399ZM6.90702 7.41069L7.13322 7.44839L8.14462 7.61739C8.71097 7.71184 9.28906 7.71184 9.85542 7.61739L12.0186 7.25599C12.5515 7.16711 13.097 7.18991 13.6206 7.32294C14.1442 7.45596 14.6344 7.69631 15.0602 8.02875C15.486 8.36119 15.8381 8.77847 16.0942 9.25414C16.3503 9.72981 16.5048 10.2535 16.5478 10.792L16.5543 10.8882C16.7056 12.778 16.3026 14.6709 15.3947 16.3352L14.9475 17.1542L13.6696 18.943C13.4848 19.202 13.2458 19.4177 12.9692 19.575C12.6925 19.7323 12.385 19.8274 12.0678 19.8537C11.7507 19.8801 11.4317 19.837 11.1329 19.7276C10.8341 19.6181 10.5628 19.4449 10.3377 19.2199C9.98275 18.865 9.50134 18.6656 8.99937 18.6656C8.49739 18.6656 8.01598 18.865 7.66102 19.2199C7.43598 19.4449 7.16463 19.6181 6.86584 19.7276C6.56705 19.837 6.248 19.8801 5.93088 19.8537C5.61377 19.8274 5.3062 19.7323 5.02958 19.575C4.75296 19.4177 4.51393 19.202 4.32911 18.943L3.05121 17.1542L2.60401 16.3352C1.69613 14.6709 1.29316 12.778 1.44441 10.8882L1.45221 10.792C1.49527 10.2535 1.64974 9.72981 1.90582 9.25414C2.1619 8.77847 2.51401 8.36119 2.93982 8.02875C3.36564 7.69631 3.85588 7.45596 4.37946 7.32294C4.90305 7.18991 5.44856 7.16711 5.98141 7.25599L6.90702 7.41069Z" fill="#111111"/>
</svg>
