<svg width="14" height="12" viewBox="0 0 14 12" fill="none" xmlns="http://www.w3.org/2000/svg">
<path d="M5.00006 7.86666L11.5334 1.33333C11.7778 1.08888 12.089 0.96666 12.4667 0.96666C12.8445 0.96666 13.1556 1.08888 13.4001 1.33333C13.6445 1.57777 13.7667 1.88888 13.7667 2.26666C13.7667 2.64444 13.6445 2.95555 13.4001 3.19999L5.9334 10.6667C5.66673 10.9333 5.35562 11.0667 5.00006 11.0667C4.64451 11.0667 4.3334 10.9333 4.06673 10.6667L0.600065 7.19999C0.35562 6.95555 0.233398 6.64444 0.233398 6.26666C0.233398 5.88888 0.35562 5.57777 0.600065 5.33333C0.844509 5.08888 1.15562 4.96666 1.5334 4.96666C1.91118 4.96666 2.22229 5.08888 2.46673 5.33333L5.00006 7.86666Z" fill="white"/>
</svg>
