<svg width="18" height="18" viewBox="0 0 18 18" fill="none" xmlns="http://www.w3.org/2000/svg">
<path d="M6.25833 5.42502L8.16667 3.50835V11.5C8.16667 11.721 8.25447 11.933 8.41075 12.0893C8.56703 12.2456 8.77899 12.3333 9 12.3333C9.22101 12.3333 9.43298 12.2456 9.58926 12.0893C9.74554 11.933 9.83333 11.721 9.83333 11.5V3.50835L11.7417 5.42502C11.8191 5.50312 11.9113 5.56512 12.0129 5.60742C12.1144 5.64973 12.2233 5.67151 12.3333 5.67151C12.4433 5.67151 12.5523 5.64973 12.6538 5.60742C12.7554 5.56512 12.8475 5.50312 12.925 5.42502C13.0031 5.34755 13.0651 5.25538 13.1074 5.15383C13.1497 5.05228 13.1715 4.94336 13.1715 4.83335C13.1715 4.72334 13.1497 4.61442 13.1074 4.51287C13.0651 4.41132 13.0031 4.31915 12.925 4.24168L9.59167 0.908349C9.51241 0.832482 9.41896 0.773011 9.31667 0.733349C9.11378 0.65 8.88622 0.65 8.68333 0.733349C8.58104 0.773011 8.48759 0.832482 8.40833 0.908349L5.075 4.24168C4.9973 4.31938 4.93567 4.41162 4.89362 4.51314C4.85157 4.61466 4.82992 4.72347 4.82992 4.83335C4.82992 4.94323 4.85157 5.05204 4.89362 5.15356C4.93567 5.25507 4.9973 5.34732 5.075 5.42502C5.1527 5.50271 5.24494 5.56435 5.34646 5.6064C5.44798 5.64845 5.55679 5.67009 5.66667 5.67009C5.77655 5.67009 5.88536 5.64845 5.98688 5.6064C6.08839 5.56435 6.18064 5.50271 6.25833 5.42502ZM16.5 10.6667C16.279 10.6667 16.067 10.7545 15.9107 10.9108C15.7545 11.067 15.6667 11.279 15.6667 11.5V14.8333C15.6667 15.0544 15.5789 15.2663 15.4226 15.4226C15.2663 15.5789 15.0543 15.6667 14.8333 15.6667H3.16667C2.94565 15.6667 2.73369 15.5789 2.57741 15.4226C2.42113 15.2663 2.33333 15.0544 2.33333 14.8333V11.5C2.33333 11.279 2.24554 11.067 2.08926 10.9108C1.93298 10.7545 1.72101 10.6667 1.5 10.6667C1.27899 10.6667 1.06703 10.7545 0.910746 10.9108C0.754465 11.067 0.666668 11.279 0.666668 11.5V14.8333C0.666668 15.4964 0.93006 16.1323 1.3989 16.6011C1.86774 17.07 2.50363 17.3333 3.16667 17.3333H14.8333C15.4964 17.3333 16.1323 17.07 16.6011 16.6011C17.0699 16.1323 17.3333 15.4964 17.3333 14.8333V11.5C17.3333 11.279 17.2455 11.067 17.0893 10.9108C16.933 10.7545 16.721 10.6667 16.5 10.6667Z" fill="white"/>
</svg>
